SplineFontDB: 3.0
FontName: Glegoo
FullName: Glegoo
FamilyName: Glegoo
Weight: Normal
Copyright: 
Version: 1.000
FONDName: Glegoo
ItalicAngle: 0
UnderlinePosition: -2
UnderlineWidth: 3
Ascent: 800
Descent: 200
UFOAscent: 750
UFODescent: -227
LayerCount: 2
Layer: 0 0 "Back"  1
Layer: 1 0 "Fore"  0
FSType: 0
OS2Version: 0
OS2_WeightWidthSlopeOnly: 0
OS2_UseTypoMetrics: 0
CreationTime: 1405103452
ModificationTime: 1405103520
PfmFamily: 0
TTFWeight: 400
TTFWidth: 0
LineGap: 23
VLineGap: 0
Panose: 0 0 0 0 0 0 0 0 0 0
OS2TypoAscent: 750
OS2TypoAOffset: 0
OS2TypoDescent: -227
OS2TypoDOffset: 0
OS2TypoLinegap: 46
OS2WinAscent: 1122
OS2WinAOffset: 0
OS2WinDescent: 509
OS2WinDOffset: 0
HheadAscent: 1122
HheadAOffset: 0
HheadDescent: -509
HheadDOffset: 0
OS2SubXSize: 700
OS2SubYSize: 650
OS2SubXOff: 0
OS2SubYOff: 140
OS2SupXSize: 700
OS2SupYSize: 650
OS2SupXOff: 0
OS2SupYOff: 477
OS2StrikeYSize: 50
OS2StrikeYPos: 250
OS2Vendor: 'TIPO'
OS2CodePages: 20000093.00000000
OS2UnicodeRanges: a00080af.5000204b.00000000.00000000
Lookup: 4 0 0 "'haln' Halant Forms lookup 0"  {"'haln' Halant Forms lookup 0 subtable"  } ['haln' ('DFLT' <'dflt' > 'dev2' <'MAR ' 'NEP ' 'dflt' > 'deva' <'MAR ' 'NEP ' 'dflt' > ) ]
Lookup: 1 0 0 "'locl' Localized Forms lookup 1"  {"'locl' Localized Forms lookup 1 subtable"  } ['locl' ('dev2' <'MAR ' > 'deva' <'MAR ' > ) ]
Lookup: 4 0 0 "'locl' Localized Forms lookup 2"  {"'locl' Localized Forms lookup 2 subtable"  } ['locl' ('dev2' <'MAR ' > 'deva' <'MAR ' > ) ]
Lookup: 1 0 0 "'locl' Localized Forms lookup 3"  {"'locl' Localized Forms lookup 3 subtable"  } ['locl' ('dev2' <'NEP ' > 'deva' <'NEP ' > ) ]
Lookup: 4 0 0 "'locl' Localized Forms lookup 4"  {"'locl' Localized Forms lookup 4 subtable"  } ['locl' ('dev2' <'NEP ' > 'deva' <'NEP ' > ) ]
Lookup: 4 0 0 "'nukt' Nukta Forms lookup 5"  {"'nukt' Nukta Forms lookup 5 subtable"  } ['nukt' ('dev2' <'MAR ' 'NEP ' 'dflt' > 'deva' <'MAR ' 'NEP ' 'dflt' > ) ]

StartChar: .notdef
Encoding: 65536 -1 0
Width: 1040
VWidth: 0
Flags: W
PickledData: "(dp1
S'com.typemytype.robofont.layerData'
p2
(dp3
s."
LayerCount: 2
Fore
SplineSet
195 65 m 257
 846 65 l 257
 846 846 l 257
 195 846 l 257
 195 65 l 257
130 0 m 257
 130 910 l 257
 910 910 l 257
 910 0 l 257
 130 0 l 257
EndSplineSet
Validated: 1
EndChar

StartChar: A
Encoding: 65 65 1
Width: 653
VWidth: 0
Flags: W
PickledData: "(dp1
S'com.typemytype.robofont.layerData'
p2
(dp3
s."
LayerCount: 2
Fore
SplineSet
278 730 m 257
 51 50 l 257
 5 50 l 257
 5 0 l 257
 183 0 l 257
 183 50 l 257
 123 50 l 257
 184 236 l 257
 468 236 l 257
 529 50 l 257
 470 50 l 257
 470 0 l 257
 648 0 l 257
 648 50 l 257
 601 50 l 257
 375 730 l 257
 278 730 l 257
326 667 m 257
 449 295 l 257
 204 295 l 257
 326 667 l 257
EndSplineSet
Validated: 9
EndChar

StartChar: AE
Encoding: 198 198 2
Width: 943
VWidth: 0
Flags: W
PickledData: "(dp1
S'com.typemytype.robofont.layerData'
p2
(dp3
s."
LayerCount: 2
Fore
SplineSet
318 730 m 257
 35 0 l 257
 107 0 l 257
 387 730 l 257
 318 730 l 257
5 0 m 257
 183 0 l 257
 183 50 l 257
 5 50 l 257
 5 0 l 257
343 671 m 257
 807 671 l 257
 807 730 l 257
 343 730 l 257
 343 671 l 257
453 671 m 257
 453 0 l 257
 525 0 l 257
 525 671 l 257
 453 671 l 257
453 0 m 257
 853 0 l 257
 853 59 l 257
 453 59 l 257
 453 0 l 257
215 341 m 257
 813 341 l 257
 813 401 l 257
 215 401 l 257
 215 341 l 257
393 0 m 257
 493 0 l 257
 493 50 l 257
 393 50 l 257
 393 0 l 257
863 572 m 257
 863 730 l 257
 807 730 l 257
 807 572 l 257
 863 572 l 257
883 0 m 257
 883 158 l 257
 827 158 l 257
 827 0 l 257
 883 0 l 257
EndSplineSet
Validated: 5
EndChar

StartChar: B
Encoding: 66 66 14
Width: 629
VWidth: 0
Flags: W
PickledData: "(dp1
S'com.typemytype.robofont.layerData'
p2
(dp3
s."
LayerCount: 2
Fore
SplineSet
130 730 m 257
 130 0 l 257
 202 0 l 257
 202 730 l 257
 130 730 l 257
360 0 m 258
 553 0 579 93 579 195 c 256
 579 297 553 385 360 385 c 258
 130 385 l 257
 130 0 l 257
 360 0 l 258
202 59 m 257
 202 343 l 257
 360 343 l 258
 488 343 507 280 507 199 c 256
 507 120 488 59 360 59 c 258
 202 59 l 257
320 361 m 258
 513 361 539 446 539 543 c 256
 539 640 513 730 320 730 c 258
 130 730 l 257
 130 361 l 257
 320 361 l 258
202 404 m 257
 202 671 l 257
 320 671 l 258
 448 671 467 614 467 537 c 256
 467 462 448 404 320 404 c 258
 202 404 l 257
70 680 m 257
 170 680 l 257
 170 730 l 257
 70 730 l 257
 70 680 l 257
70 0 m 257
 170 0 l 257
 170 50 l 257
 70 50 l 257
 70 0 l 257
EndSplineSet
Validated: 5
EndChar

StartChar: C
Encoding: 67 67 15
Width: 619
VWidth: 0
Flags: W
PickledData: "(dp1
S'com.typemytype.robofont.layerData'
p2
(dp3
s."
LayerCount: 2
Fore
SplineSet
326 744 m 256
 96 744 60 602 60 365 c 256
 60 130 86 -14 336 -14 c 256
 512 -14 553 77 562 209 c 257
 503 212 l 257
 500 120 467 46 336 46 c 256
 141 46 132 168 132 365 c 256
 132 562 152 684 326 684 c 256
 461 684 501 616 508 514 c 257
 539 514 l 257
 539 644 488 744 326 744 c 256
508 730 m 257
 508 514 l 257
 562 514 l 257
 562 730 l 257
 508 730 l 257
EndSplineSet
Validated: 5
EndChar

StartChar: C.001
Encoding: 65537 -1 16
Width: 619
VWidth: 0
Flags: W
PickledData: "(dp1
S'com.typemytype.robofont.layerData'
p2
(dp3
s."
LayerCount: 2
Fore
SplineSet
560 549 m 257
 546 673 489 744 336 744 c 256
 106 744 60 602 60 365 c 256
 60 130 96 -14 336 -14 c 256
 502 -14 553 77 562 209 c 257
 503 212 l 257
 500 120 457 46 336 46 c 256
 151 46 132 168 132 365 c 256
 132 562 162 684 336 684 c 256
 451 684 491 631 501 545 c 257
 560 549 l 257
EndSplineSet
Validated: 9
EndChar

StartChar: D
Encoding: 68 68 22
Width: 688
VWidth: 0
Flags: W
PickledData: "(dp1
S'com.typemytype.robofont.layerData'
p2
(dp3
s."
LayerCount: 2
Fore
SplineSet
130 730 m 257
 130 0 l 257
 202 0 l 257
 202 730 l 257
 130 730 l 257
202 730 m 257
 202 671 l 257
 345 671 l 258
 535 671 556 553 556 365 c 256
 556 177 535 59 345 59 c 258
 202 59 l 257
 202 0 l 257
 345 0 l 258
 600 0 628 137 628 365 c 256
 628 591 600 730 345 730 c 258
 202 730 l 257
70 680 m 257
 170 680 l 257
 170 730 l 257
 70 730 l 257
 70 680 l 257
70 0 m 257
 170 0 l 257
 170 50 l 257
 70 50 l 257
 70 0 l 257
EndSplineSet
Validated: 5
EndChar

StartChar: Delta
Encoding: 8710 8710 25
Width: 572
VWidth: 0
Flags: W
PickledData: "(dp1
S'com.typemytype.robofont.layerData'
p2
(dp3
s."
LayerCount: 2
Fore
SplineSet
257 670 m 257
 501 0 l 257
 572 0 l 257
 324 670 l 257
 257 670 l 257
248 670 m 257
 0 0 l 257
 71 0 l 257
 315 670 l 257
 248 670 l 257
30 0 m 257
 542 0 l 257
 542 50 l 257
 30 50 l 257
 30 0 l 257
EndSplineSet
Validated: 5
EndChar

StartChar: E
Encoding: 69 69 26
Width: 620
VWidth: 0
Flags: W
PickledData: "(dp1
S'com.typemytype.robofont.layerData'
p2
(dp3
s."
LayerCount: 2
Fore
SplineSet
130 671 m 257
 510 671 l 257
 510 730 l 257
 130 730 l 257
 130 671 l 257
130 671 m 257
 130 0 l 257
 202 0 l 257
 202 671 l 257
 130 671 l 257
130 0 m 257
 530 0 l 257
 530 59 l 257
 130 59 l 257
 130 0 l 257
202 341 m 257
 490 341 l 257
 490 401 l 257
 202 401 l 257
 202 341 l 257
70 680 m 257
 170 680 l 257
 170 730 l 257
 70 730 l 257
 70 680 l 257
70 0 m 257
 170 0 l 257
 170 50 l 257
 70 50 l 257
 70 0 l 257
540 572 m 257
 540 730 l 257
 484 730 l 257
 484 572 l 257
 540 572 l 257
560 0 m 257
 560 158 l 257
 504 158 l 257
 504 0 l 257
 560 0 l 257
EndSplineSet
Validated: 5
EndChar

StartChar: Eng
Encoding: 330 330 35
Width: 770
VWidth: 0
Flags: W
PickledData: "(dp1
S'com.typemytype.robofont.layerData'
p2
(dp3
s."
LayerCount: 2
Fore
SplineSet
450 -172 m 257
 450 -227 l 257
 511 -227 l 258
 633 -227 650 -171 650 -78 c 258
 650 0 l 257
 580 0 l 257
 580 -78 l 258
 580 -138 570 -162 511 -167 c 258
 450 -172 l 257
130 730 m 257
 130 0 l 257
 202 0 l 257
 202 730 l 257
 130 730 l 257
578 730 m 257
 578 0 l 257
 650 0 l 257
 650 730 l 257
 578 730 l 257
130 730 m 257
 596 -44 l 257
 650 0 l 257
 210 730 l 257
 130 730 l 257
70 0 m 257
 262 0 l 257
 262 50 l 257
 70 50 l 257
 70 0 l 257
70 680 m 257
 170 680 l 257
 170 730 l 257
 70 730 l 257
 70 680 l 257
518 680 m 257
 710 680 l 257
 710 730 l 257
 518 730 l 257
 518 680 l 257
EndSplineSet
Validated: 5
EndChar

StartChar: Eth
Encoding: 208 208 37
Width: 688
VWidth: 0
Flags: W
PickledData: "(dp1
S'com.typemytype.robofont.layerData'
p2
(dp3
s."
LayerCount: 2
Fore
SplineSet
130 730 m 257
 130 0 l 257
 202 0 l 257
 202 730 l 257
 130 730 l 257
202 730 m 257
 202 668 l 257
 345 668 l 258
 535 668 556 553 556 365 c 256
 556 177 535 62 345 62 c 258
 202 62 l 257
 202 0 l 257
 345 0 l 258
 600 0 628 137 628 365 c 256
 628 591 600 730 345 730 c 258
 202 730 l 257
70 674 m 257
 170 674 l 257
 170 730 l 257
 70 730 l 257
 70 674 l 257
70 0 m 257
 170 0 l 257
 170 56 l 257
 70 56 l 257
 70 0 l 257
EndSplineSet
Refer: 374 45 N 1 0 0 1 0 47 2
Validated: 5
EndChar

StartChar: Euro
Encoding: 8364 8364 38
Width: 580
VWidth: 0
Flags: W
PickledData: "(dp1
S'com.typemytype.robofont.layerData'
p2
(dp3
s."
LayerCount: 2
Fore
SplineSet
343 45 m 256
 188 45 180 147 180 335 c 256
 180 522 188 625 343 625 c 256
 427 625 481 587 481 517 c 257
 543 521 l 257
 540 625 481 684 343 684 c 256
 123 684 110 545 110 335 c 256
 110 124 123 -14 343 -14 c 256
 482 -14 541 45 543 151 c 257
 482 155 l 257
 482 83 428 45 343 45 c 256
47 245 m 257
 405 245 l 257
 405 295 l 257
 47 295 l 257
 47 245 l 257
47 375 m 257
 405 375 l 257
 405 425 l 257
 47 425 l 257
 47 375 l 257
EndSplineSet
Validated: 5
EndChar

StartChar: F
Encoding: 70 70 39
Width: 560
VWidth: 0
Flags: W
PickledData: "(dp1
S'com.typemytype.robofont.layerData'
p2
(dp3
s."
LayerCount: 2
Fore
SplineSet
130 671 m 257
 490 671 l 257
 490 730 l 257
 130 730 l 257
 130 671 l 257
130 671 m 257
 130 0 l 257
 202 0 l 257
 202 671 l 257
 130 671 l 257
130 341 m 257
 470 341 l 257
 470 401 l 257
 130 401 l 257
 130 341 l 257
70 680 m 257
 170 680 l 257
 170 730 l 257
 70 730 l 257
 70 680 l 257
70 0 m 257
 282 0 l 257
 282 51 l 257
 70 51 l 257
 70 0 l 257
520 572 m 257
 520 730 l 257
 464 730 l 257
 464 572 l 257
 520 572 l 257
EndSplineSet
Validated: 5
EndChar

StartChar: G
Encoding: 71 71 40
Width: 672
VWidth: 0
Flags: W
PickledData: "(dp1
S'com.typemytype.robofont.layerData'
p2
(dp3
s."
LayerCount: 2
Fore
SplineSet
531 0 m 257
 572 0 l 257
 572 365 l 257
 508 365 l 257
 508 177 l 257
 531 0 l 257
327 -14 m 256
 507 -14 549 108 558 240 c 257
 508 212 l 257
 505 120 461 46 327 46 c 256
 141 46 132 158 132 365 c 256
 132 562 152 684 337 684 c 256
 471 684 506 606 513 514 c 257
 543 514 l 257
 543 644 489 744 337 744 c 256
 96 744 60 602 60 365 c 256
 60 130 76 -14 327 -14 c 256
513 730 m 257
 513 514 l 257
 567 514 l 257
 567 730 l 257
 513 730 l 257
394 315 m 257
 572 315 l 257
 572 365 l 257
 394 365 l 257
 394 315 l 257
EndSplineSet
Validated: 5
EndChar

StartChar: H
Encoding: 72 72 44
Width: 752
VWidth: 0
Flags: W
PickledData: "(dp1
S'com.typemytype.robofont.layerData'
p2
(dp3
s."
LayerCount: 2
Fore
SplineSet
130 730 m 257
 130 0 l 257
 202 0 l 257
 202 730 l 257
 130 730 l 257
183 335 m 257
 594 335 l 257
 594 395 l 257
 183 395 l 257
 183 335 l 257
550 730 m 257
 550 0 l 257
 622 0 l 257
 622 730 l 257
 550 730 l 257
70 0 m 257
 262 0 l 257
 262 50 l 257
 70 50 l 257
 70 0 l 257
70 680 m 257
 262 680 l 257
 262 730 l 257
 70 730 l 257
 70 680 l 257
490 0 m 257
 682 0 l 257
 682 50 l 257
 490 50 l 257
 490 0 l 257
490 680 m 257
 682 680 l 257
 682 730 l 257
 490 730 l 257
 490 680 l 257
EndSplineSet
Validated: 5
EndChar

StartChar: I
Encoding: 73 73 47
Width: 352
VWidth: 0
Flags: W
PickledData: "(dp1
S'com.typemytype.robofont.layerData'
p2
(dp3
s."
LayerCount: 2
Fore
SplineSet
140 730 m 257
 140 0 l 257
 212 0 l 257
 212 730 l 257
 140 730 l 257
70 680 m 257
 282 680 l 257
 282 730 l 257
 70 730 l 257
 70 680 l 257
70 0 m 257
 282 0 l 257
 282 50 l 257
 70 50 l 257
 70 0 l 257
EndSplineSet
Validated: 5
EndChar

StartChar: J
Encoding: 74 74 58
Width: 471
VWidth: 0
Flags: W
PickledData: "(dp1
S'com.typemytype.robofont.layerData'
p2
(dp3
s."
LayerCount: 2
Fore
SplineSet
366 730 m 257
 294 730 l 257
 294 183 l 258
 294 80 276 46 190 46 c 256
 104 46 82 83 82 183 c 257
 20 183 l 257
 20 81 25 -14 188 -14 c 256
 351 -14 366 73 366 183 c 258
 366 730 l 257
214 680 m 257
 426 680 l 257
 426 730 l 257
 214 730 l 257
 214 680 l 257
EndSplineSet
Validated: 5
EndChar

StartChar: K
Encoding: 75 75 60
Width: 629
VWidth: 0
Flags: W
PickledData: "(dp1
S'com.typemytype.robofont.layerData'
p2
(dp3
s."
LayerCount: 2
Fore
SplineSet
130 730 m 257
 130 0 l 257
 202 0 l 257
 202 730 l 257
 130 730 l 257
576 21 m 257
 336 378 l 257
 260 378 l 257
 498 21 l 257
 576 21 l 257
161 340 m 257
 326 340 l 257
 326 399 l 257
 161 399 l 257
 161 340 l 257
486 705 m 257
 260 353 l 257
 333 353 l 257
 562 705 l 257
 486 705 l 257
70 0 m 257
 262 0 l 257
 262 50 l 257
 70 50 l 257
 70 0 l 257
70 680 m 257
 262 680 l 257
 262 730 l 257
 70 730 l 257
 70 680 l 257
427 0 m 257
 609 0 l 257
 609 50 l 257
 427 50 l 257
 427 0 l 257
417 680 m 257
 599 680 l 257
 599 730 l 257
 417 730 l 257
 417 680 l 257
EndSplineSet
Validated: 5
EndChar

StartChar: L
Encoding: 76 76 61
Width: 507
VWidth: 0
Flags: W
PickledData: "(dp1
S'com.typemytype.robofont.layerData'
p2
(dp3
s."
LayerCount: 2
Fore
SplineSet
130 730 m 257
 130 0 l 257
 202 0 l 257
 202 730 l 257
 130 730 l 257
130 0 m 257
 467 0 l 257
 467 59 l 257
 130 59 l 257
 130 0 l 257
70 680 m 257
 282 680 l 257
 282 730 l 257
 70 730 l 257
 70 680 l 257
497 0 m 257
 497 158 l 257
 441 158 l 257
 441 0 l 257
 497 0 l 257
70 0 m 257
 130 0 l 257
 130 50 l 257
 70 50 l 257
 70 0 l 257
EndSplineSet
Validated: 5
EndChar

StartChar: M
Encoding: 77 77 66
Width: 896
VWidth: 0
Flags: W
PickledData: "(dp1
S'com.typemytype.robofont.layerData'
p2
(dp3
s."
LayerCount: 2
Fore
SplineSet
130 730 m 257
 130 0 l 257
 202 0 l 257
 202 730 l 257
 130 730 l 257
667 730 m 257
 408 56 l 257
 476 56 l 257
 738 730 l 257
 667 730 l 257
694 730 m 257
 694 0 l 257
 766 0 l 257
 766 730 l 257
 694 730 l 257
472 56 m 257
 229 730 l 257
 158 730 l 257
 404 56 l 257
 472 56 l 257
70 0 m 257
 262 0 l 257
 262 50 l 257
 70 50 l 257
 70 0 l 257
70 680 m 257
 170 680 l 257
 170 730 l 257
 70 730 l 257
 70 680 l 257
634 0 m 257
 826 0 l 257
 826 50 l 257
 634 50 l 257
 634 0 l 257
726 680 m 257
 826 680 l 257
 826 730 l 257
 726 730 l 257
 726 680 l 257
EndSplineSet
Validated: 5
EndChar

StartChar: N
Encoding: 78 78 67
Width: 770
VWidth: 0
Flags: W
PickledData: "(dp1
S'com.typemytype.robofont.layerData'
p2
(dp3
s."
LayerCount: 2
Fore
SplineSet
130 730 m 257
 130 0 l 257
 202 0 l 257
 202 730 l 257
 130 730 l 257
578 730 m 257
 578 0 l 257
 650 0 l 257
 650 730 l 257
 578 730 l 257
130 730 m 257
 570 0 l 257
 650 0 l 257
 210 730 l 257
 130 730 l 257
70 0 m 257
 262 0 l 257
 262 50 l 257
 70 50 l 257
 70 0 l 257
70 680 m 257
 170 680 l 257
 170 730 l 257
 70 730 l 257
 70 680 l 257
518 680 m 257
 710 680 l 257
 710 730 l 257
 518 730 l 257
 518 680 l 257
EndSplineSet
Validated: 5
EndChar

StartChar: O
Encoding: 79 79 72
Width: 685
VWidth: 0
Flags: W
PickledData: "(dp1
S'com.typemytype.robofont.layerData'
p2
(dp3
s."
LayerCount: 2
Fore
SplineSet
342 -14 m 256
 596 -14 625 128 625 365 c 256
 625 600 596 744 342 744 c 256
 87 744 60 600 60 365 c 256
 60 128 87 -14 342 -14 c 256
342 46 m 256
 152 46 132 168 132 365 c 256
 132 562 152 684 342 684 c 256
 531 684 553 562 553 365 c 256
 553 168 531 46 342 46 c 256
EndSplineSet
Validated: 9
EndChar

StartChar: OE
Encoding: 338 338 73
Width: 1013
VWidth: 0
Flags: W
PickledData: "(dp1
S'com.typemytype.robofont.layerData'
p2
(dp3
s."
LayerCount: 2
Fore
SplineSet
337 0 m 256
 587 0 615 137 615 365 c 256
 615 591 587 730 337 730 c 256
 87 730 60 591 60 365 c 256
 60 137 87 0 337 0 c 256
337 59 m 256
 152 59 132 176 132 365 c 256
 132 554 152 671 337 671 c 256
 522 671 543 554 543 365 c 256
 543 176 522 59 337 59 c 256
337 671 m 257
 903 671 l 257
 903 730 l 257
 337 730 l 257
 337 671 l 257
337 0 m 257
 923 0 l 257
 923 59 l 257
 337 59 l 257
 337 0 l 257
605 341 m 257
 883 341 l 257
 883 401 l 257
 605 401 l 257
 605 341 l 257
933 572 m 257
 933 730 l 257
 877 730 l 257
 877 572 l 257
 933 572 l 257
953 0 m 257
 953 158 l 257
 897 158 l 257
 897 0 l 257
 953 0 l 257
EndSplineSet
Validated: 5
EndChar

StartChar: Omega
Encoding: 8486 8486 81
Width: 746
VWidth: 0
Flags: W
PickledData: "(dp1
S'com.typemytype.robofont.layerData'
p2
(dp3
s."
LayerCount: 2
Fore
SplineSet
218 161 m 257
 218 0 l 257
 279 0 l 257
 279 161 l 257
 218 161 l 257
97 0 m 257
 218 0 l 257
 218 50 l 257
 97 50 l 257
 97 0 l 257
373 625 m 256
 550 625 604 533 604 386 c 256
 604 282 572 207 467 182 c 257
 467 126 l 257
 617 159 676 248 676 392 c 256
 676 573 594 684 373 684 c 256
 152 684 70 573 70 392 c 256
 70 248 129 159 279 126 c 257
 279 182 l 257
 174 207 142 282 142 386 c 256
 142 533 196 625 373 625 c 256
467 161 m 257
 467 0 l 257
 527 0 l 257
 527 161 l 257
 467 161 l 257
649 50 m 257
 527 50 l 257
 527 0 l 257
 649 0 l 257
 649 50 l 257
EndSplineSet
Validated: 5
EndChar

StartChar: P
Encoding: 80 80 85
Width: 599
VWidth: 0
Flags: W
PickledData: "(dp1
S'com.typemytype.robofont.layerData'
p2
(dp3
s."
LayerCount: 2
Fore
SplineSet
130 671 m 257
 130 0 l 257
 202 0 l 257
 202 671 l 257
 130 671 l 257
330 275 m 258
 528 275 549 385 549 502 c 256
 549 620 528 730 330 730 c 258
 130 730 l 257
 130 275 l 257
 330 275 l 258
202 334 m 257
 202 671 l 257
 330 671 l 258
 463 671 477 597 477 502 c 256
 477 408 463 334 330 334 c 258
 202 334 l 257
70 0 m 257
 282 0 l 257
 282 50 l 257
 70 50 l 257
 70 0 l 257
70 680 m 257
 130 680 l 257
 130 730 l 257
 70 730 l 257
 70 680 l 257
EndSplineSet
Validated: 5
EndChar

StartChar: Q
Encoding: 81 81 86
Width: 675
VWidth: 0
Flags: W
PickledData: "(dp1
S'com.typemytype.robofont.layerData'
p2
(dp3
s."
LayerCount: 2
Fore
SplineSet
299 13 m 257
 402 -192 l 257
 477 -192 l 257
 374 13 l 257
 299 13 l 257
337 -14 m 256
 587 -14 615 128 615 365 c 256
 615 600 587 744 337 744 c 256
 87 744 60 600 60 365 c 256
 60 128 87 -14 337 -14 c 256
337 46 m 256
 152 46 132 168 132 365 c 256
 132 562 152 684 337 684 c 256
 522 684 543 562 543 365 c 256
 543 168 522 46 337 46 c 256
EndSplineSet
Validated: 5
EndChar

StartChar: R
Encoding: 82 82 87
Width: 659
VWidth: 0
Flags: W
PickledData: "(dp1
S'com.typemytype.robofont.layerData'
p2
(dp3
s."
LayerCount: 2
Fore
SplineSet
130 671 m 257
 130 0 l 257
 202 0 l 257
 202 671 l 257
 130 671 l 257
340 305 m 258
 538 305 559 408 559 517 c 256
 559 627 538 730 340 730 c 258
 130 730 l 257
 130 305 l 257
 340 305 l 258
202 364 m 257
 202 671 l 257
 340 671 l 258
 473 671 487 602 487 517 c 256
 487 433 473 364 340 364 c 258
 202 364 l 257
281 305 m 257
 347 305 386 295 411 237 c 258
 512 0 l 257
 589 0 l 257
 481 249 l 258
 444 333 398 340 281 340 c 257
 281 305 l 257
70 0 m 257
 262 0 l 257
 262 50 l 257
 70 50 l 257
 70 0 l 257
70 680 m 257
 130 680 l 257
 130 730 l 257
 70 730 l 257
 70 680 l 257
512 0 m 257
 629 0 l 257
 629 50 l 257
 512 50 l 257
 512 0 l 257
EndSplineSet
Validated: 5
EndChar

StartChar: R.001
Encoding: 65539 -1 88
Width: 659
VWidth: 0
Flags: W
PickledData: "(dp1
S'com.typemytype.robofont.layerData'
p2
(dp3
s."
LayerCount: 2
Fore
SplineSet
130 671 m 257
 130 0 l 257
 202 0 l 257
 202 671 l 257
 130 671 l 257
340 305 m 258
 538 305 559 408 559 517 c 256
 559 627 538 730 340 730 c 258
 130 730 l 257
 130 305 l 257
 340 305 l 258
202 364 m 257
 202 671 l 257
 340 671 l 258
 473 671 487 602 487 517 c 256
 487 433 473 364 340 364 c 258
 202 364 l 257
281 305 m 257
 347 305 386 295 411 237 c 258
 512 0 l 257
 589 0 l 257
 481 249 l 258
 444 333 398 340 281 340 c 257
 281 305 l 257
EndSplineSet
Validated: 5
EndChar

StartChar: S
Encoding: 83 83 91
Width: 576
VWidth: 0
Flags: W
PickledData: "(dp1
S'com.typemytype.robofont.layerData'
p2
(dp3
s."
LayerCount: 2
Fore
SplineSet
491 552 m 257
 474 680 401 744 268 744 c 256
 102 744 54 661 54 533 c 256
 54 406 101 365 243 338 c 258
 333 321 l 258
 426 303 459 277 459 182 c 256
 459 96 420 46 292 46 c 256
 158 46 104 124 101 216 c 257
 67 216 l 257
 67 96 140 -14 302 -14 c 256
 478 -14 531 64 531 192 c 256
 531 319 479 362 335 389 c 258
 246 406 l 258
 145 425 126 454 126 534 c 256
 126 626 153 684 283 684 c 256
 389 684 446 636 459 552 c 257
 491 552 l 257
513 552 m 257
 513 730 l 257
 459 730 l 257
 459 552 l 257
 513 552 l 257
101 0 m 257
 101 216 l 257
 47 216 l 257
 47 0 l 257
 101 0 l 257
EndSplineSet
Validated: 5
EndChar

StartChar: T
Encoding: 84 84 96
Width: 538
VWidth: 0
Flags: W
PickledData: "(dp1
S'com.typemytype.robofont.layerData'
p2
(dp3
s."
LayerCount: 2
Fore
SplineSet
10 671 m 257
 528 671 l 257
 528 730 l 257
 10 730 l 257
 10 671 l 257
233 700 m 257
 233 0 l 257
 305 0 l 257
 305 700 l 257
 233 700 l 257
153 0 m 257
 385 0 l 257
 385 50 l 257
 153 50 l 257
 153 0 l 257
66 572 m 257
 66 730 l 257
 10 730 l 257
 10 572 l 257
 66 572 l 257
528 572 m 257
 528 730 l 257
 472 730 l 257
 472 572 l 257
 528 572 l 257
EndSplineSet
Validated: 5
EndChar

StartChar: Thorn
Encoding: 222 222 99
Width: 599
VWidth: 0
Flags: W
PickledData: "(dp1
S'com.typemytype.robofont.layerData'
p2
(dp3
s."
LayerCount: 2
Fore
SplineSet
130 730 m 257
 130 0 l 257
 202 0 l 257
 202 730 l 257
 130 730 l 257
330 137 m 258
 528 137 549 247 549 364 c 256
 549 482 528 592 330 592 c 258
 130 592 l 257
 130 137 l 257
 330 137 l 258
202 201 m 257
 202 528 l 257
 330 528 l 258
 463 528 477 449 477 364 c 256
 477 280 463 201 330 201 c 258
 202 201 l 257
70 0 m 257
 272 0 l 257
 272 56 l 257
 70 56 l 257
 70 0 l 257
70 674 m 257
 272 674 l 257
 272 730 l 257
 70 730 l 257
 70 674 l 257
EndSplineSet
Validated: 5
EndChar

StartChar: U
Encoding: 85 85 100
Width: 750
VWidth: 0
Flags: W
PickledData: "(dp1
S'com.typemytype.robofont.layerData'
p2
(dp3
s."
LayerCount: 2
Fore
SplineSet
563 730 m 257
 563 241 l 258
 563 68 472 47 374 47 c 256
 278 47 187 68 187 241 c 258
 187 730 l 257
 115 730 l 257
 115 241 l 258
 115 10 241 -14 374 -14 c 256
 509 -14 635 10 635 241 c 258
 635 730 l 257
 563 730 l 257
55 680 m 257
 247 680 l 257
 247 730 l 257
 55 730 l 257
 55 680 l 257
503 680 m 257
 695 680 l 257
 695 730 l 257
 503 730 l 257
 503 680 l 257
EndSplineSet
Validated: 5
EndChar

StartChar: V
Encoding: 86 86 111
Width: 647
VWidth: 0
Flags: W
PickledData: "(dp1
S'com.typemytype.robofont.layerData'
p2
(dp3
s."
LayerCount: 2
Fore
SplineSet
344 0 m 257
 124 730 l 257
 50 730 l 257
 275 0 l 257
 344 0 l 257
372 0 m 257
 597 730 l 257
 523 730 l 257
 303 0 l 257
 372 0 l 257
445 680 m 257
 627 680 l 257
 627 730 l 257
 445 730 l 257
 445 680 l 257
20 680 m 257
 202 680 l 257
 202 730 l 257
 20 730 l 257
 20 680 l 257
EndSplineSet
Validated: 5
EndChar

StartChar: W
Encoding: 87 87 112
Width: 889
VWidth: 0
Flags: W
PickledData: "(dp1
S'com.typemytype.robofont.layerData'
p2
(dp3
s."
LayerCount: 2
Fore
SplineSet
279 0 m 257
 119 730 l 257
 45 730 l 257
 210 0 l 257
 279 0 l 257
315 0 m 257
 475 730 l 257
 409 730 l 257
 250 0 l 257
 315 0 l 257
679 0 m 257
 844 730 l 257
 770 730 l 257
 610 0 l 257
 679 0 l 257
639 0 m 257
 480 730 l 257
 414 730 l 257
 574 0 l 257
 639 0 l 257
15 680 m 257
 197 680 l 257
 197 730 l 257
 15 730 l 257
 15 680 l 257
692 680 m 257
 874 680 l 257
 874 730 l 257
 692 730 l 257
 692 680 l 257
EndSplineSet
Validated: 5
EndChar

StartChar: X
Encoding: 88 88 117
Width: 631
VWidth: 0
Flags: W
PickledData: "(dp1
S'com.typemytype.robofont.layerData'
p2
(dp3
s."
LayerCount: 2
Fore
SplineSet
481 702 m 257
 308 417 l 257
 350 362 l 257
 562 702 l 257
 481 702 l 257
69 701 m 257
 500 25 l 257
 582 25 l 257
 151 701 l 257
 69 701 l 257
131 25 m 257
 325 346 l 257
 284 401 l 257
 50 25 l 257
 131 25 l 257
434 0 m 257
 616 0 l 257
 616 50 l 257
 434 50 l 257
 434 0 l 257
15 0 m 257
 197 0 l 257
 197 50 l 257
 15 50 l 257
 15 0 l 257
32 680 m 257
 214 680 l 257
 214 730 l 257
 32 730 l 257
 32 680 l 257
417 680 m 257
 599 680 l 257
 599 730 l 257
 417 730 l 257
 417 680 l 257
EndSplineSet
Validated: 5
EndChar

StartChar: Y
Encoding: 89 89 118
Width: 582
VWidth: 0
Flags: W
PickledData: "(dp1
S'com.typemytype.robofont.layerData'
p2
(dp3
s."
LayerCount: 2
Fore
SplineSet
255 277 m 257
 255 0 l 257
 327 0 l 257
 327 277 l 257
 255 277 l 257
325 253 m 257
 104 730 l 257
 30 730 l 257
 255 255 l 257
 325 253 l 257
327 255 m 257
 552 730 l 257
 478 730 l 257
 257 253 l 257
 327 255 l 257
10 680 m 257
 182 680 l 257
 182 730 l 257
 10 730 l 257
 10 680 l 257
400 680 m 257
 572 680 l 257
 572 730 l 257
 400 730 l 257
 400 680 l 257
185 0 m 257
 397 0 l 257
 397 50 l 257
 185 50 l 257
 185 0 l 257
EndSplineSet
Validated: 5
EndChar

StartChar: Z
Encoding: 90 90 123
Width: 545
VWidth: 0
Flags: W
PickledData: "(dp1
S'com.typemytype.robofont.layerData'
p2
(dp3
s."
LayerCount: 2
Fore
SplineSet
49 671 m 257
 417 671 l 257
 30 46 l 257
 30 0 l 257
 515 0 l 257
 515 59 l 257
 118 59 l 257
 505 684 l 257
 505 730 l 257
 50 730 l 257
 49 671 l 257
106 572 m 257
 106 730 l 257
 50 730 l 257
 50 572 l 257
 106 572 l 257
515 0 m 257
 515 158 l 257
 459 158 l 257
 459 0 l 257
 515 0 l 257
EndSplineSet
Validated: 5
EndChar

StartChar: a
Encoding: 97 97 127
Width: 612
VWidth: 0
Flags: W
PickledData: "(dp1
S'com.typemytype.robofont.layerData'
p2
(dp3
s."
LayerCount: 2
Fore
SplineSet
233 -14 m 256
 318 -14 386 28 427 65 c 257
 445 0 l 257
 492 0 l 257
 492 426 l 258
 492 550 405 586 294 586 c 256
 130 586 97 514 89 410 c 257
 148 407 l 257
 153 480 172 527 294 527 c 256
 365 527 422 502 422 426 c 258
 422 326 l 257
 237 314 l 258
 97 305 64 255 64 145 c 256
 64 46 102 -14 233 -14 c 256
243 43 m 256
 157 43 132 80 132 142 c 256
 132 235 158 256 241 261 c 258
 422 272 l 257
 422 121 l 257
 366 68 305 43 243 43 c 256
492 0 m 257
 552 0 l 257
 552 50 l 257
 492 50 l 257
 492 0 l 257
EndSplineSet
Validated: 5
EndChar

StartChar: aasigndeva
Encoding: 2366 2366 130
Width: 300
VWidth: 0
Flags: W
PickledData: "(dp1
S'com.typemytype.robofont.layerData'
p2
(dp3
s."
LayerCount: 2
Fore
SplineSet
115 680 m 257
 115 0 l 257
 185 0 l 257
 185 680 l 257
 310 680 l 257
 310 730 l 257
 -10 730 l 257
 -10 680 l 257
 115 680 l 257
EndSplineSet
Validated: 9
EndChar

StartChar: abbreviationsigndeva
Encoding: 2416 2416 131
Width: 532
VWidth: 0
Flags: W
PickledData: "(dp1
S'com.typemytype.robofont.layerData'
p2
(dp3
s."
LayerCount: 2
Fore
SplineSet
268 372 m 256
 298 372 323 383 344 404 c 256
 365 427 376 453 376 484 c 256
 376 547 327 596 268 596 c 256
 209 596 160 547 160 484 c 256
 160 422 209 372 268 372 c 256
98 484 m 256
 98 530 114 569 146 602 c 256
 180 634 220 650 267 650 c 256
 313 650 354 634 386 602 c 256
 419 569 436 530 436 484 c 256
 436 438 419 398 386 366 c 256
 354 334 313 317 267 317 c 256
 220 317 180 334 146 366 c 256
 114 398 98 438 98 484 c 256
EndSplineSet
Validated: 1
EndChar

StartChar: acombiningletterdeva
Encoding: 43242 43242 135
Width: 388
VWidth: 0
Flags: W
PickledData: "(dp1
S'com.typemytype.robofont.layerData'
p2
(dp3
s."
AnchorPoint: "Anchor-1" -150 730 mark 0
AnchorPoint: "DVAnchor3" -150 730 mark 0
LayerCount: 2
Fore
SplineSet
-262 967 m 257
 -235 967 l 258
 -183 967 -134 993 -134 1045 c 256
 -134 1098 -161 1135 -235 1135 c 256
 -309 1135 -334 1103 -334 1041 c 257
 -291 1041 l 257
 -291 1076 -277 1095 -239 1095 c 256
 -197 1095 -184 1076 -184 1046 c 256
 -184 1016 -199 995 -239 995 c 258
 -262 995 l 257
 -262 967 l 257
-12 800 m 257
 -12 1096 l 257
 40 1096 l 257
 40 1129 l 257
 -113 1129 l 257
 -113 1096 l 257
 -61 1096 l 257
 -61 800 l 257
 -12 800 l 257
-215 958 m 257
 -167 958 -116 907 -61 960 c 257
 -61 984 l 257
 -116 939 -167 986 -215 986 c 257
 -215 958 l 257
-344 903 m 257
 -330 848 -289 818 -228 818 c 256
 -156 818 -125 854 -125 906 c 256
 -125 963 -166 988 -224 988 c 258
 -262 988 l 257
 -262 960 l 257
 -233 960 l 258
 -199 960 -174 942 -174 907 c 256
 -174 876 -189 858 -230 858 c 256
 -264 858 -289 875 -299 915 c 257
 -344 903 l 257
EndSplineSet
Validated: 37
EndChar

StartChar: acute
Encoding: 180 180 136
Width: 314
VWidth: 0
Flags: W
PickledData: "(dp1
S'com.typemytype.robofont.layerData'
p2
(dp3
s."
LayerCount: 2
Fore
SplineSet
92 624 m 257
 264 774 l 257
 211 827 l 257
 50 666 l 257
 92 624 l 257
EndSplineSet
Validated: 9
EndChar

StartChar: acute.case
Encoding: 65540 -1 137
Width: 314
VWidth: 0
Flags: W
PickledData: "(dp1
S'com.typemytype.robofont.layerData'
p2
(dp3
s."
LayerCount: 2
Fore
SplineSet
92 782 m 257
 264 932 l 257
 211 985 l 257
 50 824 l 257
 92 782 l 257
EndSplineSet
Validated: 9
EndChar

StartChar: acutedeva
Encoding: 2388 2388 138
Width: 0
VWidth: 0
Flags: W
PickledData: "(dp1
S'com.typemytype.robofont.layerData'
p2
(dp3
s."
AnchorPoint: "Anchor-1" -157 729 mark 0
AnchorPoint: "DVAnchor3" -157 729 mark 0
LayerCount: 2
Fore
SplineSet
-195 782 m 257
 -23 932 l 257
 -76 985 l 257
 -237 824 l 257
 -195 782 l 257
EndSplineSet
Validated: 9
EndChar

StartChar: adeva
Encoding: 2309 2309 139
Width: 836
VWidth: 0
Flags: W
PickledData: "(dp1
S'com.typemytype.robofont.layerData'
p2
(dp3
s."
AnchorPoint: "Anchor-1" 686 730 basechar 0
AnchorPoint: "Anchor-1" 686 730 basechar 0
LayerCount: 2
Fore
SplineSet
261 46 m 256
 403 46 477 111 477 227 c 256
 477 351 386 409 281 409 c 258
 193 409 l 257
 193 365 l 257
 269 365 l 258
 371 365 407 304 407 226 c 256
 407 150 362 105 261 104 c 256
 160 105 106 149 97 256 c 257
 35 231 l 257
 52 104 125 46 261 46 c 256
193 375 m 257
 270 375 l 258
 375 375 468 443 468 550 c 256
 468 668 413 744 251 744 c 256
 104 744 49 668 49 550 c 257
 111 550 l 257
 111 631 147 685 251 685 c 256
 366 685 398 632 398 551 c 256
 398 477 352 419 270 419 c 258
 193 419 l 257
 193 375 l 257
721 0 m 257
 721 680 l 257
 846 680 l 257
 846 730 l 257
 526 730 l 257
 526 680 l 257
 651 680 l 257
 651 0 l 257
 721 0 l 257
293 365 m 257
 425 365 525 247 651 360 c 257
 651 399 l 257
 525 296 425 409 293 409 c 257
 293 365 l 257
EndSplineSet
Validated: 37
EndChar

StartChar: ae
Encoding: 230 230 141
Width: 910
VWidth: 0
Flags: W
PickledData: "(dp1
S'com.typemytype.robofont.layerData'
p2
(dp3
s."
LayerCount: 2
Fore
SplineSet
233 -14 m 256
 318 -14 398 28 448 83 c 257
 440 426 l 257
 479 492 l 257
 454 569 370 586 294 586 c 256
 130 586 97 514 89 410 c 257
 148 407 l 257
 153 480 172 527 294 527 c 256
 365 527 422 502 422 426 c 258
 422 326 l 257
 237 314 l 258
 97 305 64 255 64 145 c 256
 64 46 102 -14 233 -14 c 256
243 43 m 256
 157 43 132 80 132 142 c 256
 132 235 158 256 241 261 c 258
 422 272 l 257
 422 121 l 257
 366 68 305 43 243 43 c 256
439 270 m 257
 870 270 l 257
 870 286 l 257
 864 325 l 257
 439 325 l 257
 439 270 l 257
641 -14 m 256
 818 -14 851 76 861 177 c 257
 803 180 l 257
 796 103 770 45 639 45 c 256
 496 45 472 122 472 286 c 256
 472 405 479 527 636 527 c 256
 793 527 800 415 800 286 c 257
 870 286 l 257
 870 441 847 586 637 586 c 256
 426 586 402 441 402 286 c 256
 402 92 444 -14 641 -14 c 256
EndSplineSet
Validated: 5
EndChar

StartChar: aisign_ra_virama.alt1
Encoding: 65541 -1 145
Width: 0
VWidth: 0
Flags: W
PickledData: "(dp1
S'com.typemytype.robofont.layerData'
p2
(dp3
s."
AnchorPoint: "Anchor-1" -150 730 mark 0
AnchorPoint: "DVAnchor3" -150 730 mark 0
LayerCount: 2
Fore
SplineSet
-53 1087 m 256
 -168 1087 -241 1019 -226 887 c 257
 -152 730 l 257
 -119 730 l 257
 -158 778 -181 825 -181 898 c 256
 -181 974 -149 1030 -58 1030 c 256
 -24 1030 15 1025 55 1013 c 257
 70 1068 l 257
 35 1080 -6 1087 -53 1087 c 256
-119 730 m 257
 -298 1066 l 257
 -356 1035 l 257
 -171 730 l 257
 -119 730 l 257
-135 730 m 257
 -163 760 l 257
 -416 933 l 257
 -453 880 l 257
 -199 730 l 257
 -135 730 l 257
EndSplineSet
Validated: 37
Ligature2: "'abvs' Above Base Substitutions lookup 25 subtable" aisigndeva radeva_viramadeva
EndChar

StartChar: aisign_ra_virama_anusvara
Encoding: 65542 -1 146
Width: 0
VWidth: 0
Flags: W
PickledData: "(dp1
S'com.typemytype.robofont.layerData'
p2
(dp3
s."
AnchorPoint: "Anchor-1" -150 730 mark 0
AnchorPoint: "DVAnchor3" -150 730 mark 0
LayerCount: 2
Fore
SplineSet
-19 823 m 256
 18 823 34 838 34 874 c 256
 34 911 19 926 -19 926 c 256
 -55 926 -70 911 -70 874 c 256
 -70 838 -55 823 -19 823 c 256
-53 1087 m 256
 -168 1087 -241 1019 -226 887 c 257
 -152 730 l 257
 -119 730 l 257
 -158 778 -181 825 -181 898 c 256
 -181 974 -149 1030 -58 1030 c 256
 -24 1030 15 1025 55 1013 c 257
 70 1068 l 257
 35 1080 -6 1087 -53 1087 c 256
-119 730 m 257
 -298 1066 l 257
 -356 1035 l 257
 -171 730 l 257
 -119 730 l 257
-135 730 m 257
 -163 760 l 257
 -416 933 l 257
 -453 880 l 257
 -199 730 l 257
 -135 730 l 257
EndSplineSet
Validated: 37
Ligature2: "'abvs' Above Base Substitutions lookup 25 subtable" aisigndeva radeva_viramadeva anusvaradeva
EndChar

StartChar: aisigndeva
Encoding: 2376 2376 147
Width: 0
VWidth: 0
Flags: W
PickledData: "(dp1
S'com.typemytype.robofont.layerData'
p2
(dp3
s."
AnchorPoint: "Anchor-1" -134 730 mark 0
AnchorPoint: "DVAnchor3" -134 730 mark 0
LayerCount: 2
Fore
SplineSet
-105 730 m 257
 -284 1066 l 257
 -342 1035 l 257
 -157 730 l 257
 -105 730 l 257
-121 730 m 257
 -149 760 l 257
 -402 933 l 257
 -439 880 l 257
 -185 730 l 257
 -121 730 l 257
EndSplineSet
Validated: 5
EndChar

StartChar: aisigndeva_anusvaradeva
Encoding: 65543 -1 148
Width: 0
VWidth: 0
Flags: W
PickledData: "(dp1
S'com.typemytype.robofont.layerData'
p2
(dp3
s."
AnchorPoint: "Anchor-1" -134 730 mark 0
AnchorPoint: "DVAnchor3" -134 730 mark 0
LayerCount: 2
Fore
SplineSet
-90 922 m 256
 -53 922 -37 937 -37 973 c 256
 -37 1010 -52 1025 -90 1025 c 256
 -126 1025 -141 1010 -141 973 c 256
 -141 937 -126 922 -90 922 c 256
-105 730 m 257
 -284 1066 l 257
 -342 1035 l 257
 -157 730 l 257
 -105 730 l 257
-121 730 m 257
 -149 760 l 257
 -402 933 l 257
 -439 880 l 257
 -185 730 l 257
 -121 730 l 257
EndSplineSet
Validated: 5
Ligature2: "'abvs' Above Base Substitutions lookup 25 subtable" aisigndeva anusvaradeva
EndChar

StartChar: ampersand
Encoding: 38 38 150
Width: 609
VWidth: 0
Flags: W
PickledData: "(dp1
S'com.typemytype.robofont.layerData'
p2
(dp3
s."
LayerCount: 2
Fore
SplineSet
276 655 m 256
 173 655 144 602 144 521 c 256
 144 447 190 385 272 385 c 258
 609 385 l 257
 609 341 l 257
 272 341 l 258
 161 341 74 413 74 525 c 256
 74 638 125 714 275 714 c 256
 412 714 463 638 463 520 c 257
 401 520 l 257
 401 601 369 655 276 655 c 256
55 182 m 256
 55 316 146 379 251 379 c 258
 609 379 l 257
 609 331 l 257
 263 331 l 258
 161 331 125 264 125 178 c 256
 125 94 168 45 281 45 c 256
 396 45 434 98 434 179 c 258
 434 331 l 257
 496 331 l 257
 496 179 l 258
 496 58 443 -14 281 -14 c 256
 124 -14 55 56 55 182 c 256
EndSplineSet
Validated: 5
EndChar

StartChar: anudattadeva
Encoding: 2386 2386 151
Width: 0
VWidth: 0
Flags: W
PickledData: "(dp1
S'com.typemytype.robofont.layerData'
p2
(dp3
s."
LayerCount: 2
Fore
SplineSet
-622 -147 m 257
 -622 -97 l 257
 -108 -97 l 257
 -108 -147 l 257
 -622 -147 l 257
EndSplineSet
Validated: 1
EndChar

StartChar: anusvaradeva
Encoding: 2306 2306 152
Width: 0
VWidth: 0
Flags: W
PickledData: "(dp1
S'com.typemytype.robofont.layerData'
p2
(dp3
s."
AnchorPoint: "Anchor-1" -140 730 mark 0
AnchorPoint: "DVAnchor3" -140 730 mark 0
LayerCount: 2
Fore
SplineSet
-140 912 m 256
 -103 912 -87 927 -87 963 c 256
 -87 1000 -102 1015 -140 1015 c 256
 -176 1015 -191 1000 -191 963 c 256
 -191 927 -176 912 -140 912 c 256
EndSplineSet
Validated: 9
EndChar

StartChar: apostrophe
Encoding: 700 700 154
Width: 307
VWidth: 0
Flags: W
PickledData: "(dp1
S'com.typemytype.robofont.layerData'
p2
(dp3
s."
LayerCount: 2
Fore
SplineSet
121 779 m 256
 121 754 133 734 133 715 c 256
 133 672 115 655 94 636 c 257
 117 609 l 257
 142 630 217 684 217 779 c 256
 217 807 214 838 168 838 c 256
 124 838 121 807 121 779 c 256
EndSplineSet
Validated: 9
EndChar

StartChar: apple
Encoding: 63743 63743 155
Width: 923
VWidth: 0
Flags: W
PickledData: "(dp1
S'com.typemytype.robofont.layerData'
p2
(dp3
s."
LayerCount: 2
Fore
SplineSet
556 -89 m 256
 559 -88 563 -88 566 -88 c 256
 574 -88 581 -89 589 -89 c 256
 615 -89 617 -70 634 -60 c 256
 649 -52 670 -51 683 -42 c 256
 696 -33 701 -11 713 1 c 256
 723 11 739 12 748 23 c 256
 759 36 758 60 766 74 c 256
 776 91 800 92 800 120 c 256
 800 130 798 141 798 152 c 256
 798 177 820 180 823 200 c 257
 823 214 812 229 812 244 c 256
 812 257 823 269 823 283 c 256
 823 305 799 319 799 344 c 256
 799 352 800 360 800 369 c 256
 800 397 775 400 764 418 c 256
 758 428 763 450 757 460 c 256
 746 479 720 483 706 496 c 256
 694 508 696 526 683 535 c 256
 669 545 653 542 638 550 c 256
 619 560 617 586 590 586 c 256
 580 586 570 583 562 583 c 256
 538 583 531 608 505 608 c 256
 491 608 474 596 460 596 c 256
 447 596 429 608 416 608 c 256
 394 608 386 585 361 585 c 256
 352 585 343 587 335 587 c 256
 310 586 303 558 286 549 c 256
 270 541 248 543 235 532 c 256
 224 522 220 501 210 491 c 256
 199 480 178 480 170 467 c 256
 163 456 166 435 159 424 c 256
 149 407 124 401 124 376 c 256
 124 368 125 359 125 351 c 256
 125 332 100 311 100 290 c 256
 100 275 112 265 112 248 c 256
 112 233 100 218 100 204 c 256
 100 183 125 168 125 149 c 256
 125 141 122 133 122 124 c 256
 122 98 148 87 156 75 c 256
 167 57 160 46 171 28 c 256
 181 12 197 15 210 4 c 256
 223 -7 222 -31 240 -42 c 256
 256 -52 263 -43 286 -55 c 256
 299 -62 311 -91 337 -91 c 256
 344 -91 353 -89 361 -89 c 256
 385 -89 396 -114 416 -114 c 256
 431 -114 446 -102 462 -102 c 256
 477 -102 493 -112 508 -112 c 256
 525 -112 538 -94 556 -89 c 256
530 3 m 256
 517 0 507 -13 495 -13 c 256
 484 -13 473 -6 462 -6 c 256
 450 -6 438 -15 426 -15 c 257
 412 -13 405 3 386 3 c 256
 381 3 376 2 371 2 c 256
 352 2 345 23 334 28 c 256
 317 37 312 29 301 37 c 256
 288 45 289 63 279 71 c 256
 270 79 258 77 251 88 c 256
 243 101 248 110 240 123 c 256
 235 132 215 139 215 158 c 256
 215 163 217 169 217 174 c 256
 217 189 200 200 200 215 c 256
 200 226 208 237 208 248 c 256
 208 260 200 267 200 278 c 256
 200 294 217 308 217 324 c 256
 217 329 216 335 216 340 c 256
 216 359 235 363 242 376 c 256
 247 384 245 399 250 407 c 256
 257 416 271 416 279 424 c 256
 287 432 289 447 298 454 c 256
 307 462 323 460 334 466 c 256
 347 472 351 493 370 493 c 256
 376 493 381 492 387 492 c 256
 406 492 413 509 429 509 c 256
 439 509 451 500 461 500 c 256
 471 500 483 509 494 509 c 256
 513 509 516 491 535 491 c 256
 541 491 548 493 555 493 c 256
 575 493 576 474 589 467 c 256
 601 460 612 464 622 456 c 256
 632 449 630 436 639 428 c 256
 649 418 668 415 676 402 c 256
 680 394 677 379 681 371 c 256
 689 357 707 356 707 335 c 256
 707 329 706 323 706 318 c 256
 706 300 724 289 724 273 c 256
 724 264 716 254 716 245 c 256
 716 234 724 223 724 213 c 257
 721 199 706 196 706 177 c 256
 706 171 707 164 707 157 c 256
 707 133 691 136 683 122 c 256
 677 111 677 94 670 84 c 256
 663 76 651 76 644 68 c 256
 636 60 632 45 622 38 c 256
 613 31 597 30 587 24 c 257
 575 19 574 3 554 3 c 256
 549 3 544 4 539 4 c 256
 536 4 533 4 530 3 c 256
462 417 m 256
 368 417 292 341 292 247 c 256
 292 153 368 77 462 77 c 256
 556 77 632 153 632 247 c 256
 632 341 556 417 462 417 c 256
505 292 m 257
 505 117 l 257
 420 117 l 257
 420 292 l 257
 366 292 l 257
 366 360 l 257
 557 360 l 257
 557 292 l 257
 505 292 l 257
EndSplineSet
Validated: 9
EndChar

StartChar: approxequal
Encoding: 8776 8776 156
Width: 580
VWidth: 0
Flags: W
PickledData: "(dp1
S'com.typemytype.robofont.layerData'
p2
(dp3
s."
LayerCount: 2
Fore
SplineSet
94 388 m 257
 121 372 148 366 176 366 c 256
 251 366 328 409 404 409 c 256
 432 409 459 403 486 388 c 257
 486 448 l 257
 459 462 431 467 404 467 c 256
 328 467 251 424 176 424 c 256
 148 424 121 429 94 448 c 257
 94 388 l 257
94 188 m 257
 121 172 148 166 176 166 c 256
 251 166 328 209 404 209 c 256
 432 209 459 203 486 188 c 257
 486 248 l 257
 459 262 431 267 404 267 c 256
 328 267 251 224 176 224 c 256
 148 224 121 229 94 248 c 257
 94 188 l 257
EndSplineSet
Validated: 9
EndChar

StartChar: asciicircum
Encoding: 94 94 159
Width: 580
VWidth: 0
Flags: W
PickledData: "(dp1
S'com.typemytype.robofont.layerData'
p2
(dp3
s."
LayerCount: 2
Fore
SplineSet
252 618 m 257
 104 316 l 257
 170 316 l 257
 314 618 l 257
 252 618 l 257
266 618 m 257
 410 316 l 257
 476 316 l 257
 328 618 l 257
 266 618 l 257
EndSplineSet
Validated: 5
EndChar

StartChar: asciitilde
Encoding: 126 126 160
Width: 580
VWidth: 0
Flags: W
PickledData: "(dp1
S'com.typemytype.robofont.layerData'
p2
(dp3
s."
LayerCount: 2
Fore
SplineSet
94 288 m 257
 121 272 148 266 176 266 c 256
 251 266 328 309 404 309 c 256
 432 309 459 303 486 288 c 257
 486 348 l 257
 459 362 431 367 404 367 c 256
 328 367 251 324 176 324 c 256
 148 324 121 329 94 348 c 257
 94 288 l 257
EndSplineSet
Validated: 9
EndChar

StartChar: asterisk
Encoding: 42 42 162
Width: 552
VWidth: 0
Flags: W
PickledData: "(dp1
S'com.typemytype.robofont.layerData'
p2
(dp3
s."
LayerCount: 2
Fore
SplineSet
236 779 m 257
 236 700 l 257
 264 577 l 257
 288 577 l 257
 316 700 l 257
 316 779 l 257
 236 779 l 257
27 570 m 257
 102 545 l 257
 228 534 l 257
 236 556 l 257
 127 621 l 257
 52 645 l 257
 27 570 l 257
162 306 m 257
 209 370 l 257
 258 486 l 257
 239 501 l 257
 144 418 l 257
 98 353 l 257
 162 306 l 257
454 353 m 257
 408 418 l 257
 313 500 l 257
 293 486 l 257
 343 370 l 257
 390 306 l 257
 454 353 l 257
500 645 m 257
 424 621 l 257
 317 556 l 257
 324 533 l 257
 450 545 l 257
 525 570 l 257
 500 645 l 257
EndSplineSet
Validated: 9
EndChar

StartChar: at
Encoding: 64 64 163
Width: 980
VWidth: 0
Flags: W
PickledData: "(dp1
S'com.typemytype.robofont.layerData'
p2
(dp3
s."
LayerCount: 2
Fore
SplineSet
584 -87 m 257
 826 -61 890 81 890 328 c 256
 890 604 810 745 490 745 c 256
 169 745 90 604 90 328 c 256
 90 52 169 -89 490 -89 c 257
 490 -34 l 257
 213 -34 160 88 160 328 c 256
 160 568 213 690 490 690 c 256
 766 690 820 568 820 328 c 256
 820 144 792 13 648 -20 c 257
 648 458 l 258
 648 557 578 586 490 586 c 256
 359 586 329 528 323 442 c 257
 381 440 l 257
 385 497 399 531 488 531 c 256
 551 531 584 512 584 456 c 258
 584 378 l 257
 444 370 l 258
 330 363 303 321 303 233 c 256
 303 154 335 106 438 106 c 256
 498 106 551 132 584 159 c 257
 584 -87 l 257
452 158 m 256
 389 158 368 185 368 233 c 256
 368 301 387 320 452 324 c 258
 584 332 l 257
 584 214 l 257
 544 177 498 158 452 158 c 256
EndSplineSet
Validated: 9
EndChar

StartChar: avagrahacombiningsigndeva
Encoding: 43249 43249 170
Width: 0
VWidth: 0
Flags: W
PickledData: "(dp1
S'com.typemytype.robofont.layerData'
p2
(dp3
s."
AnchorPoint: "Anchor-1" -150 730 mark 0
AnchorPoint: "DVAnchor3" -150 730 mark 0
LayerCount: 2
Fore
SplineSet
-46 894 m 256
 -46 825 -90 803 -147 803 c 256
 -224 803 -257 858 -257 939 c 257
 -209 945 l 257
 -209 881 -190 842 -147 842 c 256
 -116 842 -95 858 -95 894 c 256
 -95 970 -239 970 -239 1058 c 256
 -239 1105 -205 1129 -160 1129 c 258
 -83 1129 l 257
 -83 1096 l 257
 -150 1096 l 258
 -178 1096 -190 1080 -190 1058 c 256
 -190 1001 -46 999 -46 894 c 256
EndSplineSet
Validated: 1
EndChar

StartChar: avagrahadeva
Encoding: 2365 2365 171
Width: 485
VWidth: 0
Flags: W
PickledData: "(dp1
S'com.typemytype.robofont.layerData'
p2
(dp3
s."
LayerCount: 2
Fore
SplineSet
455 220 m 256
 455 436 163 448 163 586 c 256
 163 643 195 680 265 680 c 258
 405 680 l 257
 405 730 l 257
 254 730 l 258
 157 730 93 678 93 586 c 256
 93 404 385 391 385 213 c 256
 385 112 329 64 246 64 c 256
 133 64 82 147 82 284 c 257
 15 274 l 257
 15 103 94 6 246 6 c 256
 372 6 455 77 455 220 c 256
EndSplineSet
Validated: 9
EndChar

StartChar: awdeva
Encoding: 2421 2421 172
Width: 1136
VWidth: 0
Flags: W
PickledData: "(dp1
S'com.typemytype.robofont.layerData'
p2
(dp3
s."
LayerCount: 2
Fore
SplineSet
982 730 m 257
 882 942 675 782 675 972 c 257
 607 967 l 257
 607 728 839 890 939 730 c 257
 982 730 l 257
1033 730 m 257
 1023 930 902 862 902 1052 c 257
 834 1047 l 257
 834 837 968 915 990 730 c 257
 1033 730 l 257
EndSplineSet
Refer: 139 2309 N 1 0 0 1 0 0 2
Refer: 130 2366 N 1 0 0 1 836 0 2
Validated: 5
EndChar

StartChar: awsigndeva
Encoding: 2383 2383 173
Width: 300
VWidth: 0
Flags: W
PickledData: "(dp1
S'com.typemytype.robofont.layerData'
p2
(dp3
s."
LayerCount: 2
Fore
SplineSet
146 730 m 257
 46 942 -161 782 -161 972 c 257
 -229 967 l 257
 -229 728 3 890 103 730 c 257
 146 730 l 257
197 730 m 257
 187 930 66 862 66 1052 c 257
 -2 1047 l 257
 -2 837 132 915 154 730 c 257
 197 730 l 257
EndSplineSet
Refer: 130 2366 N 1 0 0 1 0 0 2
Validated: 5
EndChar

StartChar: b
Encoding: 98 98 174
Width: 616
VWidth: 0
Flags: W
PickledData: "(dp1
S'com.typemytype.robofont.layerData'
p2
(dp3
s."
LayerCount: 2
Fore
SplineSet
170 85 m 257
 170 750 l 257
 100 750 l 257
 100 0 l 257
 147 0 l 257
 170 85 l 257
346 -14 m 256
 534 -14 556 131 556 286 c 256
 556 441 532 586 346 586 c 256
 269 586 187 550 124 500 c 257
 140 455 l 257
 213 508 270 527 336 527 c 256
 471 527 486 405 486 286 c 256
 486 154 474 45 326 45 c 256
 272 45 192 73 135 134 c 257
 119 90 l 257
 156 45 251 -14 346 -14 c 256
40 700 m 257
 100 700 l 257
 100 750 l 257
 40 750 l 257
 40 700 l 257
EndSplineSet
Validated: 5
EndChar

StartChar: ba_virama_ra_viramadeva
Encoding: 65547 -1 175
Width: 315
VWidth: 0
Flags: W
PickledData: "(dp1
S'com.typemytype.robofont.layerData'
p2
(dp3
s."
LayerCount: 2
Fore
SplineSet
362 185 m 257
 405 210 l 257
 216 537 l 257
 173 512 l 257
 362 185 l 257
430 252 m 257
 99 86 l 257
 130 27 l 257
 440 198 l 257
 430 252 l 257
EndSplineSet
Refer: 751 -1 N 1 0 0 1 0 0 2
Validated: 5
Ligature2: "'vatu' Vattu Variants lookup 10 subtable" badeva viramadeva_radeva viramadeva
Ligature2: "'vatu' Vattu Variants lookup 10 subtable" badeva_viramadeva viramadeva_radeva
Ligature2: "'half' Half Forms lookup 9 subtable" badeva_viramadeva_radeva viramadeva
EndChar

StartChar: backslash
Encoding: 92 92 176
Width: 308
VWidth: 0
Flags: W
PickledData: "(dp1
S'com.typemytype.robofont.layerData'
p2
(dp3
s."
LayerCount: 2
Fore
SplineSet
71 775 m 257
 0 775 l 257
 237 -106 l 257
 308 -106 l 257
 71 775 l 257
EndSplineSet
Validated: 9
EndChar

StartChar: badeva
Encoding: 2348 2348 177
Width: 615
VWidth: 0
Flags: W
PickledData: "(dp1
S'com.typemytype.robofont.layerData'
p2
(dp3
s."
AnchorPoint: "Anchor-1" 465 730 basechar 0
AnchorPoint: "Anchor-1" 465 730 basechar 0
LayerCount: 2
Fore
SplineSet
362 185 m 257
 405 210 l 257
 216 537 l 257
 173 512 l 257
 362 185 l 257
EndSplineSet
Refer: 750 2357 N 1 0 0 1 0 0 2
Validated: 5
EndChar

StartChar: badeva_viramadeva
Encoding: 65548 -1 178
Width: 315
VWidth: 0
Flags: W
PickledData: "(dp1
S'com.typemytype.robofont.layerData'
p2
(dp3
s."
LayerCount: 2
Fore
SplineSet
362 185 m 257
 405 210 l 257
 216 537 l 257
 173 512 l 257
 362 185 l 257
EndSplineSet
Refer: 751 -1 N 1 0 0 1 0 0 2
Validated: 5
Ligature2: "'half' Half Forms lookup 9 subtable" badeva viramadeva
EndChar

StartChar: badeva_viramadeva_radeva
Encoding: 65549 -1 179
Width: 615
VWidth: 0
Flags: W
PickledData: "(dp1
S'com.typemytype.robofont.layerData'
p2
(dp3
s."
LayerCount: 2
Fore
SplineSet
362 185 m 257
 405 210 l 257
 216 537 l 257
 173 512 l 257
 362 185 l 257
EndSplineSet
Refer: 758 -1 N 1 0 0 1 569 35 2
Refer: 750 2357 N 1 0 0 1 0 0 2
Validated: 5
Ligature2: "'vatu' Vattu Variants lookup 10 subtable" badeva viramadeva_radeva
EndChar

StartChar: bar
Encoding: 124 124 180
Width: 321
VWidth: 0
Flags: W
PickledData: "(dp1
S'com.typemytype.robofont.layerData'
p2
(dp3
s."
LayerCount: 2
Fore
SplineSet
120 -106 m 257
 201 -106 l 257
 201 775 l 257
 120 775 l 257
 120 -106 l 257
EndSplineSet
Validated: 9
EndChar

StartChar: barra
Encoding: 65550 -1 181
Width: 382
VWidth: 0
Flags: W
PickledData: "(dp1
S'com.typemytype.robofont.layerData'
p2
(dp3
s."
LayerCount: 2
Fore
SplineSet
382 317 m 257
 382 367 l 257
 0 367 l 257
 0 317 l 257
 382 317 l 257
EndSplineSet
Validated: 9
EndChar

StartChar: bbadeva
Encoding: 2431 2431 182
Width: 615
VWidth: 0
Flags: W
PickledData: "(dp1
S'com.typemytype.robofont.layerData'
p2
(dp3
s."
AnchorPoint: "Anchor-1" 465 730 basechar 0
AnchorPoint: "Anchor-1" 465 730 basechar 0
LayerCount: 2
Fore
SplineSet
362 185 m 257
 405 210 l 257
 216 537 l 257
 173 512 l 257
 362 185 l 257
-10 -50 m 257
 500 -50 l 257
 500 0 l 257
 -10 0 l 257
 -10 -50 l 257
EndSplineSet
Refer: 750 2357 N 1 0 0 1 0 0 2
Validated: 5
EndChar

StartChar: bhadeva
Encoding: 2349 2349 183
Width: 724
VWidth: 0
Flags: W
PickledData: "(dp1
S'com.typemytype.robofont.layerData'
p2
(dp3
s."
AnchorPoint: "Anchor-1" 574 730 basechar 0
AnchorPoint: "Anchor-1" 574 730 basechar 0
LayerCount: 2
Fore
SplineSet
319 582 m 257
 319 674 289 744 174 744 c 256
 49 744 30 664 30 603 c 256
 30 545 56 492 116 469 c 257
 146 511 l 257
 118 526 98 555 98 602 c 256
 98 656 116 694 174 694 c 256
 234 694 252 648 252 582 c 257
 319 582 l 257
252 582 m 257
 252 385 l 257
 206 385 l 258
 184 385 178 376 178 347 c 256
 178 292 266 241 296 241 c 256
 308 241 319 244 319 262 c 258
 319 335 l 257
 539 335 l 257
 539 0 l 257
 609 0 l 257
 609 680 l 257
 734 680 l 257
 734 730 l 257
 419 730 l 257
 419 680 l 257
 539 680 l 257
 539 385 l 257
 319 385 l 257
 319 582 l 257
 252 582 l 257
EndSplineSet
Validated: 5
EndChar

StartChar: bhadeva_viramadeva
Encoding: 65551 -1 184
Width: 444
VWidth: 0
Flags: W
PickledData: "(dp1
S'com.typemytype.robofont.layerData'
p2
(dp3
s."
LayerCount: 2
Fore
SplineSet
569 730 m 257
 439 730 l 257
 439 680 l 257
 569 680 l 257
 569 730 l 257
594 385 m 257
 319 385 l 257
 319 582 l 257
 252 582 l 257
 252 385 l 257
 206 385 l 258
 184 385 178 376 178 347 c 256
 178 292 266 241 296 241 c 256
 308 241 319 244 319 262 c 258
 319 335 l 257
 594 335 l 257
 594 385 l 257
319 582 m 257
 319 674 289 744 174 744 c 256
 49 744 30 664 30 603 c 256
 30 545 56 492 116 469 c 257
 146 511 l 257
 118 526 98 555 98 602 c 256
 98 656 116 694 174 694 c 256
 234 694 252 648 252 582 c 257
 319 582 l 257
EndSplineSet
Validated: 5
Ligature2: "'half' Half Forms lookup 9 subtable" bhadeva viramadeva
EndChar

StartChar: braceleft
Encoding: 123 123 186
Width: 294
VWidth: 0
Flags: W
PickledData: "(dp1
S'com.typemytype.robofont.layerData'
p2
(dp3
s."
LayerCount: 2
Fore
SplineSet
121 332 m 257
 146 332 170 308 170 266 c 256
 170 224 162 194 162 144 c 256
 162 58 190 -4 289 -4 c 257
 289 -66 l 257
 136 -66 88 24 88 137 c 256
 88 183 96 221 96 261 c 256
 96 301 49 310 21 310 c 257
 21 360 l 257
 49 360 96 369 96 409 c 256
 96 449 88 487 88 533 c 256
 88 646 136 736 289 736 c 257
 289 674 l 257
 190 674 162 612 162 526 c 256
 162 476 170 446 170 404 c 256
 170 362 146 338 121 338 c 257
 121 332 l 257
EndSplineSet
Validated: 1
EndChar

StartChar: braceright
Encoding: 125 125 187
Width: 294
VWidth: 0
Flags: W
PickledData: "(dp1
S'com.typemytype.robofont.layerData'
p2
(dp3
s."
LayerCount: 2
Fore
SplineSet
173 338 m 257
 148 338 124 362 124 404 c 256
 124 446 132 476 132 526 c 256
 132 612 104 674 5 674 c 257
 5 736 l 257
 158 736 206 646 206 533 c 256
 206 487 198 449 198 409 c 256
 198 369 245 360 273 360 c 257
 273 310 l 257
 245 310 198 301 198 261 c 256
 198 221 206 183 206 137 c 256
 206 24 158 -66 5 -66 c 257
 5 -4 l 257
 104 -4 132 58 132 144 c 256
 132 194 124 224 124 266 c 256
 124 308 148 332 173 332 c 257
 173 338 l 257
EndSplineSet
Validated: 1
EndChar

StartChar: bracketleft
Encoding: 91 91 188
Width: 284
VWidth: 0
Flags: W
PickledData: "(dp1
S'com.typemytype.robofont.layerData'
p2
(dp3
s."
LayerCount: 2
Fore
SplineSet
80 -66 m 257
 153 -66 l 257
 153 735 l 257
 80 735 l 257
 80 -66 l 257
136 682 m 257
 279 682 l 257
 279 735 l 257
 136 735 l 257
 136 682 l 257
136 -66 m 257
 279 -66 l 257
 279 -13 l 257
 136 -13 l 257
 136 -66 l 257
EndSplineSet
Validated: 5
EndChar

StartChar: bracketright
Encoding: 93 93 189
Width: 284
VWidth: 0
Flags: W
PickledData: "(dp1
S'com.typemytype.robofont.layerData'
p2
(dp3
s."
LayerCount: 2
Fore
SplineSet
204 735 m 257
 131 735 l 257
 131 -66 l 257
 204 -66 l 257
 204 735 l 257
148 -13 m 257
 5 -13 l 257
 5 -66 l 257
 148 -66 l 257
 148 -13 l 257
148 735 m 257
 5 735 l 257
 5 682 l 257
 148 682 l 257
 148 735 l 257
EndSplineSet
Validated: 5
EndChar

StartChar: breve
Encoding: 728 728 190
Width: 425
VWidth: 0
Flags: W
PickledData: "(dp1
S'com.typemytype.robofont.layerData'
p2
(dp3
s."
LayerCount: 2
Fore
SplineSet
338 779 m 257
 338 710 325 644 212 644 c 256
 100 644 87 710 87 779 c 257
 142 779 l 257
 142 741 146 705 212 705 c 256
 278 705 282 741 282 779 c 257
 338 779 l 257
EndSplineSet
Validated: 1
EndChar

StartChar: breve.case
Encoding: 65553 -1 191
Width: 425
VWidth: 0
Flags: W
PickledData: "(dp1
S'com.typemytype.robofont.layerData'
p2
(dp3
s."
LayerCount: 2
Fore
SplineSet
338 937 m 257
 338 868 325 802 212 802 c 256
 100 802 87 868 87 937 c 257
 142 937 l 257
 142 899 146 863 212 863 c 256
 278 863 282 899 282 937 c 257
 338 937 l 257
EndSplineSet
Validated: 1
EndChar

StartChar: brokenbar
Encoding: 166 166 192
Width: 321
VWidth: 0
Flags: W
PickledData: "(dp1
S'com.typemytype.robofont.layerData'
p2
(dp3
s."
LayerCount: 2
Fore
SplineSet
120 424 m 257
 201 424 l 257
 201 775 l 257
 120 775 l 257
 120 424 l 257
120 -106 m 257
 201 -106 l 257
 201 245 l 257
 120 245 l 257
 120 -106 l 257
EndSplineSet
Validated: 9
EndChar

StartChar: c
Encoding: 99 99 194
Width: 567
VWidth: 0
Flags: W
PickledData: "(dp1
S'com.typemytype.robofont.layerData'
p2
(dp3
s."
LayerCount: 2
Fore
SplineSet
290 586 m 256
 89 586 60 446 60 286 c 256
 60 131 83 -14 295 -14 c 256
 463 -14 496 58 504 162 c 257
 447 165 l 257
 442 92 420 45 294 45 c 256
 139 45 130 169 130 286 c 256
 130 399 141 527 289 527 c 256
 397 527 441 471 452 370 c 257
 485 370 l 257
 484 494 425 586 290 586 c 256
447 572 m 257
 452 370 l 257
 498 370 l 257
 498 572 l 257
 447 572 l 257
EndSplineSet
Validated: 5
EndChar

StartChar: cadeva
Encoding: 2330 2330 196
Width: 681
VWidth: 0
Flags: W
PickledData: "(dp1
S'com.typemytype.robofont.layerData'
p2
(dp3
s."
AnchorPoint: "Anchor-1" 531 730 basechar 0
AnchorPoint: "Anchor-1" 531 730 basechar 0
LayerCount: 2
Fore
SplineSet
496 680 m 257
 496 0 l 257
 566 0 l 257
 566 680 l 257
 691 680 l 257
 691 730 l 257
 -10 730 l 257
 -10 680 l 257
 496 680 l 257
531 290 m 257
 488 237 403 198 308 198 c 256
 211 198 177 247 177 314 c 256
 177 381 220 454 344 454 c 257
 339 485 l 257
 171 485 109 393 109 304 c 256
 109 209 165 140 300 140 c 256
 417 140 494 182 531 223 c 257
 531 290 l 257
375 504 m 257
 13 504 l 257
 13 454 l 257
 375 454 l 257
 375 504 l 257
EndSplineSet
Validated: 5
EndChar

StartChar: cadeva_viramadeva
Encoding: 65554 -1 197
Width: 361
VWidth: 0
Flags: W
PickledData: "(dp1
S'com.typemytype.robofont.layerData'
p2
(dp3
s."
LayerCount: 2
Fore
SplineSet
486 680 m 257
 486 730 l 257
 -10 730 l 257
 -10 680 l 257
 486 680 l 257
510 294 m 257
 473 246 403 207 308 207 c 256
 191 207 177 268 177 335 c 256
 177 402 186 463 310 463 c 257
 305 488 l 257
 137 488 109 415 109 335 c 256
 109 239 138 149 308 149 c 256
 397 149 464 177 510 229 c 257
 510 294 l 257
375 513 m 257
 13 513 l 257
 13 463 l 257
 375 463 l 257
 375 513 l 257
EndSplineSet
Validated: 5
Ligature2: "'half' Half Forms lookup 9 subtable" cadeva viramadeva
EndChar

StartChar: cadeva_viramadeva_cadeva
Encoding: 65555 -1 198
Width: 681
VWidth: 0
Flags: W
PickledData: "(dp1
S'com.typemytype.robofont.layerData'
p2
(dp3
s."
LayerCount: 2
Fore
SplineSet
531 394 m 257
 488 338 403 298 308 298 c 256
 211 298 177 335 177 384 c 256
 177 434 220 487 344 487 c 257
 339 517 l 257
 171 517 109 447 109 378 c 256
 109 306 165 252 300 252 c 256
 417 252 494 295 531 340 c 257
 531 394 l 257
375 536 m 257
 13 536 l 257
 13 487 l 257
 375 487 l 257
 375 536 l 257
531 156 m 257
 488 100 403 60 308 60 c 256
 211 60 177 97 177 146 c 256
 177 198 220 255 343 255 c 257
 339 279 l 257
 171 279 109 208 109 140 c 256
 109 68 165 13 300 13 c 256
 417 13 494 57 531 102 c 257
 531 156 l 257
252 298 m 257
 13 298 l 257
 13 249 l 257
 252 249 l 257
 252 298 l 257
496 679 m 257
 496 -1 l 257
 566 -1 l 257
 566 679 l 257
 691 679 l 257
 691 729 l 257
 -10 729 l 257
 -10 679 l 257
 496 679 l 257
EndSplineSet
Validated: 5
Ligature2: "'pres' Pre Base Substitutions lookup 12 subtable" cadeva_viramadeva cadeva
Ligature2: "'locl' Localized Forms lookup 2 subtable" cadeva viramadeva cadeva
EndChar

StartChar: candrabinduavagrahadeva
Encoding: 43255 43255 200
Width: 541
VWidth: 0
Flags: W
PickledData: "(dp1
S'com.typemytype.robofont.layerData'
p2
(dp3
s."
LayerCount: 2
Fore
SplineSet
388 101 m 256
 388 222 228 224 228 295 c 256
 228 324 244 343 279 343 c 258
 360 343 l 257
 360 379 l 257
 269 379 l 258
 215 379 175 351 175 295 c 256
 175 190 334 190 334 96 c 256
 334 47 307 25 267 25 c 256
 213 25 190 68 190 137 c 257
 137 130 l 257
 137 40 177 -19 267 -19 c 256
 336 -19 388 16 388 101 c 256
EndSplineSet
Refer: 660 43250 N 1 0 0 1 0 0 2
Validated: 9
EndChar

StartChar: candrabindudeva
Encoding: 2305 2305 201
Width: 0
VWidth: 0
Flags: W
PickledData: "(dp1
S'com.typemytype.robofont.layerData'
p2
(dp3
s."
AnchorPoint: "Anchor-1" -150 730 mark 0
AnchorPoint: "DVAnchor3" -150 730 mark 0
LayerCount: 2
Fore
SplineSet
-149 981 m 256
 -112 981 -96 996 -96 1032 c 256
 -96 1069 -111 1084 -149 1084 c 256
 -185 1084 -200 1069 -200 1032 c 256
 -200 996 -185 981 -149 981 c 256
21 991 m 257
 21 910 -7 832 -150 832 c 256
 -293 832 -320 910 -320 991 c 257
 -261 991 l 257
 -261 939 -246 892 -150 892 c 256
 -55 892 -40 939 -40 991 c 257
 21 991 l 257
EndSplineSet
Validated: 9
EndChar

StartChar: candrabindudigitthreedeva
Encoding: 43254 43254 202
Width: 541
VWidth: 0
Flags: W
PickledData: "(dp1
S'com.typemytype.robofont.layerData'
p2
(dp3
s."
LayerCount: 2
Fore
SplineSet
270 376 m 256
 224 376 186 362 154 338 c 257
 175 299 l 257
 200 319 233 333 266 333 c 256
 309 333 337 313 337 273 c 256
 337 237 314 208 271 208 c 258
 231 208 l 257
 231 177 l 257
 273 177 l 258
 334 177 391 211 391 272 c 256
 391 337 342 376 270 376 c 256
402 97 m 256
 402 163 348 199 284 199 c 258
 231 199 l 257
 231 168 l 257
 274 168 l 258
 319 168 348 137 348 100 c 256
 348 58 316 36 272 36 c 256
 219 36 184 61 181 89 c 257
 169 31 l 257
 190 12 215 -7 274 -7 c 256
 343 -7 402 33 402 97 c 256
185 11 m 257
 221 -38 282 -85 382 -120 c 257
 393 -79 l 257
 271 -34 201 21 196 116 c 257
 117 137 114 50 185 11 c 257
EndSplineSet
Refer: 660 43250 N 1 0 0 1 0 0 2
Validated: 37
EndChar

StartChar: candrabindudigittwodeva
Encoding: 43253 43253 203
Width: 539
VWidth: 0
Flags: W
PickledData: "(dp1
S'com.typemytype.robofont.layerData'
p2
(dp3
s."
LayerCount: 2
Fore
SplineSet
207 20 m 257
 218 18 231 18 242 18 c 256
 364 18 437 92 437 196 c 256
 437 293 383 363 247 363 c 256
 197 363 149 348 108 321 c 257
 131 282 l 257
 164 302 204 315 243 315 c 256
 334 315 383 276 383 196 c 256
 383 110 316 65 238 65 c 256
 221 65 206 65 192 69 c 257
 207 20 l 257
365 -84 m 257
 251 -13 200 73 194 167 c 257
 94 184 88 52 185 23 c 257
 220 -28 268 -77 337 -123 c 257
 365 -84 l 257
EndSplineSet
Refer: 660 43250 N 1 0 0 1 0 0 2
Validated: 37
EndChar

StartChar: candrabinduinverteddeva
Encoding: 2304 2304 204
Width: 0
VWidth: 0
Flags: W
PickledData: "(dp1
S'com.typemytype.robofont.layerData'
p2
(dp3
s."
AnchorPoint: "Anchor-1" -150 730 mark 0
AnchorPoint: "DVAnchor3" -150 730 mark 0
LayerCount: 2
Fore
SplineSet
-150 935 m 256
 -187 935 -203 920 -203 884 c 256
 -203 847 -188 832 -150 832 c 256
 -114 832 -99 847 -99 884 c 256
 -99 920 -114 935 -150 935 c 256
-320 925 m 257
 -320 1006 -292 1084 -149 1084 c 256
 -6 1084 21 1006 21 925 c 257
 -38 925 l 257
 -38 977 -53 1024 -149 1024 c 256
 -244 1024 -259 977 -259 925 c 257
 -320 925 l 257
EndSplineSet
Validated: 9
EndChar

StartChar: caretdeva
Encoding: 43258 43258 206
Width: 601
VWidth: 0
Flags: W
PickledData: "(dp1
S'com.typemytype.robofont.layerData'
p2
(dp3
s."
LayerCount: 2
Fore
SplineSet
301 698 m 257
 473 923 l 257
 531 871 l 257
 337 650 l 257
 266 650 l 257
 70 871 l 257
 129 923 l 257
 301 698 l 257
EndSplineSet
Validated: 1
EndChar

StartChar: caron
Encoding: 711 711 207
Width: 371
VWidth: 0
Flags: W
PickledData: "(dp1
S'com.typemytype.robofont.layerData'
p2
(dp3
s."
LayerCount: 2
Fore
SplineSet
294 827 m 257
 186 717 l 257
 77 827 l 257
 35 785 l 257
 171 630 l 257
 200 630 l 257
 336 785 l 257
 294 827 l 257
EndSplineSet
Validated: 9
EndChar

StartChar: caron.case
Encoding: 65557 -1 208
Width: 371
VWidth: 0
Flags: W
PickledData: "(dp1
S'com.typemytype.robofont.layerData'
p2
(dp3
s."
LayerCount: 2
Fore
SplineSet
294 985 m 257
 186 875 l 257
 77 985 l 257
 35 943 l 257
 171 788 l 257
 200 788 l 257
 336 943 l 257
 294 985 l 257
EndSplineSet
Validated: 9
EndChar

StartChar: cedilla
Encoding: 184 184 213
Width: 299
VWidth: 0
Flags: W
PickledData: "(dp1
S'com.typemytype.robofont.layerData'
p2
(dp3
s."
LayerCount: 2
Fore
SplineSet
50 -146 m 257
 50 -204 70 -241 149 -241 c 256
 229 -241 249 -204 249 -145 c 256
 249 -69 207 -55 141 -55 c 258
 99 -55 l 257
 93 -86 l 257
 147 -96 l 258
 183 -103 194 -114 194 -146 c 256
 194 -173 191 -191 152 -191 c 256
 113 -191 110 -173 110 -146 c 257
 50 -146 l 257
142 -86 m 257
 157 0 l 257
 108 0 l 257
 93 -86 l 257
 142 -86 l 257
EndSplineSet
Validated: 5
EndChar

StartChar: cent
Encoding: 162 162 214
Width: 580
VWidth: 0
Flags: W
PickledData: "(dp1
S'com.typemytype.robofont.layerData'
p2
(dp3
s."
LayerCount: 2
Fore
SplineSet
313 35 m 256
 477 35 518 107 526 211 c 257
 469 214 l 257
 466 141 436 94 314 94 c 256
 168 94 154 208 154 335 c 256
 154 462 163 576 328 576 c 256
 430 576 458 516 462 443 c 257
 519 446 l 257
 511 550 473 635 328 635 c 256
 108 635 84 490 84 335 c 256
 84 180 111 35 313 35 c 256
293 -74 m 257
 343 -74 l 257
 343 744 l 257
 293 744 l 257
 293 -74 l 257
EndSplineSet
Validated: 5
EndChar

StartChar: chadeva
Encoding: 2331 2331 215
Width: 754
VWidth: 0
Flags: W
PickledData: "(dp1
S'com.typemytype.robofont.layerData'
p2
(dp3
s."
AnchorPoint: "Anchor-1" 555 730 basechar 0
AnchorPoint: "Anchor-0" 308 90 basechar 0
AnchorPoint: "Anchor-0" 308 90 basechar 0
AnchorPoint: "Anchor-1" 555 730 basechar 0
LayerCount: 2
Fore
SplineSet
523 531 m 257
 593 531 l 257
 593 680 l 257
 523 680 l 257
 523 531 l 257
EndSplineSet
Refer: 216 -1 N 1 0 0 1 0 0 2
Validated: 5
EndChar

StartChar: chadeva_viramadeva
Encoding: 65558 -1 216
Width: 754
VWidth: 0
Flags: W
PickledData: "(dp1
S'com.typemytype.robofont.layerData'
p2
(dp3
s."
LayerCount: 2
Fore
SplineSet
272 720 m 257
 97 720 38 654 38 559 c 256
 38 465 137 394 250 394 c 258
 314 394 l 257
 314 436 l 257
 249 436 l 258
 160 436 108 491 108 556 c 256
 108 630 143 680 272 680 c 257
 272 720 l 257
764 730 m 257
 -10 730 l 257
 -10 680 l 257
 764 680 l 257
 764 730 l 257
727 364 m 256
 727 464 711 557 560 557 c 256
 409 557 393 464 393 364 c 256
 393 270 410 189 554 151 c 257
 579 197 l 257
 464 227 456 295 456 364 c 256
 456 437 462 506 559 506 c 256
 658 506 663 437 663 364 c 256
 663 213 466 103 271 103 c 256
 159 103 108 152 108 233 c 256
 108 315 152 386 259 386 c 258
 314 386 l 257
 314 429 l 257
 248 429 l 258
 137 429 38 367 38 235 c 256
 38 112 120 45 271 45 c 256
 476 45 727 183 727 364 c 256
EndSplineSet
Validated: 5
Ligature2: "'half' Half Forms lookup 9 subtable" chadeva viramadeva
EndChar

StartChar: chadeva_viramadeva_vadeva
Encoding: 65559 -1 217
Width: 749
VWidth: 0
Flags: W
PickledData: "(dp1
S'com.typemytype.robofont.layerData'
p2
(dp3
s."
AnchorPoint: "Anchor-0" 479 -176 basechar 0
AnchorPoint: "Anchor-0" 479 -176 basechar 0
LayerCount: 2
Fore
SplineSet
287 720 m 257
 127 720 73 672 73 605 c 256
 73 533 163 484 265 484 c 258
 309 484 l 257
 309 522 l 257
 264 522 l 258
 188 522 143 559 143 602 c 256
 143 650 174 680 287 680 c 257
 287 720 l 257
759 730 m 257
 -10 730 l 257
 -10 680 l 257
 759 680 l 257
 759 730 l 257
668 467 m 256
 668 526 633 579 525 579 c 256
 414 579 382 526 382 467 c 256
 382 408 395 349 555 329 c 257
 577 370 l 257
 454 385 446 422 446 467 c 256
 446 506 469 534 524 534 c 256
 580 534 603 506 603 467 c 256
 603 355 444 287 286 287 c 256
 188 287 143 320 143 374 c 256
 143 436 181 475 274 475 c 258
 309 475 l 257
 309 515 l 257
 263 515 l 258
 163 515 73 471 73 374 c 256
 73 285 148 230 286 230 c 256
 477 230 668 329 668 467 c 256
444 -206 m 257
 514 -206 l 257
 514 320 l 257
 444 300 l 257
 444 -206 l 257
397 143 m 257
 365 153 331 159 291 159 c 256
 170 159 115 83 115 2 c 256
 115 -83 172 -158 298 -158 c 256
 373 -158 434 -138 469 -114 c 257
 469 -55 l 257
 440 -81 375 -103 307 -103 c 256
 227 -103 185 -56 185 2 c 256
 185 57 224 104 301 104 c 256
 330 104 358 100 384 91 c 257
 397 143 l 257
494 558 m 257
 564 558 l 257
 564 680 l 257
 494 680 l 257
 494 558 l 257
EndSplineSet
Validated: 5
Ligature2: "'pres' Pre Base Substitutions lookup 12 subtable" chadeva_viramadeva vadeva
Ligature2: "'locl' Localized Forms lookup 2 subtable" cadeva viramadeva vadeva
EndChar

StartChar: circumflex
Encoding: 710 710 218
Width: 401
VWidth: 0
Flags: W
PickledData: "(dp1
S'com.typemytype.robofont.layerData'
p2
(dp3
s."
LayerCount: 2
Fore
SplineSet
92 624 m 257
 200 734 l 257
 309 624 l 257
 351 666 l 257
 215 821 l 257
 186 821 l 257
 50 666 l 257
 92 624 l 257
EndSplineSet
Validated: 9
EndChar

StartChar: circumflex.case
Encoding: 65560 -1 219
Width: 401
VWidth: 0
Flags: W
PickledData: "(dp1
S'com.typemytype.robofont.layerData'
p2
(dp3
s."
LayerCount: 2
Fore
SplineSet
92 782 m 257
 200 892 l 257
 309 782 l 257
 351 824 l 257
 215 979 l 257
 186 979 l 257
 50 824 l 257
 92 782 l 257
EndSplineSet
Validated: 9
EndChar

StartChar: comma
Encoding: 44 44 221
Width: 226
VWidth: 0
Flags: W
PickledData: "(dp1
S'com.typemytype.robofont.layerData'
p2
(dp3
s."
LayerCount: 2
Fore
SplineSet
65 50 m 256
 65 25 77 5 77 -14 c 256
 77 -57 59 -74 38 -93 c 257
 61 -120 l 257
 61 -120 161 -51 161 50 c 256
 161 78 158 109 112 109 c 256
 68 109 65 78 65 50 c 256
EndSplineSet
Validated: 9
EndChar

StartChar: commaaccent
Encoding: 65561 -1 222
Width: 300
VWidth: 0
Flags: W
PickledData: "(dp1
S'com.typemytype.robofont.layerData'
p2
(dp3
s."
LayerCount: 2
Fore
SplineSet
107 -82 m 256
 107 -112 118 -132 118 -159 c 256
 118 -190 106 -208 91 -226 c 257
 113 -249 l 257
 147 -221 194 -161 194 -87 c 256
 194 -62 188 -35 150 -35 c 256
 113 -35 107 -62 107 -82 c 256
EndSplineSet
Validated: 9
EndChar

StartChar: copyright
Encoding: 169 169 223
Width: 727
VWidth: 0
Flags: W
PickledData: "(dp1
S'com.typemytype.robofont.layerData'
p2
(dp3
s."
LayerCount: 2
Fore
SplineSet
70 560 m 256
 70 349 152 267 363 267 c 256
 574 267 657 349 657 560 c 256
 657 771 574 854 363 854 c 256
 152 854 70 771 70 560 c 256
118 560 m 256
 118 740 179 811 363 811 c 256
 547 811 609 740 609 560 c 256
 609 380 547 310 363 310 c 256
 179 310 118 380 118 560 c 256
490 656 m 257
 483 728 450 769 362 769 c 256
 233 769 207 693 207 561 c 256
 207 430 227 352 363 352 c 256
 460 352 486 405 491 482 c 257
 449 484 l 257
 447 433 426 395 363 395 c 256
 269 395 259 455 259 561 c 256
 259 667 274 727 362 727 c 256
 420 727 442 702 447 653 c 257
 490 656 l 257
EndSplineSet
Validated: 9
EndChar

StartChar: currency
Encoding: 164 164 224
Width: 582
VWidth: 0
Flags: W
PickledData: "(dp1
S'com.typemytype.robofont.layerData'
p2
(dp3
s."
LayerCount: 2
Fore
SplineSet
287 190 m 256
 166 190 160 264 160 335 c 256
 160 406 167 480 304 480 c 256
 426 480 432 406 432 335 c 256
 432 264 425 190 287 190 c 256
304 539 m 256
 117 539 97 440 97 335 c 256
 97 230 116 131 287 131 c 256
 474 131 495 230 495 335 c 256
 495 440 476 539 304 539 c 256
542 551 m 257
 507 586 l 257
 406 485 l 257
 441 450 l 257
 542 551 l 257
444 218 m 257
 408 182 l 257
 507 84 l 257
 542 119 l 257
 444 218 l 257
75 586 m 257
 40 551 l 257
 148 442 l 257
 184 478 l 257
 75 586 l 257
186 195 m 257
 151 230 l 257
 40 119 l 257
 75 84 l 257
 186 195 l 257
EndSplineSet
Validated: 5
EndChar

StartChar: d
Encoding: 100 100 225
Width: 636
VWidth: 0
Flags: W
PickledData: "(dp1
S'com.typemytype.robofont.layerData'
p2
(dp3
s."
LayerCount: 2
Fore
SplineSet
275 -14 m 256
 375 -14 458 52 492 100 c 257
 476 142 l 257
 419 81 363 45 287 45 c 256
 152 45 130 147 130 286 c 256
 130 425 155 527 290 527 c 256
 337 527 405 517 466 483 c 257
 488 529 l 257
 432 561 355 586 280 586 c 256
 82 586 60 441 60 286 c 256
 60 131 82 -14 275 -14 c 256
469 0 m 257
 516 0 l 257
 516 750 l 257
 446 750 l 257
 446 109 l 257
 451 84 l 257
 469 0 l 257
516 0 m 257
 576 0 l 257
 576 50 l 257
 516 50 l 257
 516 0 l 257
386 700 m 257
 446 700 l 257
 446 750 l 257
 386 750 l 257
 386 700 l 257
EndSplineSet
Validated: 5
EndChar

StartChar: d.alt
Encoding: 65562 -1 226
Width: 636
VWidth: 0
Flags: W
PickledData: "(dp1
S'com.typemytype.robofont.layerData'
p2
(dp3
s."
LayerCount: 2
Fore
SplineSet
275 -14 m 256
 375 -14 458 52 492 100 c 257
 476 142 l 257
 419 81 363 45 287 45 c 256
 152 45 130 135 130 258 c 256
 130 382 155 477 290 477 c 256
 337 477 405 467 466 433 c 257
 488 479 l 257
 432 511 355 536 280 536 c 256
 82 536 60 403 60 261 c 256
 60 119 82 -14 275 -14 c 256
469 0 m 257
 516 0 l 257
 516 750 l 257
 446 750 l 257
 446 109 l 257
 451 84 l 257
 469 0 l 257
516 0 m 257
 576 0 l 257
 576 50 l 257
 516 50 l 257
 516 0 l 257
EndSplineSet
Validated: 5
EndChar

StartChar: da_ddha_ra_yadeva
Encoding: 65563 -1 227
Width: 1416
VWidth: 0
Flags: W
PickledData: "(dp1
S'com.typemytype.robofont.layerData'
p2
(dp3
s."
AnchorPoint: "Anchor-0" 1266 30 basechar 0
AnchorPoint: "Anchor-0" 1266 30 basechar 0
LayerCount: 2
Fore
SplineSet
681 485 m 257
 855 485 l 258
 928 485 958 462 958 412 c 256
 958 373 932 334 830 334 c 258
 774 334 l 257
 793 286 l 257
 830 286 l 258
 963 286 1028 337 1028 415 c 256
 1028 487 988 535 855 535 c 258
 681 535 l 257
 681 485 l 257
1027 98 m 256
 1133 98 1211 136 1266 202 c 257
 1266 265 l 257
 1222 207 1145 156 1027 156 c 256
 900 156 844 223 844 334 c 257
 774 334 l 257
 774 186 861 98 1027 98 c 256
681 680 m 257
 1426 680 l 257
 1426 730 l 257
 681 730 l 257
 681 680 l 257
1231 0 m 257
 1301 0 l 257
 1301 680 l 257
 1231 680 l 257
 1231 0 l 257
360 209 m 257
 319 191 293 157 293 103 c 256
 293 25 342 -26 452 -26 c 256
 537 -26 625 15 684 93 c 257
 654 134 l 257
 614 76 534 30 454 30 c 256
 389 30 364 59 364 105 c 256
 364 141 382 166 411 176 c 257
 360 209 l 257
652 185 m 257
 692 206 699 225 699 248 c 256
 699 293 646 329 591 329 c 256
 540 329 528 294 572 205 c 258
 755 -158 l 257
 817 -128 l 257
 652 185 l 257
642 266 m 257
 619 229 575 205 501 205 c 256
 392 205 347 256 347 345 c 256
 347 445 413 485 536 485 c 258
 681 485 l 257
 681 730 l 257
 -10 730 l 257
 -10 680 l 257
 611 680 l 257
 611 535 l 257
 527 535 l 258
 361 535 277 468 277 345 c 256
 277 227 345 146 495 146 c 256
 554 146 638 167 673 205 c 257
 642 266 l 257
248 290 m 257
 218 304 187 309 160 309 c 256
 70 309 32 258 32 195 c 256
 32 103 114 30 328 30 c 257
 339 84 l 257
 168 84 102 131 102 195 c 256
 102 231 122 257 169 257 c 256
 187 257 217 252 239 239 c 257
 248 290 l 257
720 -20 m 257
 539 -109 l 257
 567 -165 l 257
 720 -88 l 257
 720 -20 l 257
EndSplineSet
Validated: 37
Ligature2: "'cjct' Conjunct Forms lookup 11 subtable" dadeva_viramadeva dhadeva_viramadeva_radeva viramadeva yadeva
Ligature2: "'cjct' Conjunct Forms lookup 11 subtable" dadeva_viramadeva_dhadeva viramadeva_radeva viramadeva yadeva
EndChar

StartChar: dadeva
Encoding: 2342 2342 228
Width: 610
VWidth: 0
Flags: W
PickledData: "(dp1
S'com.typemytype.robofont.layerData'
p2
(dp3
s."
AnchorPoint: "Anchor-1" 460 730 basechar 0
AnchorPoint: "Anchor-0" 510 10 basechar 0
AnchorPoint: "Anchor-1" 460 730 basechar 0
AnchorPoint: "Anchor-0" 510 10 basechar 0
LayerCount: 2
Fore
SplineSet
466 155 m 257
 506 176 513 195 513 218 c 256
 513 263 460 299 405 299 c 256
 354 299 342 264 386 175 c 258
 492 -39 l 257
 554 -9 l 257
 466 155 l 257
456 236 m 257
 430 199 380 175 296 175 c 256
 172 175 121 223 121 336 c 256
 121 442 173 485 310 485 c 258
 495 485 l 257
 495 730 l 257
 -10 730 l 257
 -10 680 l 257
 425 680 l 257
 425 535 l 257
 309 535 l 258
 123 535 51 475 51 336 c 256
 51 184 126 116 291 116 c 256
 356 116 449 137 487 175 c 257
 456 236 l 257
495 680 m 257
 620 680 l 257
 620 730 l 257
 495 730 l 257
 495 680 l 257
EndSplineSet
Validated: 37
EndChar

StartChar: dadeva_viramadeva_badeva
Encoding: 65566 -1 231
Width: 610
VWidth: 0
Flags: W
PickledData: "(dp1
S'com.typemytype.robofont.layerData'
p2
(dp3
s."
AnchorPoint: "Anchor-0" 510 10 basechar 0
AnchorPoint: "Anchor-0" 510 10 basechar 0
LayerCount: 2
Fore
SplineSet
343 -33 m 257
 375 -8 l 257
 261 162 l 257
 229 137 l 257
 343 -33 l 257
EndSplineSet
Refer: 240 -1 N 1 0 0 1 0 0 2
Validated: 5
Ligature2: "'pres' Pre Base Substitutions lookup 12 subtable" dadeva_viramadeva badeva
Ligature2: "'cjct' Conjunct Forms lookup 11 subtable" dadeva viramadeva badeva
Ligature2: "'locl' Localized Forms lookup 2 subtable" dadeva viramadeva badeva
EndChar

StartChar: dadeva_viramadeva_bhadeva
Encoding: 65567 -1 232
Width: 800
VWidth: 0
Flags: W
PickledData: "(dp1
S'com.typemytype.robofont.layerData'
p2
(dp3
s."
AnchorPoint: "Anchor-0" 700 10 basechar 0
AnchorPoint: "Anchor-0" 700 10 basechar 0
LayerCount: 2
Fore
SplineSet
238 164 m 257
 221 202 194 239 147 239 c 256
 85 239 18 205 18 132 c 256
 18 67 72 30 128 25 c 257
 140 76 l 257
 107 81 82 111 82 143 c 256
 82 171 111 187 133 187 c 256
 159 187 171 170 185 140 c 257
 238 164 l 257
314 -2 m 257
 238 164 l 257
 185 140 l 257
 261 -26 l 257
 314 -2 l 257
656 155 m 257
 696 176 703 195 703 218 c 256
 703 263 650 299 595 299 c 256
 544 299 532 264 576 175 c 258
 682 -39 l 257
 744 -9 l 257
 656 155 l 257
685 680 m 257
 810 680 l 257
 810 730 l 257
 685 730 l 257
 685 680 l 257
646 236 m 257
 623 199 579 175 505 175 c 256
 396 175 351 223 351 336 c 256
 351 442 397 485 520 485 c 258
 685 485 l 257
 685 730 l 257
 -10 730 l 257
 -10 680 l 257
 615 680 l 257
 615 535 l 257
 511 535 l 258
 345 535 281 465 281 336 c 256
 281 194 349 116 499 116 c 256
 558 116 642 137 677 175 c 257
 646 236 l 257
619 195 m 257
 200 0 l 258
 181 -9 175 -17 175 -31 c 256
 175 -84 247 -104 292 -104 c 256
 310 -104 359 -101 344 -68 c 258
 314 -2 l 257
 619 140 l 257
 619 195 l 257
EndSplineSet
Validated: 37
Ligature2: "'pres' Pre Base Substitutions lookup 12 subtable" dadeva_viramadeva bhadeva
Ligature2: "'cjct' Conjunct Forms lookup 11 subtable" dadeva viramadeva bhadeva
Ligature2: "'locl' Localized Forms lookup 2 subtable" dadeva viramadeva bhadeva
EndChar

StartChar: dadeva_viramadeva_dadeva
Encoding: 65568 -1 233
Width: 621
VWidth: 0
Flags: W
PickledData: "(dp1
S'com.typemytype.robofont.layerData'
p2
(dp3
s."
AnchorPoint: "Anchor-0" 542 -64 basechar 0
AnchorPoint: "Anchor-0" 542 -64 basechar 0
LayerCount: 2
Fore
SplineSet
243 325 m 257
 174 345 143 380 143 425 c 256
 143 471 174 506 261 506 c 257
 261 566 l 257
 132 566 73 504 73 422 c 256
 73 342 122 303 200 277 c 257
 243 325 l 257
495 566 m 257
 495 680 l 257
 631 680 l 257
 631 730 l 257
 -10 730 l 257
 -10 680 l 257
 425 680 l 257
 425 566 l 257
 495 566 l 257
261 506 m 257
 495 506 l 257
 495 566 l 257
 261 566 l 257
 261 506 l 257
543 136 m 256
 543 182 490 217 438 217 c 256
 408 217 393 200 393 176 c 256
 393 155 400 130 419 85 c 257
 384 63 339 50 297 50 c 256
 217 50 171 97 171 171 c 256
 171 240 222 296 359 296 c 257
 359 346 l 257
 183 346 101 274 101 171 c 256
 101 67 161 -8 292 -8 c 256
 388 -8 543 43 543 136 c 256
430 63 m 257
 510 -96 l 257
 572 -66 l 257
 498 70 l 257
 430 63 l 257
EndSplineSet
Validated: 5
Ligature2: "'pres' Pre Base Substitutions lookup 12 subtable" dadeva_viramadeva dadeva
Ligature2: "'cjct' Conjunct Forms lookup 11 subtable" dadeva viramadeva dadeva
Ligature2: "'locl' Localized Forms lookup 2 subtable" dadeva viramadeva dadeva
EndChar

StartChar: dadeva_viramadeva_dhadeva
Encoding: 65569 -1 234
Width: 793
VWidth: 0
Flags: W
PickledData: "(dp1
S'com.typemytype.robofont.layerData'
p2
(dp3
s."
AnchorPoint: "Anchor-0" 693 10 basechar 0
AnchorPoint: "Anchor-0" 693 10 basechar 0
LayerCount: 2
Fore
SplineSet
357 179 m 257
 316 161 290 127 290 73 c 256
 290 -5 339 -56 449 -56 c 256
 534 -56 622 -15 681 63 c 257
 653 102 l 257
 613 45 532 0 451 0 c 256
 386 0 361 29 361 75 c 256
 361 111 379 136 408 146 c 257
 357 179 l 257
649 155 m 257
 689 176 696 195 696 218 c 256
 696 263 643 299 588 299 c 256
 537 299 525 264 569 175 c 258
 675 -39 l 257
 737 -9 l 257
 649 155 l 257
639 236 m 257
 616 199 572 175 498 175 c 256
 351 175 290 223 290 336 c 256
 290 442 341 485 478 485 c 258
 567 485 l 257
 567 730 l 257
 -13 730 l 257
 -13 680 l 257
 497 680 l 257
 497 535 l 257
 450 535 l 258
 284 535 220 465 220 336 c 256
 220 194 305 116 492 116 c 256
 551 116 635 137 670 175 c 257
 639 236 l 257
567 680 m 257
 803 680 l 257
 803 730 l 257
 567 730 l 257
 567 680 l 257
200 274 m 257
 185 278 170 279 157 279 c 256
 67 279 29 228 29 165 c 256
 29 73 111 0 325 0 c 257
 336 54 l 257
 165 54 99 101 99 165 c 256
 99 201 119 227 166 227 c 256
 174 227 185 226 196 224 c 257
 200 274 l 257
EndSplineSet
Validated: 37
Ligature2: "'pres' Pre Base Substitutions lookup 12 subtable" dadeva_viramadeva dhadeva
Ligature2: "'cjct' Conjunct Forms lookup 11 subtable" dadeva viramadeva dhadeva
Ligature2: "'locl' Localized Forms lookup 2 subtable" dadeva viramadeva dhadeva
EndChar

StartChar: dadeva_viramadeva_gadeva
Encoding: 65570 -1 235
Width: 610
VWidth: 0
Flags: W
PickledData: "(dp1
S'com.typemytype.robofont.layerData'
p2
(dp3
s."
AnchorPoint: "Anchor-0" 510 10 basechar 0
AnchorPoint: "Anchor-0" 510 10 basechar 0
LayerCount: 2
Fore
SplineSet
261 159 m 257
 203 159 l 257
 203 58 l 257
 161 58 l 258
 145 58 140 51 140 30 c 256
 140 -23 212 -61 240 -61 c 256
 252 -61 261 -57 261 -42 c 258
 261 159 l 257
EndSplineSet
Refer: 228 2342 N 1 0 0 1 0 0 2
Validated: 5
Ligature2: "'pres' Pre Base Substitutions lookup 12 subtable" dadeva_viramadeva gadeva
Ligature2: "'cjct' Conjunct Forms lookup 11 subtable" dadeva viramadeva gadeva
Ligature2: "'locl' Localized Forms lookup 2 subtable" dadeva viramadeva gadeva
EndChar

StartChar: dadeva_viramadeva_ghadeva
Encoding: 65571 -1 236
Width: 710
VWidth: 0
Flags: W
PickledData: "(dp1
S'com.typemytype.robofont.layerData'
p2
(dp3
s."
AnchorPoint: "Anchor-0" 610 10 basechar 0
AnchorPoint: "Anchor-0" 610 10 basechar 0
LayerCount: 2
Fore
SplineSet
267 174 m 257
 230 157 207 124 207 73 c 256
 207 -5 256 -56 366 -56 c 256
 451 -56 539 -15 598 63 c 257
 570 102 l 257
 530 45 449 0 368 0 c 256
 303 0 278 29 278 75 c 256
 278 111 296 136 325 146 c 257
 267 174 l 257
566 155 m 257
 606 176 613 195 613 218 c 256
 613 263 560 299 505 299 c 256
 454 299 442 264 486 175 c 258
 592 -39 l 257
 654 -9 l 257
 566 155 l 257
556 236 m 257
 530 199 480 175 396 175 c 256
 272 175 221 223 221 336 c 256
 221 442 273 485 410 485 c 258
 567 485 l 257
 567 730 l 257
 -13 730 l 257
 -13 680 l 257
 497 680 l 257
 497 535 l 257
 409 535 l 258
 223 535 151 475 151 336 c 256
 151 184 226 116 391 116 c 256
 456 116 549 137 587 175 c 257
 556 236 l 257
567 680 m 257
 720 680 l 257
 720 730 l 257
 567 730 l 257
 567 680 l 257
274 180 m 257
 244 162 207 150 166 150 c 256
 100 150 69 186 69 235 c 256
 69 277 100 311 167 311 c 256
 173 311 179 311 185 310 c 257
 182 364 l 257
 173 365 164 365 154 365 c 256
 46 365 -1 307 -1 235 c 256
 -1 158 42 96 155 96 c 256
 230 96 292 124 330 164 c 257
 274 180 l 257
EndSplineSet
Validated: 37
Ligature2: "'pres' Pre Base Substitutions lookup 12 subtable" dadeva_viramadeva ghadeva
Ligature2: "'cjct' Conjunct Forms lookup 11 subtable" dadeva viramadeva ghadeva
Ligature2: "'locl' Localized Forms lookup 2 subtable" dadeva viramadeva ghadeva
EndChar

StartChar: dadeva_viramadeva_madeva
Encoding: 65572 -1 237
Width: 799
VWidth: 0
Flags: W
PickledData: "(dp1
S'com.typemytype.robofont.layerData'
p2
(dp3
s."
LayerCount: 2
Fore
SplineSet
312 354 m 257
 312 190 l 257
 266 190 l 258
 244 190 238 181 238 152 c 256
 238 97 326 46 356 46 c 256
 368 46 379 49 379 67 c 258
 379 140 l 257
 614 140 l 257
 614 0 l 257
 684 0 l 257
 684 680 l 257
 809 680 l 257
 809 730 l 257
 379 730 l 257
 379 680 l 257
 614 680 l 257
 614 190 l 257
 379 190 l 257
 379 354 l 257
 312 354 l 257
123 439 m 256
 123 483 147 524 207 524 c 258
 379 524 l 257
 379 578 l 257
 191 578 l 258
 104 578 53 525 53 439 c 256
 53 353 104 300 191 300 c 258
 312 300 l 257
 312 354 l 257
 207 354 l 258
 147 354 123 395 123 439 c 256
379 578 m 257
 379 730 l 257
 -10 730 l 257
 -10 680 l 257
 309 680 l 257
 309 578 l 257
 379 578 l 257
EndSplineSet
Validated: 5
Ligature2: "'pres' Pre Base Substitutions lookup 12 subtable" dadeva_viramadeva madeva
Ligature2: "'cjct' Conjunct Forms lookup 11 subtable" dadeva viramadeva madeva
Ligature2: "'locl' Localized Forms lookup 2 subtable" dadeva viramadeva madeva
EndChar

StartChar: dadeva_viramadeva_vadeva
Encoding: 65575 -1 240
Width: 610
VWidth: 0
Flags: W
PickledData: "(dp1
S'com.typemytype.robofont.layerData'
p2
(dp3
s."
AnchorPoint: "Anchor-0" 510 10 basechar 0
AnchorPoint: "Anchor-0" 510 10 basechar 0
LayerCount: 2
Fore
SplineSet
167 174 m 257
 130 157 107 124 107 73 c 256
 107 -5 156 -56 266 -56 c 256
 351 -56 439 -15 498 63 c 257
 470 102 l 257
 430 45 349 0 268 0 c 256
 203 0 178 29 178 75 c 256
 178 111 196 136 225 146 c 257
 167 174 l 257
466 155 m 257
 506 176 513 195 513 218 c 256
 513 263 460 299 405 299 c 256
 354 299 342 264 386 175 c 258
 492 -39 l 257
 554 -9 l 257
 466 155 l 257
456 236 m 257
 430 199 380 175 296 175 c 256
 172 175 121 223 121 336 c 256
 121 442 173 485 310 485 c 258
 495 485 l 257
 495 730 l 257
 -10 730 l 257
 -10 680 l 257
 425 680 l 257
 425 535 l 257
 309 535 l 258
 123 535 51 475 51 336 c 256
 51 184 126 116 291 116 c 256
 356 116 449 137 487 175 c 257
 456 236 l 257
495 680 m 257
 620 680 l 257
 620 730 l 257
 495 730 l 257
 495 680 l 257
EndSplineSet
Validated: 37
Ligature2: "'pres' Pre Base Substitutions lookup 12 subtable" dadeva_viramadeva vadeva
Ligature2: "'cjct' Conjunct Forms lookup 11 subtable" dadeva viramadeva vadeva
Ligature2: "'locl' Localized Forms lookup 2 subtable" dadeva viramadeva vadeva
EndChar

StartChar: dadeva_viramadeva_yadeva
Encoding: 65576 -1 241
Width: 799
VWidth: 0
Flags: W
PickledData: "(dp1
S'com.typemytype.robofont.layerData'
p2
(dp3
s."
LayerCount: 2
Fore
SplineSet
364 21 m 256
 478 21 572 64 640 148 c 257
 640 227 l 257
 576 132 477 79 364 79 c 256
 268 79 218 123 218 206 c 256
 218 284 267 326 377 326 c 258
 437 326 l 257
 437 376 l 257
 377 376 l 258
 225 376 148 319 148 207 c 256
 148 86 224 21 364 21 c 256
204 272 m 257
 240 323 l 257
 173 343 143 379 143 425 c 256
 143 471 174 506 261 506 c 257
 261 566 l 257
 132 566 73 504 73 422 c 256
 73 339 123 299 204 272 c 257
375 566 m 257
 445 566 l 257
 445 680 l 257
 615 680 l 257
 615 730 l 257
 -10 730 l 257
 -10 680 l 257
 375 680 l 257
 375 566 l 257
614 0 m 257
 684 0 l 257
 684 680 l 257
 809 680 l 257
 809 730 l 257
 520 730 l 257
 520 680 l 257
 614 680 l 257
 614 0 l 257
261 506 m 257
 445 506 l 257
 445 566 l 257
 261 566 l 257
 261 506 l 257
EndSplineSet
Validated: 5
Ligature2: "'pres' Pre Base Substitutions lookup 12 subtable" dadeva_viramadeva yadeva
Ligature2: "'cjct' Conjunct Forms lookup 11 subtable" dadeva viramadeva yadeva
Ligature2: "'locl' Localized Forms lookup 2 subtable" dadeva viramadeva yadeva
EndChar

StartChar: dagger
Encoding: 8224 8224 242
Width: 440
VWidth: 0
Flags: W
PickledData: "(dp1
S'com.typemytype.robofont.layerData'
p2
(dp3
s."
LayerCount: 2
Fore
SplineSet
178 730 m 257
 196 0 l 257
 244 0 l 257
 262 730 l 257
 178 730 l 257
20 496 m 257
 96 496 l 257
 188 508 l 257
 188 560 l 257
 96 572 l 257
 20 572 l 257
 20 496 l 257
420 572 m 257
 344 572 l 257
 252 560 l 257
 252 508 l 257
 344 496 l 257
 420 496 l 257
 420 572 l 257
EndSplineSet
Validated: 5
EndChar

StartChar: daggerdbl
Encoding: 8225 8225 243
Width: 440
VWidth: 0
Flags: W
PickledData: "(dp1
S'com.typemytype.robofont.layerData'
p2
(dp3
s."
LayerCount: 2
Fore
SplineSet
178 730 m 257
 196 365 l 257
 244 365 l 257
 262 730 l 257
 178 730 l 257
20 496 m 257
 96 496 l 257
 198 508 l 257
 198 560 l 257
 96 572 l 257
 20 572 l 257
 20 496 l 257
420 572 m 257
 344 572 l 257
 242 560 l 257
 242 508 l 257
 344 496 l 257
 420 496 l 257
 420 572 l 257
262 0 m 257
 244 365 l 257
 196 365 l 257
 178 0 l 257
 262 0 l 257
420 234 m 257
 344 234 l 257
 242 222 l 257
 242 170 l 257
 344 158 l 257
 420 158 l 257
 420 234 l 257
20 158 m 257
 96 158 l 257
 198 170 l 257
 198 222 l 257
 96 234 l 257
 20 234 l 257
 20 158 l 257
EndSplineSet
Validated: 5
EndChar

StartChar: danda
Encoding: 2404 2404 244
Width: 375
VWidth: 0
Flags: W
PickledData: "(dp1
S'com.typemytype.robofont.layerData'
p2
(dp3
s."
LayerCount: 2
Fore
SplineSet
190 0 m 257
 190 730 l 257
 260 730 l 257
 260 0 l 257
 190 0 l 257
EndSplineSet
Validated: 1
EndChar

StartChar: dbldanda
Encoding: 2405 2405 245
Width: 585
VWidth: 0
Flags: W
PickledData: "(dp1
S'com.typemytype.robofont.layerData'
p2
(dp3
s."
LayerCount: 2
Fore
SplineSet
190 0 m 257
 190 730 l 257
 260 730 l 257
 260 0 l 257
 190 0 l 257
400 0 m 257
 400 730 l 257
 470 730 l 257
 470 0 l 257
 400 0 l 257
EndSplineSet
Validated: 1
EndChar

StartChar: ddadeva
Encoding: 2337 2337 248
Width: 700
VWidth: 0
Flags: W
PickledData: "(dp1
S'com.typemytype.robofont.layerData'
p2
(dp3
s."
AnchorPoint: "Anchor-1" 460 730 basechar 0
AnchorPoint: "Anchor-0" 318 30 basechar 0
AnchorPoint: "Anchor-1" 531 730 basechar 0
AnchorPoint: "Anchor-0" 368 30 basechar 0
LayerCount: 2
Fore
SplineSet
72 136 m 257
 111 40 202 -15 368 -15 c 256
 564 -15 643 67 643 183 c 256
 643 294 564 372 371 372 c 256
 319 372 270 361 227 346 c 257
 177 364 157 396 157 434 c 256
 157 486 195 526 300 526 c 257
 300 586 l 257
 155 586 87 520 87 433 c 256
 87 344 137 315 215 288 c 257
 259 306 312 317 361 317 c 256
 497 317 574 270 574 183 c 256
 574 90 498 43 368 43 c 256
 244 43 166 79 133 156 c 257
 72 136 l 257
566 586 m 257
 566 680 l 257
 712 680 l 257
 712 730 l 257
 -11 730 l 257
 -11 680 l 257
 496 680 l 257
 496 586 l 257
 566 586 l 257
300 526 m 257
 566 526 l 257
 566 586 l 257
 300 586 l 257
 300 526 l 257
EndSplineSet
Validated: 5
EndChar

StartChar: ddadeva_viramadeva_ddadeva
Encoding: 65578 -1 250
Width: 699
VWidth: 0
Flags: W
PickledData: "(dp1
S'com.typemytype.robofont.layerData'
p2
(dp3
s."
AnchorPoint: "Anchor-0" 318 -185 basechar 0
AnchorPoint: "Anchor-0" 318 -185 basechar 0
LayerCount: 2
Fore
SplineSet
71 275 m 257
 110 199 201 161 367 161 c 256
 563 161 642 221 642 306 c 256
 642 388 563 446 370 446 c 256
 318 446 269 439 226 430 c 257
 176 440 156 461 156 486 c 256
 156 519 186 543 272 543 c 257
 272 593 l 257
 145 593 86 545 86 484 c 256
 86 416 136 386 214 372 c 257
 257 385 310 392 359 392 c 256
 496 392 573 362 573 306 c 256
 573 247 497 218 367 218 c 256
 243 218 165 244 132 295 c 257
 71 275 l 257
565 593 m 257
 565 680 l 257
 711 680 l 257
 711 730 l 257
 -12 730 l 257
 -12 680 l 257
 495 680 l 257
 495 593 l 257
 565 593 l 257
272 543 m 257
 565 543 l 257
 565 593 l 257
 272 593 l 257
 272 543 l 257
71 -102 m 257
 110 -178 201 -216 367 -216 c 256
 563 -216 642 -156 642 -71 c 256
 642 11 563 69 370 69 c 256
 318 69 269 62 226 53 c 257
 176 63 156 84 156 109 c 256
 156 142 186 166 272 166 c 257
 272 216 l 257
 145 216 86 168 86 107 c 256
 86 39 136 9 214 -5 c 257
 257 8 310 15 359 15 c 256
 496 15 573 -15 573 -71 c 256
 573 -130 497 -159 367 -159 c 256
 243 -159 165 -133 132 -82 c 257
 71 -102 l 257
EndSplineSet
Validated: 5
Ligature2: "'pres' Pre Base Substitutions lookup 12 subtable" ddadeva_viramadeva ddadeva
Ligature2: "'locl' Localized Forms lookup 2 subtable" ddadeva viramadeva ddadeva
EndChar

StartChar: ddadeva_viramadeva_ddhadeva
Encoding: 65579 -1 251
Width: 699
VWidth: 0
Flags: W
PickledData: "(dp1
S'com.typemytype.robofont.layerData'
p2
(dp3
s."
AnchorPoint: "Anchor-0" 359 -185 basechar 0
AnchorPoint: "Anchor-0" 359 -185 basechar 0
LayerCount: 2
Fore
SplineSet
71 254 m 257
 110 178 201 140 367 140 c 256
 563 140 642 205 642 296 c 256
 642 378 563 436 367 436 c 256
 314 436 289 433 226 420 c 257
 176 430 156 451 156 476 c 256
 156 509 186 533 272 533 c 257
 272 583 l 257
 145 583 86 535 86 474 c 256
 86 406 136 376 214 362 c 257
 257 375 310 382 359 382 c 256
 496 382 573 352 573 296 c 256
 573 230 497 197 367 197 c 256
 243 197 165 223 132 274 c 257
 71 254 l 257
565 583 m 257
 565 680 l 257
 711 680 l 257
 711 730 l 257
 -12 730 l 257
 -12 680 l 257
 495 680 l 257
 495 583 l 257
 565 583 l 257
272 533 m 257
 565 533 l 257
 565 583 l 257
 272 583 l 257
 272 533 l 257
608 -67 m 256
 608 -7 568 48 465 48 c 256
 361 48 322 -7 322 -67 c 256
 322 -118 345 -176 458 -183 c 257
 517 -149 l 257
 406 -144 386 -106 386 -67 c 256
 386 -33 403 0 464 0 c 256
 525 0 543 -33 543 -67 c 256
 543 -122 496 -162 359 -162 c 256
 233 -162 181 -116 181 -17 c 256
 181 102 252 140 367 140 c 257
 366 179 l 257
 202 179 111 123 111 -17 c 256
 111 -153 189 -215 359 -215 c 256
 538 -215 608 -151 608 -67 c 256
EndSplineSet
Validated: 5
Ligature2: "'pres' Pre Base Substitutions lookup 12 subtable" ddadeva_viramadeva ddhadeva
Ligature2: "'locl' Localized Forms lookup 2 subtable" ddadeva viramadeva ddhadeva
EndChar

StartChar: ddadeva_viramadeva_yadeva
Encoding: 65580 -1 252
Width: 1280
VWidth: 0
Flags: W
PickledData: "(dp1
S'com.typemytype.robofont.layerData'
p2
(dp3
s."
AnchorPoint: "Anchor-0" 1130 30 basechar 0
AnchorPoint: "Anchor-0" 1130 30 basechar 0
LayerCount: 2
Fore
SplineSet
495 526 m 257
 724 526 l 258
 796 526 822 481 822 430 c 256
 822 382 796 334 694 334 c 258
 638 334 l 257
 657 286 l 257
 694 286 l 258
 827 286 892 344 892 433 c 256
 892 500 858 586 738 586 c 258
 495 586 l 257
 495 526 l 257
891 98 m 256
 997 98 1075 136 1130 202 c 257
 1130 265 l 257
 1086 207 1009 156 891 156 c 256
 764 156 708 223 708 334 c 257
 638 334 l 257
 638 186 725 98 891 98 c 256
600 680 m 257
 1290 680 l 257
 1290 730 l 257
 600 730 l 257
 600 680 l 257
1095 0 m 257
 1165 0 l 257
 1165 680 l 257
 1095 680 l 257
 1095 0 l 257
59 136 m 257
 94 40 177 -15 318 -15 c 256
 492 -15 560 67 560 183 c 256
 560 294 492 372 323 372 c 256
 279 372 238 361 202 346 c 257
 161 364 143 396 143 434 c 256
 143 486 174 526 261 526 c 257
 261 586 l 257
 132 586 73 520 73 433 c 256
 73 344 118 315 188 288 c 257
 225 306 270 317 312 317 c 256
 427 317 491 270 491 183 c 256
 491 90 428 43 318 43 c 256
 214 43 148 79 120 156 c 257
 59 136 l 257
495 586 m 257
 495 680 l 257
 735 680 l 257
 735 730 l 257
 -10 730 l 257
 -10 680 l 257
 425 680 l 257
 425 586 l 257
 495 586 l 257
261 526 m 257
 495 526 l 257
 495 586 l 257
 261 586 l 257
 261 526 l 257
EndSplineSet
Validated: 5
Ligature2: "'pres' Pre Base Substitutions lookup 12 subtable" ddadeva_viramadeva yadeva
Ligature2: "'locl' Localized Forms lookup 2 subtable" ddadeva viramadeva yadeva
EndChar

StartChar: dddadeva
Encoding: 2430 2430 253
Width: 610
VWidth: 0
Flags: W
PickledData: "(dp1
S'com.typemytype.robofont.layerData'
p2
(dp3
s."
AnchorPoint: "Anchor-1" 460 730 basechar 0
AnchorPoint: "Anchor-1" 460 730 basechar 0
LayerCount: 2
Fore
SplineSet
30 -120 m 257
 580 -120 l 257
 580 -70 l 257
 30 -70 l 257
 30 -120 l 257
EndSplineSet
Refer: 248 2337 N 1 0 0 1 1 0 2
Validated: 5
EndChar

StartChar: ddhadeva
Encoding: 2338 2338 255
Width: 653
VWidth: 0
Flags: W
PickledData: "(dp1
S'com.typemytype.robofont.layerData'
p2
(dp3
s."
AnchorPoint: "Anchor-1" 461 730 basechar 0
AnchorPoint: "Anchor-0" 300 46 basechar 0
AnchorPoint: "Anchor-1" 494 730 basechar 0
AnchorPoint: "Anchor-0" 320 46 basechar 0
LayerCount: 2
Fore
SplineSet
528 680 m 257
 663 680 l 257
 663 730 l 257
 528 730 l 257
 528 680 l 257
585 225 m 256
 585 309 570 386 432 386 c 256
 294 386 280 309 280 225 c 256
 280 146 295 77 424 46 c 257
 449 92 l 257
 349 115 343 168 343 225 c 256
 343 284 347 336 431 336 c 256
 516 336 521 284 521 225 c 256
 521 141 469 75 320 75 c 256
 183 75 126 141 126 296 c 256
 126 435 183 475 332 475 c 258
 528 475 l 257
 528 730 l 257
 -10 730 l 257
 -10 680 l 257
 459 680 l 257
 459 534 l 257
 331 534 l 258
 133 534 56 466 56 296 c 256
 56 103 139 16 320 16 c 256
 519 16 585 110 585 225 c 256
EndSplineSet
Validated: 5
EndChar

StartChar: ddhadeva_viramadeva_ddhadeva
Encoding: 65582 -1 257
Width: 610
VWidth: 0
Flags: W
PickledData: "(dp1
S'com.typemytype.robofont.layerData'
p2
(dp3
s."
AnchorPoint: "Anchor-0" 299 -185 basechar 0
AnchorPoint: "Anchor-0" 299 -185 basechar 0
LayerCount: 2
Fore
SplineSet
495 680 m 257
 620 680 l 257
 620 730 l 257
 495 730 l 257
 495 680 l 257
548 390 m 256
 548 446 534 497 405 497 c 256
 275 497 262 446 262 390 c 256
 262 335 276 285 398 266 c 257
 457 300 l 257
 333 314 325 347 325 390 c 256
 325 426 329 449 404 449 c 256
 480 449 484 426 484 390 c 256
 484 330 436 287 299 287 c 256
 173 287 121 331 121 427 c 256
 121 516 173 544 310 544 c 258
 495 544 l 257
 495 730 l 257
 -10 730 l 257
 -10 680 l 257
 425 680 l 257
 425 600 l 257
 309 600 l 258
 123 600 51 551 51 427 c 256
 51 294 129 234 299 234 c 256
 487 234 548 301 548 390 c 256
548 -59 m 256
 548 -3 534 48 405 48 c 256
 275 48 262 -3 262 -59 c 256
 262 -114 276 -164 398 -183 c 257
 457 -149 l 257
 333 -135 325 -102 325 -59 c 256
 325 -23 329 0 404 0 c 256
 480 0 484 -23 484 -59 c 256
 484 -119 436 -162 299 -162 c 256
 173 -162 121 -118 121 -22 c 256
 121 67 173 95 310 95 c 258
 495 95 l 257
 495 311 l 257
 425 281 l 257
 425 151 l 257
 309 151 l 258
 123 151 51 102 51 -22 c 256
 51 -155 129 -215 299 -215 c 256
 487 -215 548 -148 548 -59 c 256
EndSplineSet
Validated: 5
Ligature2: "'pres' Pre Base Substitutions lookup 12 subtable" ddhadeva_viramadeva ddhadeva
Ligature2: "'locl' Localized Forms lookup 2 subtable" ddhadeva viramadeva ddhadeva
EndChar

StartChar: ddhadeva_viramadeva_yadeva
Encoding: 65583 -1 258
Width: 1313
VWidth: 0
Flags: W
PickledData: "(dp1
S'com.typemytype.robofont.layerData'
p2
(dp3
s."
LayerCount: 2
Fore
SplineSet
528 455 m 257
 612 495 679 515 757 515 c 256
 829 515 855 475 855 430 c 256
 855 382 829 334 727 334 c 258
 671 334 l 257
 690 286 l 257
 727 286 l 258
 860 286 925 344 925 433 c 256
 925 494 891 572 771 572 c 256
 698 572 628 559 528 509 c 257
 528 455 l 257
924 98 m 256
 1030 98 1108 136 1163 202 c 257
 1163 265 l 257
 1119 207 1042 156 924 156 c 256
 797 156 741 223 741 334 c 257
 671 334 l 257
 671 186 758 98 924 98 c 256
633 680 m 257
 1323 680 l 257
 1323 730 l 257
 633 730 l 257
 633 680 l 257
1128 0 m 257
 1198 0 l 257
 1198 680 l 257
 1128 680 l 257
 1128 0 l 257
528 680 m 257
 663 680 l 257
 663 730 l 257
 528 730 l 257
 528 680 l 257
585 225 m 256
 585 299 570 366 432 366 c 256
 294 366 280 299 280 225 c 256
 280 146 295 77 424 46 c 257
 449 92 l 257
 349 115 343 168 343 225 c 256
 343 273 347 316 431 316 c 256
 516 316 521 273 521 225 c 256
 521 141 469 75 320 75 c 256
 183 75 126 141 126 296 c 256
 126 419 183 455 332 455 c 258
 528 455 l 257
 528 730 l 257
 -10 730 l 257
 -10 680 l 257
 459 680 l 257
 459 514 l 257
 331 514 l 258
 133 514 56 452 56 296 c 256
 56 103 139 16 320 16 c 256
 519 16 585 110 585 225 c 256
EndSplineSet
Validated: 5
Ligature2: "'pres' Pre Base Substitutions lookup 12 subtable" ddhadeva_viramadeva yadeva
Ligature2: "'locl' Localized Forms lookup 2 subtable" ddhadeva viramadeva yadeva
EndChar

StartChar: degree
Encoding: 176 176 259
Width: 425
VWidth: 0
Flags: W
PickledData: "(dp1
S'com.typemytype.robofont.layerData'
p2
(dp3
s."
LayerCount: 2
Fore
SplineSet
212 391 m 256
 116 391 111 456 111 525 c 256
 111 594 116 659 212 659 c 256
 308 659 313 594 313 525 c 256
 313 456 308 391 212 391 c 256
212 340 m 256
 361 340 377 430 377 525 c 256
 377 621 361 710 212 710 c 256
 64 710 48 621 48 525 c 256
 48 430 64 340 212 340 c 256
EndSplineSet
Validated: 9
EndChar

StartChar: dhadeva
Encoding: 2343 2343 260
Width: 678
VWidth: 0
Flags: W
PickledData: "(dp1
S'com.typemytype.robofont.layerData'
p2
(dp3
s."
AnchorPoint: "Anchor-1" 528 730 basechar 0
AnchorPoint: "Anchor-1" 528 730 basechar 0
LayerCount: 2
Fore
SplineSet
493 680 m 257
 493 0 l 257
 563 0 l 257
 563 680 l 257
 688 680 l 257
 688 730 l 257
 420 730 l 257
 420 680 l 257
 493 680 l 257
289 71 m 256
 395 71 473 126 528 212 c 257
 528 277 l 257
 484 201 407 129 289 129 c 256
 188 129 143 177 143 256 c 256
 143 324 188 376 308 376 c 258
 362 376 l 257
 362 426 l 257
 302 426 l 258
 153 426 73 372 73 257 c 256
 73 138 147 71 289 71 c 256
96 587 m 256
 96 655 131 694 194 694 c 256
 251 694 285 666 285 618 c 256
 285 576 272 547 227 524 c 257
 261 480 l 257
 321 507 351 556 351 619 c 256
 351 697 292 744 194 744 c 256
 92 744 32 686 32 587 c 256
 32 473 94 394 178 360 c 257
 212 401 l 257
 136 426 96 511 96 587 c 256
EndSplineSet
Validated: 5
EndChar

StartChar: dhadeva_viramadeva
Encoding: 65584 -1 261
Width: 415
VWidth: 0
Flags: W
PickledData: "(dp1
S'com.typemytype.robofont.layerData'
p2
(dp3
s."
LayerCount: 2
Fore
SplineSet
540 680 m 257
 540 730 l 257
 420 730 l 257
 420 680 l 257
 540 680 l 257
289 71 m 256
 411 71 502 126 565 212 c 257
 565 277 l 257
 514 201 425 129 289 129 c 256
 188 129 143 177 143 256 c 256
 143 324 188 376 308 376 c 258
 362 376 l 257
 362 426 l 257
 302 426 l 258
 153 426 73 372 73 257 c 256
 73 138 147 71 289 71 c 256
100 598 m 256
 100 659 134 694 194 694 c 256
 250 694 283 666 283 618 c 256
 283 574 268 548 231 529 c 257
 265 485 l 257
 322 511 351 551 351 619 c 256
 351 697 292 744 194 744 c 256
 92 744 32 690 32 598 c 256
 32 479 94 396 178 360 c 257
 212 401 l 257
 139 428 100 497 100 598 c 256
EndSplineSet
Validated: 5
Ligature2: "'half' Half Forms lookup 9 subtable" dhadeva viramadeva
EndChar

StartChar: dhadeva_viramadeva_radeva
Encoding: 65585 -1 262
Width: 678
VWidth: 0
Flags: W
PickledData: "(dp1
S'com.typemytype.robofont.layerData'
p2
(dp3
s."
LayerCount: 2
Fore
SplineSet
502 207 m 257
 103 -25 l 257
 133 -79 l 257
 413 101 l 257
 502 207 l 257
EndSplineSet
Refer: 260 2343 N 1 0 0 1 0 0 2
Validated: 5
Ligature2: "'vatu' Vattu Variants lookup 10 subtable" dhadeva viramadeva_radeva
EndChar

StartChar: dieresis
Encoding: 168 168 263
Width: 308
VWidth: 0
Flags: W
PickledData: "(dp1
S'com.typemytype.robofont.layerData'
p2
(dp3
s."
LayerCount: 2
Fore
SplineSet
48 672 m 256
 7 672 5 700 5 725 c 256
 5 751 7 779 48 779 c 256
 91 779 93 751 93 725 c 256
 93 700 91 672 48 672 c 256
258 672 m 256
 217 672 215 700 215 725 c 256
 215 751 217 779 258 779 c 256
 301 779 303 751 303 725 c 256
 303 700 301 672 258 672 c 256
EndSplineSet
Validated: 1
EndChar

StartChar: dieresis.case
Encoding: 65586 -1 264
Width: 308
VWidth: 0
Flags: W
PickledData: "(dp1
S'com.typemytype.robofont.layerData'
p2
(dp3
s."
LayerCount: 2
Fore
SplineSet
48 830 m 256
 7 830 5 858 5 883 c 256
 5 909 7 937 48 937 c 256
 91 937 93 909 93 883 c 256
 93 858 91 830 48 830 c 256
258 830 m 256
 217 830 215 858 215 883 c 256
 215 909 217 937 258 937 c 256
 301 937 303 909 303 883 c 256
 303 858 301 830 258 830 c 256
EndSplineSet
Validated: 1
EndChar

StartChar: divide
Encoding: 247 247 265
Width: 580
VWidth: 0
Flags: W
PickledData: "(dp1
S'com.typemytype.robofont.layerData'
p2
(dp3
s."
LayerCount: 2
Fore
SplineSet
94 288 m 257
 486 288 l 257
 486 348 l 257
 94 348 l 257
 94 288 l 257
289 91 m 256
 245 91 242 122 242 149 c 256
 242 177 245 208 289 208 c 256
 335 208 338 177 338 149 c 256
 338 122 335 91 289 91 c 256
289 418 m 256
 245 418 242 449 242 476 c 256
 242 504 245 535 289 535 c 256
 335 535 338 504 338 476 c 256
 338 449 335 418 289 418 c 256
EndSplineSet
Validated: 9
EndChar

StartChar: dollar
Encoding: 36 36 266
Width: 580
VWidth: 0
Flags: W
PickledData: "(dp1
S'com.typemytype.robofont.layerData'
p2
(dp3
s."
LayerCount: 2
Fore
SplineSet
338 295 m 258
 412 282 442 241 442 181 c 256
 442 96 410 45 292 45 c 256
 174 45 135 95 135 185 c 257
 73 181 l 257
 73 60 127 -14 292 -14 c 256
 458 -14 512 64 512 181 c 256
 512 284 462 342 338 361 c 258
 246 375 l 258
 177 386 153 429 153 489 c 256
 153 574 183 625 293 625 c 256
 403 625 440 577 440 487 c 257
 502 491 l 257
 502 612 448 684 291 684 c 256
 134 684 83 612 83 489 c 256
 83 386 128 327 246 309 c 258
 338 295 l 258
266 -74 m 257
 316 -74 l 257
 316 744 l 257
 266 744 l 257
 266 -74 l 257
EndSplineSet
Validated: 5
EndChar

StartChar: dotaccent
Encoding: 729 729 267
Width: 274
VWidth: 0
Flags: W
PickledData: "(dp1
S'com.typemytype.robofont.layerData'
p2
(dp3
s."
LayerCount: 2
Fore
SplineSet
144 660 m 256
 194 660 197 695 197 725 c 256
 197 756 194 791 144 791 c 256
 96 791 93 756 93 725 c 256
 93 695 96 660 144 660 c 256
EndSplineSet
Validated: 9
EndChar

StartChar: dotaccent.case
Encoding: 65587 -1 268
Width: 274
VWidth: 0
Flags: W
PickledData: "(dp1
S'com.typemytype.robofont.layerData'
p2
(dp3
s."
LayerCount: 2
Fore
SplineSet
144 818 m 256
 194 818 197 853 197 883 c 256
 197 914 194 949 144 949 c 256
 96 949 93 914 93 883 c 256
 93 853 96 818 144 818 c 256
EndSplineSet
Validated: 9
EndChar

StartChar: dotlessi
Encoding: 305 305 269
Width: 320
VWidth: 0
Flags: W
PickledData: "(dp1
S'com.typemytype.robofont.layerData'
p2
(dp3
s."
LayerCount: 2
Fore
SplineSet
130 572 m 257
 130 0 l 257
 200 0 l 257
 200 572 l 257
 130 572 l 257
70 0 m 257
 260 0 l 257
 260 50 l 257
 70 50 l 257
 70 0 l 257
70 522 m 257
 162 522 l 257
 162 572 l 257
 70 572 l 257
 70 522 l 257
EndSplineSet
Validated: 5
EndChar

StartChar: dottedcircle
Encoding: 9676 9676 270
Width: 1006
VWidth: 0
Flags: W
PickledData: "(dp1
S'com.typemytype.robofont.layerData'
p2
(dp3
s."
LayerCount: 2
Fore
SplineSet
450 706 m 256
 450 678 474 655 503 655 c 256
 533 655 556 678 556 706 c 256
 556 736 533 759 503 759 c 256
 474 759 450 736 450 706 c 256
281 660 m 256
 281 632 305 609 334 609 c 256
 364 609 387 632 387 660 c 256
 387 690 364 713 334 713 c 256
 305 713 281 690 281 660 c 256
155 535 m 256
 155 507 179 484 208 484 c 256
 238 484 261 507 261 535 c 256
 261 565 238 588 208 588 c 256
 179 588 155 565 155 535 c 256
110 364 m 256
 110 336 134 313 163 313 c 256
 193 313 216 336 216 364 c 256
 216 394 193 417 163 417 c 256
 134 417 110 394 110 364 c 256
281 68 m 256
 281 38 305 15 334 15 c 256
 364 15 387 38 387 68 c 256
 387 96 364 119 334 119 c 256
 305 119 281 96 281 68 c 256
155 193 m 256
 155 163 179 140 208 140 c 256
 238 140 261 163 261 193 c 256
 261 221 238 244 208 244 c 256
 179 244 155 221 155 193 c 256
450 22 m 256
 450 -8 474 -31 503 -31 c 256
 533 -31 556 -8 556 22 c 256
 556 50 533 73 503 73 c 256
 474 73 450 50 450 22 c 256
725 660 m 256
 725 690 701 713 672 713 c 256
 642 713 619 690 619 660 c 256
 619 632 642 609 672 609 c 256
 701 609 725 632 725 660 c 256
851 535 m 256
 851 565 827 588 798 588 c 256
 768 588 745 565 745 535 c 256
 745 507 768 484 798 484 c 256
 827 484 851 507 851 535 c 256
896 364 m 256
 896 394 872 417 843 417 c 256
 813 417 790 394 790 364 c 256
 790 336 813 313 843 313 c 256
 872 313 896 336 896 364 c 256
725 68 m 256
 725 96 701 119 672 119 c 256
 642 119 619 96 619 68 c 256
 619 38 642 15 672 15 c 256
 701 15 725 38 725 68 c 256
851 193 m 256
 851 221 827 244 798 244 c 256
 768 244 745 221 745 193 c 256
 745 163 768 140 798 140 c 256
 827 140 851 163 851 193 c 256
EndSplineSet
Validated: 9
EndChar

StartChar: e
Encoding: 101 101 272
Width: 598
VWidth: 0
Flags: W
PickledData: "(dp1
S'com.typemytype.robofont.layerData'
p2
(dp3
s."
LayerCount: 2
Fore
SplineSet
107 270 m 257
 538 270 l 257
 538 286 l 257
 532 325 l 257
 107 325 l 257
 107 270 l 257
309 -14 m 256
 486 -14 519 76 529 177 c 257
 471 180 l 257
 464 103 438 45 307 45 c 256
 164 45 140 122 140 286 c 256
 140 405 147 527 304 527 c 256
 461 527 468 415 468 286 c 257
 538 286 l 257
 538 441 515 586 305 586 c 256
 94 586 70 441 70 286 c 256
 70 92 112 -14 309 -14 c 256
EndSplineSet
Validated: 5
EndChar

StartChar: ecandralongsigndeva
Encoding: 2389 2389 276
Width: 0
VWidth: 0
Flags: W
PickledData: "(dp1
S'com.typemytype.robofont.layerData'
p2
(dp3
s."
AnchorPoint: "Anchor-1" -150 730 mark 0
AnchorPoint: "DVAnchor3" -150 730 mark 0
LayerCount: 2
Fore
SplineSet
21 801 m 257
 -320 801 l 257
 -320 851 l 257
 21 851 l 257
 21 801 l 257
21 1056 m 257
 21 975 -7 897 -150 897 c 256
 -293 897 -320 975 -320 1056 c 257
 -261 1056 l 257
 -261 1004 -246 957 -150 957 c 256
 -55 957 -40 1004 -40 1056 c 257
 21 1056 l 257
EndSplineSet
Validated: 1
EndChar

StartChar: ecandrasigndeva
Encoding: 2373 2373 277
Width: 0
VWidth: 0
Flags: W
PickledData: "(dp1
S'com.typemytype.robofont.layerData'
p2
(dp3
s."
AnchorPoint: "Anchor-1" -150 730 mark 0
AnchorPoint: "DVAnchor3" -150 730 mark 0
LayerCount: 2
Fore
SplineSet
21 991 m 257
 21 910 -7 832 -150 832 c 256
 -293 832 -320 910 -320 991 c 257
 -261 991 l 257
 -261 939 -246 892 -150 892 c 256
 -55 892 -40 939 -40 991 c 257
 21 991 l 257
EndSplineSet
Validated: 1
EndChar

StartChar: edeva
Encoding: 2319 2319 280
Width: 595
VWidth: 0
Flags: W
PickledData: "(dp1
S'com.typemytype.robofont.layerData'
p2
(dp3
s."
AnchorPoint: "Anchor-1" 297 730 basechar 0
AnchorPoint: "Anchor-1" 297 730 basechar 0
LayerCount: 2
Fore
SplineSet
165 680 m 257
 95 680 l 257
 95 357 l 258
 95 197 211 90 431 2 c 257
 453 61 l 257
 261 136 165 224 165 357 c 258
 165 680 l 257
418 294 m 257
 489 328 500 398 500 470 c 258
 500 680 l 257
 430 680 l 257
 430 470 l 258
 430 420 425 368 379 343 c 257
 418 294 l 257
-10 680 m 257
 605 680 l 257
 605 730 l 257
 -10 730 l 257
 -10 680 l 257
EndSplineSet
Validated: 5
EndChar

StartChar: eight
Encoding: 56 56 284
Width: 580
VWidth: 0
Flags: W
PickledData: "(dp1
S'com.typemytype.robofont.layerData'
p2
(dp3
s."
LayerCount: 2
Fore
SplineSet
262 315 m 257
 177 302 136 256 136 170 c 256
 136 94 175 45 289 45 c 256
 403 45 444 94 444 170 c 256
 444 250 417 289 334 302 c 258
 252 315 l 258
 132 334 75 383 75 490 c 256
 75 608 128 684 290 684 c 256
 452 684 505 608 505 490 c 256
 505 383 436 337 316 318 c 257
 309 358 l 257
 394 371 435 416 435 490 c 256
 435 571 405 625 290 625 c 256
 175 625 145 571 145 490 c 256
 145 416 171 381 256 368 c 258
 337 355 l 258
 457 335 514 287 514 170 c 256
 514 52 445 -14 290 -14 c 256
 135 -14 66 52 66 170 c 256
 66 287 135 335 255 354 c 257
 262 315 l 257
EndSplineSet
Validated: 5
EndChar

StartChar: eightcombiningdigitdeva
Encoding: 43240 43240 285
Width: 0
VWidth: 0
Flags: W
PickledData: "(dp1
S'com.typemytype.robofont.layerData'
p2
(dp3
s."
AnchorPoint: "Anchor-1" -150 730 mark 0
AnchorPoint: "DVAnchor3" -150 730 mark 0
LayerCount: 2
Fore
SplineSet
-166 794 m 256
 -244 794 -263 844 -263 883 c 256
 -263 916 -253 944 -225 988 c 258
 -129 1143 l 257
 -89 1119 l 257
 -192 951 l 258
 -207 927 -213 909 -213 889 c 256
 -213 866 -205 837 -159 837 c 256
 -119 837 -93 862 -74 894 c 257
 -38 869 l 257
 -66 825 -105 794 -166 794 c 256
EndSplineSet
Validated: 1
EndChar

StartChar: eightdeva
Encoding: 2414 2414 286
Width: 604
VWidth: 0
Flags: W
PickledData: "(dp1
S'com.typemytype.robofont.layerData'
p2
(dp3
s."
LayerCount: 2
Fore
SplineSet
291 -14 m 256
 110 -14 70 90 70 185 c 256
 70 265 105 333 142 391 c 258
 377 763 l 257
 434 728 l 257
 188 333 l 258
 159 287 140 240 140 185 c 256
 140 121 158 42 288 42 c 256
 390 42 458 113 498 191 c 257
 554 153 l 257
 504 69 418 -14 291 -14 c 256
EndSplineSet
Validated: 1
Substitution2: "'locl' Localized Forms lookup 3 subtable" eightdeva.np
EndChar

StartChar: eightdeva.np
Encoding: 65588 -1 287
Width: 604
VWidth: 0
Flags: W
PickledData: "(dp1
S'com.typemytype.robofont.layerData'
p2
(dp3
s."
LayerCount: 2
Fore
SplineSet
351 595 m 257
 188 333 l 258
 159 287 140 240 140 185 c 256
 140 121 158 42 288 42 c 256
 390 42 458 113 498 191 c 257
 554 153 l 257
 504 69 418 -14 291 -14 c 256
 110 -14 70 90 70 185 c 256
 70 265 105 333 142 391 c 258
 271 595 l 257
 351 595 l 257
554 573 m 257
 70 573 l 257
 70 623 l 257
 554 623 l 257
 554 573 l 257
EndSplineSet
Validated: 5
EndChar

StartChar: eightinferior
Encoding: 8328 8328 288
Width: 414
VWidth: 0
Flags: W
PickledData: "(dp1
S'com.typemytype.robofont.layerData'
p2
(dp3
s."
LayerCount: 2
Fore
SplineSet
190 80 m 257
 144 73 122 46 122 -2 c 256
 122 -45 144 -72 207 -72 c 256
 270 -72 292 -45 292 -2 c 256
 292 43 277 66 230 73 c 258
 185 80 l 258
 108 92 72 121 72 189 c 256
 72 261 106 307 207 307 c 256
 309 307 342 261 342 189 c 256
 342 121 298 94 223 82 c 257
 219 112 l 257
 265 120 287 145 287 187 c 256
 287 233 271 263 207 263 c 256
 144 263 128 233 128 187 c 256
 128 145 142 127 190 119 c 258
 235 111 l 258
 311 98 347 70 347 -3 c 256
 347 -75 304 -115 207 -115 c 256
 110 -115 67 -75 67 -3 c 256
 67 70 110 98 186 110 c 257
 190 80 l 257
EndSplineSet
Validated: 5
EndChar

StartChar: ellipsis
Encoding: 8230 8230 289
Width: 678
VWidth: 0
Flags: W
PickledData: "(dp1
S'com.typemytype.robofont.layerData'
p2
(dp3
s."
LayerCount: 2
Fore
SplineSet
112 -8 m 256
 68 -8 65 23 65 50 c 256
 65 78 68 109 112 109 c 256
 158 109 161 78 161 50 c 256
 161 23 158 -8 112 -8 c 256
338 -8 m 256
 294 -8 291 23 291 50 c 256
 291 78 294 109 338 109 c 256
 384 109 387 78 387 50 c 256
 387 23 384 -8 338 -8 c 256
564 -8 m 256
 520 -8 517 23 517 50 c 256
 517 78 520 109 564 109 c 256
 610 109 613 78 613 50 c 256
 613 23 610 -8 564 -8 c 256
EndSplineSet
Validated: 1
EndChar

StartChar: emdash
Encoding: 8212 8212 291
Width: 913
VWidth: 0
Flags: W
PickledData: "(dp1
S'com.typemytype.robofont.layerData'
p2
(dp3
s."
LayerCount: 2
Fore
SplineSet
70 288 m 257
 843 288 l 257
 843 348 l 257
 70 348 l 257
 70 288 l 257
EndSplineSet
Validated: 9
EndChar

StartChar: endash
Encoding: 8211 8211 292
Width: 580
VWidth: 0
Flags: W
PickledData: "(dp1
S'com.typemytype.robofont.layerData'
p2
(dp3
s."
LayerCount: 2
Fore
SplineSet
70 288 m 257
 510 288 l 257
 510 348 l 257
 70 348 l 257
 70 288 l 257
EndSplineSet
Validated: 9
EndChar

StartChar: eng
Encoding: 331 331 293
Width: 691
VWidth: 0
Flags: W
PickledData: "(dp1
S'com.typemytype.robofont.layerData'
p2
(dp3
s."
LayerCount: 2
Fore
SplineSet
177 572 m 257
 130 572 l 257
 130 0 l 257
 200 0 l 257
 200 487 l 257
 177 572 l 257
177 433 m 257
 242 492 315 527 395 527 c 256
 471 527 501 491 501 408 c 258
 501 0 l 257
 571 0 l 257
 571 407 l 258
 571 528 525 586 406 586 c 256
 306 586 212 530 163 482 c 257
 177 433 l 257
70 0 m 257
 260 0 l 257
 260 50 l 257
 70 50 l 257
 70 0 l 257
70 522 m 257
 130 522 l 257
 130 572 l 257
 70 572 l 257
 70 522 l 257
371 -172 m 257
 371 -227 l 257
 432 -227 l 258
 554 -227 571 -171 571 -78 c 258
 571 0 l 257
 501 0 l 257
 501 -78 l 258
 501 -138 491 -162 432 -167 c 258
 371 -172 l 257
EndSplineSet
Validated: 5
EndChar

StartChar: eprishthamatrasigndeva
Encoding: 2382 2382 295
Width: 300
VWidth: 0
Flags: W
PickledData: "(dp1
S'com.typemytype.robofont.layerData'
p2
(dp3
s."
LayerCount: 2
Fore
SplineSet
115 730 m 257
 115 0 l 257
 185 0 l 257
 185 680 l 257
 310 680 l 257
 310 730 l 257
 115 730 l 257
EndSplineSet
Validated: 9
EndChar

StartChar: equal
Encoding: 61 61 296
Width: 580
VWidth: 0
Flags: W
PickledData: "(dp1
S'com.typemytype.robofont.layerData'
p2
(dp3
s."
LayerCount: 2
Fore
SplineSet
94 388 m 257
 486 388 l 257
 486 448 l 257
 94 448 l 257
 94 388 l 257
94 188 m 257
 486 188 l 257
 486 248 l 257
 94 248 l 257
 94 188 l 257
EndSplineSet
Validated: 9
EndChar

StartChar: eshortsigndeva
Encoding: 2374 2374 298
Width: 0
VWidth: 0
Flags: W
PickledData: "(dp1
S'com.typemytype.robofont.layerData'
p2
(dp3
s."
AnchorPoint: "Anchor-1" -150 730 mark 0
AnchorPoint: "DVAnchor3" -150 730 mark 0
LayerCount: 2
Fore
SplineSet
-116 730 m 257
 -113 961 -464 864 -464 1052 c 257
 -529 1052 l 257
 -532 821 -184 918 -184 730 c 257
 -116 730 l 257
EndSplineSet
Validated: 41
EndChar

StartChar: esign_ra_virama.alt1
Encoding: 65589 -1 299
Width: 0
VWidth: 0
Flags: W
PickledData: "(dp1
S'com.typemytype.robofont.layerData'
p2
(dp3
s."
AnchorPoint: "Anchor-1" -150 730 mark 0
AnchorPoint: "DVAnchor3" -150 730 mark 0
LayerCount: 2
Fore
SplineSet
-53 1087 m 256
 -271 1087 -285 860 -177 730 c 257
 -119 730 l 257
 -158 778 -181 825 -181 898 c 256
 -181 974 -149 1030 -58 1030 c 256
 -24 1030 15 1025 55 1013 c 257
 70 1068 l 257
 35 1080 -6 1087 -53 1087 c 256
-120 730 m 257
 -406 1066 l 257
 -457 1022 l 257
 -187 730 l 257
 -120 730 l 257
EndSplineSet
Validated: 37
Ligature2: "'abvs' Above Base Substitutions lookup 25 subtable" esigndeva radeva_viramadeva
EndChar

StartChar: esign_ra_virama_anusvara
Encoding: 65590 -1 300
Width: 0
VWidth: 0
Flags: W
PickledData: "(dp1
S'com.typemytype.robofont.layerData'
p2
(dp3
s."
AnchorPoint: "Anchor-1" -150 730 mark 0
AnchorPoint: "DVAnchor3" -150 730 mark 0
LayerCount: 2
Fore
SplineSet
-19 823 m 256
 18 823 34 838 34 874 c 256
 34 911 19 926 -19 926 c 256
 -55 926 -70 911 -70 874 c 256
 -70 838 -55 823 -19 823 c 256
-53 1087 m 256
 -271 1087 -285 860 -177 730 c 257
 -119 730 l 257
 -158 778 -181 825 -181 898 c 256
 -181 974 -149 1030 -58 1030 c 256
 -24 1030 15 1025 55 1013 c 257
 70 1068 l 257
 35 1080 -6 1087 -53 1087 c 256
-120 730 m 257
 -406 1066 l 257
 -457 1022 l 257
 -187 730 l 257
 -120 730 l 257
EndSplineSet
Validated: 37
Ligature2: "'abvs' Above Base Substitutions lookup 25 subtable" esigndeva radeva_viramadeva anusvaradeva
EndChar

StartChar: esigndeva
Encoding: 2375 2375 301
Width: 0
VWidth: 0
Flags: W
PickledData: "(dp1
S'com.typemytype.robofont.layerData'
p2
(dp3
s."
AnchorPoint: "Anchor-1" -134 730 mark 0
AnchorPoint: "DVAnchor3" -134 730 mark 0
LayerCount: 2
Fore
SplineSet
-113 730 m 257
 -404 1066 l 257
 -455 1022 l 257
 -185 730 l 257
 -113 730 l 257
EndSplineSet
Validated: 9
EndChar

StartChar: esigndeva_anusvaradeva
Encoding: 65591 -1 302
Width: 0
VWidth: 0
Flags: W
PickledData: "(dp1
S'com.typemytype.robofont.layerData'
p2
(dp3
s."
AnchorPoint: "Anchor-1" -134 730 mark 0
AnchorPoint: "DVAnchor3" -134 730 mark 0
LayerCount: 2
Fore
SplineSet
-113 730 m 257
 -404 1066 l 257
 -455 1022 l 257
 -185 730 l 257
 -113 730 l 257
-140 922 m 256
 -103 922 -87 937 -87 973 c 256
 -87 1010 -102 1025 -140 1025 c 256
 -176 1025 -191 1010 -191 973 c 256
 -191 937 -176 922 -140 922 c 256
EndSplineSet
Validated: 9
Ligature2: "'abvs' Above Base Substitutions lookup 25 subtable" esigndeva anusvaradeva
EndChar

StartChar: eslash
Encoding: 65592 -1 303
Width: 310
VWidth: 0
Flags: W
PickledData: "(dp1
S'com.typemytype.robofont.layerData'
p2
(dp3
s."
LayerCount: 2
Fore
SplineSet
30 302 m 257
 280 402 l 257
 280 457 l 257
 30 357 l 257
 30 302 l 257
EndSplineSet
Validated: 9
EndChar

StartChar: eslash.001
Encoding: 65593 -1 304
Width: 218
VWidth: 0
Flags: W
PickledData: "(dp1
S'com.typemytype.robofont.layerData'
p2
(dp3
s."
LayerCount: 2
Fore
SplineSet
218 426 m 257
 218 483 l 257
 0 319 l 257
 0 262 l 257
 218 426 l 257
EndSplineSet
Validated: 9
EndChar

StartChar: estimated
Encoding: 8494 8494 305
Width: 600
VWidth: 0
Flags: W
PickledData: "(dp1
S'com.typemytype.robofont.layerData'
p2
(dp3
s."
LayerCount: 2
Fore
SplineSet
157 259 m 257
 157 78 l 257
 198 39 247 19 302 19 c 256
 385 19 449 59 495 139 c 257
 530 118 l 257
 461 26 409 -17 302 -17 c 256
 138 -17 44 107 44 259 c 256
 44 422 142 535 302 535 c 256
 473 535 554 413 561 259 c 257
 157 259 l 257
448 295 m 257
 448 440 l 257
 406 480 357 500 301 500 c 256
 244 500 196 480 157 440 c 257
 157 295 l 257
 448 295 l 257
EndSplineSet
Validated: 1
EndChar

StartChar: eth
Encoding: 240 240 306
Width: 608
VWidth: 0
Flags: W
PickledData: "(dp1
S'com.typemytype.robofont.layerData'
p2
(dp3
s."
LayerCount: 2
Fore
SplineSet
304 45 m 256
 139 45 130 147 130 246 c 256
 130 345 139 447 304 447 c 256
 469 447 478 345 478 246 c 256
 478 147 469 45 304 45 c 256
304 -14 m 256
 524 -14 548 111 548 246 c 256
 548 296 545 343 530 384 c 256
 527 393 503 383 498 391 c 256
 467 448 425 506 304 506 c 256
 84 506 60 381 60 246 c 256
 60 111 84 -14 304 -14 c 256
298 723 m 257
 391 639 481 509 481 277 c 257
 548 267 l 257
 548 565 414 694 333 764 c 257
 298 723 l 257
EndSplineSet
Refer: 303 -1 N 1 0 0 1 246 280 2
Validated: 37
EndChar

StartChar: exclam
Encoding: 33 33 307
Width: 316
VWidth: 0
Flags: W
PickledData: "(dp1
S'com.typemytype.robofont.layerData'
p2
(dp3
s."
LayerCount: 2
Fore
SplineSet
157 -8 m 256
 113 -8 110 23 110 50 c 256
 110 78 113 109 157 109 c 256
 203 109 206 78 206 50 c 256
 206 23 203 -8 157 -8 c 256
117 730 m 257
 117 572 l 257
 135 185 l 257
 179 185 l 257
 197 572 l 257
 197 730 l 257
 117 730 l 257
EndSplineSet
Validated: 9
EndChar

StartChar: exclamdown
Encoding: 161 161 308
Width: 316
VWidth: 0
Flags: W
PickledData: "(dp1
S'com.typemytype.robofont.layerData'
p2
(dp3
s."
LayerCount: 2
Fore
SplineSet
159 586 m 256
 203 586 206 555 206 528 c 256
 206 500 203 469 159 469 c 256
 113 469 110 500 110 528 c 256
 110 555 113 586 159 586 c 256
199 -152 m 257
 199 6 l 257
 181 393 l 257
 137 393 l 257
 119 6 l 257
 119 -152 l 257
 199 -152 l 257
EndSplineSet
Validated: 9
EndChar

StartChar: f
Encoding: 102 102 309
Width: 343
VWidth: 0
Flags: W
PickledData: "(dp1
S'com.typemytype.robofont.layerData'
p2
(dp3
s."
LayerCount: 2
Fore
SplineSet
60 522 m 257
 318 522 l 257
 318 572 l 257
 60 572 l 257
 60 522 l 257
68 0 m 257
 278 0 l 257
 278 50 l 257
 68 50 l 257
 68 0 l 257
198 611 m 258
 198 671 208 695 267 700 c 258
 328 705 l 257
 328 755 l 257
 267 755 l 258
 145 755 128 699 128 606 c 258
 128 0 l 257
 198 0 l 257
 198 611 l 258
EndSplineSet
Validated: 5
EndChar

StartChar: five
Encoding: 53 53 316
Width: 580
VWidth: 0
Flags: W
PickledData: "(dp1
S'com.typemytype.robofont.layerData'
p2
(dp3
s."
LayerCount: 2
Fore
SplineSet
97 341 m 257
 206 341 l 258
 387 341 444 295 444 196 c 256
 444 101 410 45 292 45 c 256
 174 45 145 105 145 195 c 257
 83 195 l 257
 83 64 135 -14 292 -14 c 256
 458 -14 514 64 514 196 c 256
 514 350 417 400 207 400 c 258
 164 400 l 257
 177 611 l 257
 477 611 l 257
 477 670 l 257
 118 670 l 257
 97 341 l 257
EndSplineSet
Validated: 9
EndChar

StartChar: fivecombiningdigitdeva
Encoding: 43237 43237 317
Width: 0
VWidth: 0
Flags: W
PickledData: "(dp1
S'com.typemytype.robofont.layerData'
p2
(dp3
s."
AnchorPoint: "Anchor-1" -150 730 mark 0
AnchorPoint: "DVAnchor3" -150 730 mark 0
LayerCount: 2
Fore
SplineSet
-114 744 m 257
 -89 755 l 258
 -57 769 -40 789 -40 814 c 256
 -40 826 -42 836 -47 851 c 258
 -78 939 l 257
 -62 947 -55 957 -55 972 c 256
 -55 995 -81 1016 -111 1016 c 256
 -130 1016 -142 1006 -142 983 c 256
 -142 977 -140 965 -135 950 c 258
 -96 836 l 258
 -93 828 -91 819 -91 813 c 256
 -91 800 -98 791 -113 783 c 258
 -128 775 l 257
 -114 744 l 257
-136 926 m 256
 -127 926 -122 927 -118 928 c 257
 -106 970 l 257
 -111 968 -116 968 -128 968 c 256
 -173 968 -205 998 -205 1040 c 256
 -205 1072 -191 1101 -165 1121 c 257
 -201 1149 l 257
 -235 1124 -255 1084 -255 1040 c 256
 -255 975 -206 926 -136 926 c 256
EndSplineSet
Validated: 5
EndChar

StartChar: fivedeva
Encoding: 2411 2411 318
Width: 520
VWidth: 0
Flags: W
PickledData: "(dp1
S'com.typemytype.robofont.layerData'
p2
(dp3
s."
LayerCount: 2
Fore
SplineSet
330 -143 m 257
 389 -115 l 258
 459 -82 490 -45 490 7 c 256
 490 29 485 52 475 80 c 258
 389 313 l 257
 425 329 440 350 440 382 c 256
 440 423 396 457 343 457 c 256
 308 457 291 441 291 407 c 256
 291 388 296 363 307 333 c 258
 408 49 l 258
 414 34 417 19 417 6 c 256
 417 -23 402 -45 371 -62 c 258
 313 -93 l 257
 330 -143 l 257
302 297 m 256
 323 297 335 298 345 300 c 257
 366 362 l 257
 352 357 338 356 307 356 c 256
 201 356 120 434 120 537 c 256
 120 620 154 690 219 738 c 257
 165 775 l 257
 94 719 50 631 50 543 c 256
 50 402 157 297 302 297 c 256
EndSplineSet
Validated: 5
Substitution2: "'locl' Localized Forms lookup 3 subtable" fivedeva.np
EndChar

StartChar: fivedeva.np
Encoding: 65595 -1 319
Width: 505
VWidth: 0
Flags: W
PickledData: "(dp1
S'com.typemytype.robofont.layerData'
p2
(dp3
s."
LayerCount: 2
Fore
SplineSet
344 4 m 257
 414 37 445 74 445 126 c 256
 445 148 440 171 430 199 c 258
 389 313 l 257
 425 329 440 350 440 382 c 256
 440 423 396 457 343 457 c 256
 308 457 291 441 291 407 c 256
 291 388 296 363 307 333 c 258
 363 168 l 258
 369 153 372 138 372 125 c 256
 372 96 357 74 326 57 c 257
 344 4 l 257
302 297 m 256
 323 297 335 298 345 300 c 257
 366 362 l 257
 352 357 338 356 307 356 c 256
 201 356 120 434 120 537 c 256
 120 620 154 690 219 738 c 257
 165 775 l 257
 94 719 50 631 50 543 c 256
 50 402 157 297 302 297 c 256
441 -151 m 257
 320 107 l 258
 311 126 303 132 289 132 c 256
 236 132 216 60 216 15 c 256
 216 -3 219 -52 252 -37 c 258
 318 -7 l 257
 386 -151 l 257
 441 -151 l 257
EndSplineSet
Validated: 37
EndChar

StartChar: fiveinferior
Encoding: 8325 8325 320
Width: 414
VWidth: 0
Flags: W
PickledData: "(dp1
S'com.typemytype.robofont.layerData'
p2
(dp3
s."
LayerCount: 2
Fore
SplineSet
87 94 m 257
 154 94 l 258
 262 94 292 68 292 12 c 256
 292 -41 274 -71 209 -71 c 256
 143 -71 127 -37 127 16 c 257
 79 16 l 257
 79 -67 110 -115 209 -115 c 256
 313 -115 347 -68 347 12 c 256
 347 107 291 140 164 140 c 258
 139 140 l 257
 146 254 l 257
 324 254 l 257
 324 298 l 257
 100 298 l 257
 87 94 l 257
EndSplineSet
Validated: 9
EndChar

StartChar: florin
Encoding: 402 402 322
Width: 580
VWidth: 0
Flags: W
PickledData: "(dp1
S'com.typemytype.robofont.layerData'
p2
(dp3
s."
LayerCount: 2
Fore
SplineSet
114 291 m 257
 461 291 l 257
 461 341 l 257
 114 341 l 257
 114 291 l 257
514 655 m 257
 484 673 444 684 402 684 c 256
 285 684 230 619 230 479 c 258
 230 -6 l 258
 230 -103 202 -138 122 -138 c 257
 126 -200 l 257
 265 -200 302 -136 302 -6 c 258
 302 479 l 258
 302 585 344 625 402 625 c 256
 436 625 465 618 490 603 c 257
 514 655 l 257
EndSplineSet
Validated: 5
EndChar

StartChar: four
Encoding: 52 52 323
Width: 580
VWidth: 0
Flags: W
PickledData: "(dp1
S'com.typemytype.robofont.layerData'
p2
(dp3
s."
LayerCount: 2
Fore
SplineSet
325 670 m 257
 32 208 l 257
 32 150 l 257
 521 150 l 257
 521 209 l 257
 111 209 l 257
 403 670 l 257
 325 670 l 257
437 0 m 257
 437 670 l 257
 366 670 l 257
 366 0 l 257
 437 0 l 257
EndSplineSet
Validated: 5
EndChar

StartChar: fourcombiningdigitdeva
Encoding: 43236 43236 324
Width: 0
VWidth: 0
Flags: W
PickledData: "(dp1
S'com.typemytype.robofont.layerData'
p2
(dp3
s."
AnchorPoint: "Anchor-1" -150 730 mark 0
AnchorPoint: "DVAnchor3" -150 730 mark 0
LayerCount: 2
Fore
SplineSet
-84 1144 m 257
 -58 1125 -33 1092 -33 1048 c 256
 -33 977 -80 950 -138 938 c 257
 -145 964 l 257
 -112 972 -83 1000 -83 1045 c 256
 -83 1079 -102 1103 -120 1116 c 257
 -84 1144 l 257
-182 1116 m 257
 -200 1103 -217 1079 -217 1044 c 256
 -217 1000 -195 976 -161 971 c 258
 -129 966 l 258
 -68 956 -43 923 -43 878 c 256
 -43 836 -76 794 -150 794 c 256
 -225 794 -258 836 -258 878 c 256
 -258 922 -224 954 -166 963 c 257
 -163 937 l 257
 -194 932 -208 906 -208 879 c 256
 -208 855 -194 832 -151 832 c 256
 -107 832 -92 855 -92 879 c 256
 -92 904 -102 927 -135 932 c 258
 -168 937 l 258
 -229 946 -267 977 -267 1048 c 256
 -267 1091 -244 1125 -218 1144 c 257
 -182 1116 l 257
EndSplineSet
Validated: 5
EndChar

StartChar: fourdeva
Encoding: 2410 2410 325
Width: 650
VWidth: 0
Flags: W
PickledData: "(dp1
S'com.typemytype.robofont.layerData'
p2
(dp3
s."
LayerCount: 2
Fore
SplineSet
462 765 m 257
 516 723 570 648 570 552 c 256
 570 406 471 344 351 318 c 257
 329 353 l 257
 422 372 500 439 500 549 c 256
 500 634 457 691 408 727 c 257
 462 765 l 257
239 727 m 257
 190 691 150 632 150 547 c 256
 150 436 205 379 291 365 c 258
 372 352 l 258
 502 331 549 262 549 170 c 256
 549 76 480 -14 325 -14 c 256
 170 -14 101 76 101 170 c 256
 101 263 170 333 290 352 c 257
 297 315 l 257
 212 302 171 239 171 170 c 256
 171 109 210 45 324 45 c 256
 438 45 479 109 479 170 c 256
 479 234 452 289 369 302 c 258
 287 315 l 258
 156 337 80 407 80 553 c 256
 80 647 131 723 185 765 c 257
 239 727 l 257
EndSplineSet
Validated: 5
EndChar

StartChar: fourinferior
Encoding: 8324 8324 326
Width: 412
VWidth: 0
Flags: W
PickledData: "(dp1
S'com.typemytype.robofont.layerData'
p2
(dp3
s."
LayerCount: 2
Fore
SplineSet
215 298 m 257
 46 21 l 257
 46 -22 l 257
 348 -22 l 257
 348 23 l 257
 108 23 l 257
 275 298 l 257
 215 298 l 257
300 -107 m 257
 300 298 l 257
 246 298 l 257
 246 -107 l 257
 300 -107 l 257
EndSplineSet
Validated: 5
EndChar

StartChar: fraction
Encoding: 8260 8260 327
Width: 267
VWidth: 0
Flags: W
PickledData: "(dp1
S'com.typemytype.robofont.layerData'
p2
(dp3
s."
LayerCount: 2
Fore
SplineSet
0 -66 m 257
 52 -66 l 257
 267 735 l 257
 214 735 l 257
 0 -66 l 257
EndSplineSet
Validated: 9
EndChar

StartChar: g
Encoding: 103 103 329
Width: 580
VWidth: 0
Flags: W
PickledData: "(dp1
S'com.typemytype.robofont.layerData'
p2
(dp3
s."
LayerCount: 2
Fore
SplineSet
294 184 m 256
 481 184 501 281 501 385 c 256
 501 489 481 586 294 586 c 256
 108 586 88 489 88 385 c 256
 88 281 108 184 294 184 c 256
411 549 m 257
 453 507 l 257
 536 590 l 257
 494 632 l 257
 411 549 l 257
294 237 m 256
 170 237 156 298 156 385 c 256
 156 472 170 533 294 533 c 256
 419 533 433 472 433 385 c 256
 433 298 419 237 294 237 c 256
284 -188 m 256
 188 -188 111 -181 111 -100 c 256
 111 -59 129 -23 157 0 c 257
 372 0 l 258
 417 0 475 -8 475 -81 c 256
 475 -182 408 -188 284 -188 c 256
199 214 m 257
 166 250 l 257
 97 184 l 258
 62 149 53 118 53 91 c 256
 53 52 70 24 108 8 c 257
 70 -23 50 -62 50 -104 c 256
 50 -227 149 -241 284 -241 c 256
 412 -241 540 -236 540 -80 c 256
 540 7 486 53 392 53 c 258
 163 53 l 258
 135 53 110 64 110 96 c 256
 110 116 117 136 136 154 c 258
 199 214 l 257
EndSplineSet
Validated: 5
EndChar

StartChar: gadeva
Encoding: 2327 2327 330
Width: 635
VWidth: 0
Flags: W
PickledData: "(dp1
S'com.typemytype.robofont.layerData'
p2
(dp3
s."
AnchorPoint: "Anchor-1" 485 730 basechar 0
AnchorPoint: "Anchor-1" 485 730 basechar 0
LayerCount: 2
Fore
SplineSet
-10 680 m 257
 645 680 l 257
 645 730 l 257
 -10 730 l 257
 -10 680 l 257
450 0 m 257
 520 0 l 257
 520 680 l 257
 450 680 l 257
 450 0 l 257
130 395 m 257
 92 395 l 258
 70 395 59 386 59 357 c 256
 59 292 147 251 177 251 c 256
 189 251 200 254 200 272 c 258
 200 680 l 257
 130 680 l 257
 130 395 l 257
EndSplineSet
Validated: 5
EndChar

StartChar: gadeva_viramadeva
Encoding: 65596 -1 331
Width: 315
VWidth: 0
Flags: W
PickledData: "(dp1
S'com.typemytype.robofont.layerData'
p2
(dp3
s."
LayerCount: 2
Fore
SplineSet
-10 680 m 257
 325 680 l 257
 325 730 l 257
 -10 730 l 257
 -10 680 l 257
130 395 m 257
 87 395 l 258
 65 395 59 386 59 357 c 256
 59 302 147 251 177 251 c 256
 189 251 200 254 200 272 c 258
 200 680 l 257
 130 680 l 257
 130 395 l 257
EndSplineSet
Validated: 5
Ligature2: "'half' Half Forms lookup 9 subtable" gadeva viramadeva
EndChar

StartChar: gapfillerdeva
Encoding: 43257 43257 334
Width: 789
VWidth: 0
Flags: W
PickledData: "(dp1
S'com.typemytype.robofont.layerData'
p2
(dp3
s."
AnchorPoint: "Anchor-1" 593 730 basechar 0
AnchorPoint: "Anchor-0" 308 90 basechar 0
AnchorPoint: "Anchor-0" 308 90 basechar 0
AnchorPoint: "Anchor-1" 593 730 basechar 0
LayerCount: 2
Fore
SplineSet
762 364 m 256
 762 464 746 557 595 557 c 256
 444 557 428 464 428 364 c 256
 428 270 445 189 589 151 c 257
 614 197 l 257
 499 227 491 295 491 364 c 256
 491 437 497 506 594 506 c 256
 693 506 698 437 698 364 c 256
 698 213 501 103 306 103 c 256
 194 103 143 156 143 243 c 256
 143 320 187 386 294 386 c 258
 349 386 l 257
 349 436 l 257
 283 436 l 258
 172 436 73 375 73 245 c 256
 73 116 155 45 306 45 c 256
 511 45 762 183 762 364 c 256
EndSplineSet
Validated: 5
EndChar

StartChar: germandbls
Encoding: 223 223 338
Width: 636
VWidth: 0
Flags: W
PickledData: "(dp1
S'com.typemytype.robofont.layerData'
p2
(dp3
s."
LayerCount: 2
Fore
SplineSet
60 0 m 257
 120 0 l 257
 120 50 l 257
 60 50 l 257
 60 0 l 257
190 561 m 258
 190 642 228 696 332 696 c 256
 447 696 479 643 479 562 c 256
 479 488 443 410 361 410 c 258
 293 410 l 257
 293 366 l 257
 361 366 l 258
 466 366 549 454 549 561 c 256
 549 679 494 755 332 755 c 256
 185 755 120 679 120 561 c 258
 120 0 l 257
 190 0 l 257
 190 561 l 258
606 197 m 256
 606 331 525 400 420 400 c 258
 293 400 l 257
 293 356 l 257
 408 356 l 258
 510 356 536 284 536 196 c 256
 536 120 517 45 420 45 c 256
 322 45 307 98 307 179 c 257
 248 179 l 257
 248 61 278 -14 421 -14 c 256
 567 -14 606 81 606 197 c 256
EndSplineSet
Validated: 5
EndChar

StartChar: ggadeva
Encoding: 2427 2427 339
Width: 635
VWidth: 0
Flags: W
PickledData: "(dp1
S'com.typemytype.robofont.layerData'
p2
(dp3
s."
AnchorPoint: "Anchor-1" 465 730 basechar 0
AnchorPoint: "Anchor-1" 465 730 basechar 0
LayerCount: 2
Fore
SplineSet
-10 -50 m 257
 520 -50 l 257
 520 0 l 257
 -10 0 l 257
 -10 -50 l 257
EndSplineSet
Refer: 330 2327 N 1 0 0 1 0 0 2
Validated: 5
EndChar

StartChar: ghadeva
Encoding: 2328 2328 340
Width: 679
VWidth: 0
Flags: W
PickledData: "(dp1
S'com.typemytype.robofont.layerData'
p2
(dp3
s."
AnchorPoint: "Anchor-1" 529 730 basechar 0
AnchorPoint: "Anchor-1" 529 730 basechar 0
LayerCount: 2
Fore
SplineSet
292 718 m 257
 146 718 97 658 97 572 c 256
 97 484 182 420 277 420 c 258
 333 420 l 257
 333 462 l 257
 279 462 l 258
 205 462 167 510 167 569 c 256
 167 635 195 680 292 680 c 257
 292 718 l 257
494 396 m 257
 494 262 412 159 292 159 c 256
 198 159 159 206 159 283 c 256
 159 354 201 412 288 412 c 258
 333 412 l 257
 333 454 l 257
 278 454 l 258
 176 454 88 400 88 284 c 256
 88 167 153 101 285 101 c 256
 431 101 514 216 532 377 c 257
 494 396 l 257
393 730 m 257
 -10 730 l 257
 -10 680 l 257
 393 680 l 257
 393 730 l 257
494 680 m 257
 494 0 l 257
 564 0 l 257
 564 680 l 257
 689 680 l 257
 689 730 l 257
 393 730 l 257
 393 680 l 257
 494 680 l 257
EndSplineSet
Validated: 5
EndChar

StartChar: ghadeva_viramadeva
Encoding: 65599 -1 341
Width: 415
VWidth: 0
Flags: W
PickledData: "(dp1
S'com.typemytype.robofont.layerData'
p2
(dp3
s."
LayerCount: 2
Fore
SplineSet
290 718 m 257
 128 718 73 658 73 572 c 256
 73 484 166 420 271 420 c 258
 337 420 l 257
 337 462 l 257
 271 462 l 258
 189 462 143 510 143 569 c 256
 143 635 175 680 290 680 c 257
 290 718 l 257
540 730 m 257
 -10 730 l 257
 -10 680 l 257
 540 680 l 257
 540 730 l 257
289 101 m 256
 411 101 502 148 565 222 c 257
 565 287 l 257
 514 221 425 159 289 159 c 256
 188 159 143 203 143 276 c 256
 143 351 186 412 281 412 c 258
 337 412 l 257
 337 454 l 257
 269 454 l 258
 164 454 73 398 73 277 c 256
 73 164 147 101 289 101 c 256
EndSplineSet
Validated: 5
Ligature2: "'half' Half Forms lookup 9 subtable" ghadeva viramadeva
EndChar

StartChar: ghadeva_viramadeva_radeva
Encoding: 65600 -1 342
Width: 679
VWidth: 0
Flags: W
PickledData: "(dp1
S'com.typemytype.robofont.layerData'
p2
(dp3
s."
LayerCount: 2
Fore
SplineSet
390 183 m 257
 70 25 l 257
 101 -34 l 257
 390 125 l 257
 390 183 l 257
EndSplineSet
Refer: 340 2328 N 1 0 0 1 0 0 2
Validated: 5
Ligature2: "'vatu' Vattu Variants lookup 10 subtable" ghadeva viramadeva_radeva
EndChar

StartChar: glottalstopdeva
Encoding: 2429 2429 345
Width: 562
VWidth: 0
Flags: W
PickledData: "(dp1
S'com.typemytype.robofont.layerData'
p2
(dp3
s."
LayerCount: 2
Fore
SplineSet
267 0 m 257
 267 259 l 257
 285 259 l 258
 461 259 527 326 527 504 c 256
 527 669 449 744 279 744 c 256
 105 744 47 659 35 535 c 257
 98 535 l 257
 105 619 145 685 279 685 c 256
 405 685 457 631 457 504 c 256
 457 368 415 315 272 315 c 258
 197 315 l 257
 197 0 l 257
 267 0 l 257
EndSplineSet
Validated: 9
EndChar

StartChar: glyph244
Encoding: 65602 -1 346
Width: 0
VWidth: 0
Flags: W
PickledData: "(dp1
S'com.typemytype.robofont.layerData'
p2
(dp3
s."
LayerCount: 2
Fore
SplineSet
-185 -394 m 257
 -115 -394 l 257
 -115 98 l 257
 -185 98 l 257
 -185 -394 l 257
-232 -45 m 257
 -264 -35 -298 -29 -338 -29 c 256
 -510 -29 -529 -102 -529 -181 c 256
 -529 -268 -510 -346 -339 -346 c 256
 -260 -346 -201 -331 -160 -302 c 257
 -160 -241 l 257
 -190 -269 -250 -291 -330 -291 c 256
 -448 -291 -459 -242 -459 -182 c 256
 -459 -130 -448 -85 -325 -85 c 256
 -297 -85 -270 -89 -245 -97 c 257
 -232 -45 l 257
EndSplineSet
Validated: 5
EndChar

StartChar: grave
Encoding: 96 96 347
Width: 314
VWidth: 0
Flags: W
PickledData: "(dp1
S'com.typemytype.robofont.layerData'
p2
(dp3
s."
LayerCount: 2
Fore
SplineSet
222 624 m 257
 50 774 l 257
 103 827 l 257
 264 666 l 257
 222 624 l 257
EndSplineSet
Validated: 1
EndChar

StartChar: grave.case
Encoding: 65603 -1 348
Width: 314
VWidth: 0
Flags: W
PickledData: "(dp1
S'com.typemytype.robofont.layerData'
p2
(dp3
s."
LayerCount: 2
Fore
SplineSet
222 782 m 257
 50 932 l 257
 103 985 l 257
 264 824 l 257
 222 782 l 257
EndSplineSet
Validated: 1
EndChar

StartChar: gravedeva
Encoding: 2387 2387 349
Width: 0
VWidth: 0
Flags: W
PickledData: "(dp1
S'com.typemytype.robofont.layerData'
p2
(dp3
s."
AnchorPoint: "Anchor-1" -75 728 mark 0
AnchorPoint: "DVAnchor3" -75 728 mark 0
LayerCount: 2
Fore
SplineSet
-48 782 m 257
 -220 932 l 257
 -167 985 l 257
 -6 824 l 257
 -48 782 l 257
EndSplineSet
Validated: 1
EndChar

StartChar: greater
Encoding: 62 62 350
Width: 580
VWidth: 0
Flags: W
PickledData: "(dp1
S'com.typemytype.robofont.layerData'
p2
(dp3
s."
LayerCount: 2
Fore
SplineSet
491 341 m 257
 89 177 l 257
 89 111 l 257
 491 279 l 257
 491 341 l 257
491 355 m 257
 89 523 l 257
 89 457 l 257
 491 293 l 257
 491 355 l 257
EndSplineSet
Validated: 5
EndChar

StartChar: guillemotleft
Encoding: 171 171 352
Width: 520
VWidth: 0
Flags: W
PickledData: "(dp1
S'com.typemytype.robofont.layerData'
p2
(dp3
s."
LayerCount: 2
Fore
SplineSet
121 315 m 257
 245 158 l 257
 198 112 l 257
 30 299 l 257
 30 331 l 257
 198 518 l 257
 245 472 l 257
 121 315 l 257
336 315 m 257
 460 158 l 257
 413 112 l 257
 245 299 l 257
 245 331 l 257
 413 518 l 257
 460 472 l 257
 336 315 l 257
EndSplineSet
Validated: 1
EndChar

StartChar: guillemotright
Encoding: 187 187 353
Width: 520
VWidth: 0
Flags: W
PickledData: "(dp1
S'com.typemytype.robofont.layerData'
p2
(dp3
s."
LayerCount: 2
Fore
SplineSet
369 315 m 257
 245 472 l 257
 292 518 l 257
 460 331 l 257
 460 299 l 257
 292 112 l 257
 245 158 l 257
 369 315 l 257
154 315 m 257
 30 472 l 257
 77 518 l 257
 245 331 l 257
 245 299 l 257
 77 112 l 257
 30 158 l 257
 154 315 l 257
EndSplineSet
Validated: 1
EndChar

StartChar: guilsinglleft
Encoding: 8249 8249 354
Width: 305
VWidth: 0
Flags: W
PickledData: "(dp1
S'com.typemytype.robofont.layerData'
p2
(dp3
s."
LayerCount: 2
Fore
SplineSet
121 315 m 257
 245 158 l 257
 198 112 l 257
 30 299 l 257
 30 331 l 257
 198 518 l 257
 245 472 l 257
 121 315 l 257
EndSplineSet
Validated: 1
EndChar

StartChar: guilsinglright
Encoding: 8250 8250 355
Width: 305
VWidth: 0
Flags: W
PickledData: "(dp1
S'com.typemytype.robofont.layerData'
p2
(dp3
s."
LayerCount: 2
Fore
SplineSet
184 315 m 257
 60 472 l 257
 107 518 l 257
 275 331 l 257
 275 299 l 257
 107 112 l 257
 60 158 l 257
 184 315 l 257
EndSplineSet
Validated: 1
EndChar

StartChar: h
Encoding: 104 104 356
Width: 681
VWidth: 0
Flags: W
PickledData: "(dp1
S'com.typemytype.robofont.layerData'
p2
(dp3
s."
LayerCount: 2
Fore
SplineSet
190 750 m 257
 120 750 l 257
 120 0 l 257
 190 0 l 257
 190 750 l 257
167 433 m 257
 232 492 305 527 385 527 c 256
 461 527 491 491 491 408 c 258
 491 0 l 257
 561 0 l 257
 561 407 l 258
 561 528 515 586 396 586 c 256
 296 586 202 530 153 482 c 257
 167 433 l 257
60 0 m 257
 250 0 l 257
 250 50 l 257
 60 50 l 257
 60 0 l 257
60 700 m 257
 120 700 l 257
 120 750 l 257
 60 750 l 257
 60 700 l 257
431 0 m 257
 621 0 l 257
 621 50 l 257
 431 50 l 257
 431 0 l 257
EndSplineSet
Validated: 5
EndChar

StartChar: h.alt
Encoding: 65604 -1 357
Width: 681
VWidth: 0
Flags: W
PickledData: "(dp1
S'com.typemytype.robofont.layerData'
p2
(dp3
s."
LayerCount: 2
Fore
SplineSet
190 750 m 257
 120 750 l 257
 120 0 l 257
 190 0 l 257
 190 750 l 257
167 383 m 257
 232 442 305 477 385 477 c 256
 461 477 491 441 491 358 c 258
 491 0 l 257
 561 0 l 257
 561 357 l 258
 561 478 515 536 396 536 c 256
 296 536 202 480 153 432 c 257
 167 383 l 257
60 0 m 257
 250 0 l 257
 250 50 l 257
 60 50 l 257
 60 0 l 257
431 0 m 257
 621 0 l 257
 621 50 l 257
 431 50 l 257
 431 0 l 257
EndSplineSet
Validated: 5
EndChar

StartChar: hadeva
Encoding: 2361 2361 358
Width: 621
VWidth: 0
Flags: W
PickledData: "(dp1
S'com.typemytype.robofont.layerData'
p2
(dp3
s."
AnchorPoint: "Anchor-1" 460 730 basechar 0
AnchorPoint: "Anchor-0" 335 -70 basechar 0
AnchorPoint: "Anchor-0" 335 -70 basechar 0
AnchorPoint: "Anchor-1" 460 730 basechar 0
LayerCount: 2
Fore
SplineSet
451 30 m 257
 537 77 581 133 581 206 c 256
 581 326 497 377 369 377 c 256
 190 377 73 318 73 176 c 256
 73 55 186 -27 399 -94 c 257
 425 -38 l 257
 236 18 143 83 143 183 c 256
 143 277 234 320 369 320 c 256
 454 320 511 286 511 212 c 256
 511 156 479 112 410 75 c 257
 451 30 l 257
218 331 m 257
 166 350 143 383 143 425 c 256
 143 471 174 506 261 506 c 257
 261 566 l 257
 132 566 73 504 73 422 c 256
 73 345 112 308 175 283 c 257
 218 331 l 257
495 566 m 257
 495 680 l 257
 631 680 l 257
 631 730 l 257
 -10 730 l 257
 -10 680 l 257
 425 680 l 257
 425 566 l 257
 495 566 l 257
261 506 m 257
 495 506 l 257
 495 566 l 257
 261 566 l 257
 261 506 l 257
EndSplineSet
Validated: 5
EndChar

StartChar: hadeva_rvocalicdeva
Encoding: 65605 -1 359
Width: 610
VWidth: 0
Flags: W
PickledData: "(dp1
S'com.typemytype.robofont.layerData'
p2
(dp3
s."
LayerCount: 2
Fore
SplineSet
218 341 m 257
 166 360 143 393 143 435 c 256
 143 481 174 516 261 516 c 257
 261 576 l 257
 132 576 73 514 73 432 c 256
 73 355 112 318 175 293 c 257
 218 341 l 257
495 576 m 257
 495 680 l 257
 620 680 l 257
 620 730 l 257
 -10 730 l 257
 -10 680 l 257
 425 680 l 257
 425 576 l 257
 495 576 l 257
261 516 m 257
 495 516 l 257
 495 576 l 257
 261 576 l 257
 261 516 l 257
231 98 m 256
 231 32 274 -24 387 -24 c 256
 439 -24 485 -10 521 12 c 257
 504 59 l 257
 474 42 438 30 398 30 c 256
 332 30 301 61 301 103 c 256
 301 211 534 171 534 297 c 256
 534 359 481 409 370 409 c 257
 370 355 l 257
 428 355 464 329 464 297 c 256
 464 213 231 252 231 98 c 256
370 409 m 257
 184 409 73 306 73 136 c 256
 73 -23 163 -118 334 -176 c 257
 360 -118 l 257
 215 -70 143 9 143 132 c 256
 143 274 220 355 370 355 c 257
 370 409 l 257
EndSplineSet
Validated: 5
Ligature2: "'blws' Below Base Substitutions lookup 27 subtable" hadeva rvocalicsigndeva
EndChar

StartChar: hadeva_viramadeva
Encoding: 65606 -1 360
Width: 621
VWidth: 0
Flags: W
PickledData: "(dp1
S'com.typemytype.robofont.layerData'
p2
(dp3
s."
LayerCount: 2
Fore
SplineSet
218 331 m 257
 166 350 143 383 143 425 c 256
 143 471 174 506 261 506 c 257
 261 566 l 257
 132 566 73 504 73 422 c 256
 73 345 112 308 175 283 c 257
 218 331 l 257
495 566 m 257
 495 680 l 257
 631 680 l 257
 631 730 l 257
 -10 730 l 257
 -10 680 l 257
 425 680 l 257
 425 566 l 257
 495 566 l 257
261 506 m 257
 495 506 l 257
 495 566 l 257
 261 566 l 257
 261 506 l 257
611 341 m 257
 280 341 l 258
 122 341 73 281 73 164 c 256
 73 31 168 -61 347 -144 c 257
 373 -87 l 257
 219 -14 143 61 143 171 c 256
 143 245 172 291 280 291 c 258
 611 291 l 257
 611 341 l 257
EndSplineSet
Validated: 5
Ligature2: "'half' Half Forms lookup 9 subtable" hadeva viramadeva
EndChar

StartChar: hadeva_viramadeva_ladeva
Encoding: 65607 -1 361
Width: 621
VWidth: 0
Flags: W
PickledData: "(dp1
S'com.typemytype.robofont.layerData'
p2
(dp3
s."
AnchorPoint: "Anchor-1" 460 730 basechar 0
AnchorPoint: "Anchor-0" 601 30 basechar 0
AnchorPoint: "Anchor-0" 601 30 basechar 0
AnchorPoint: "Anchor-1" 460 730 basechar 0
LayerCount: 2
Fore
SplineSet
143 146 m 256
 143 266 228 343 374 343 c 256
 489 343 566 288 566 212 c 258
 566 0 l 257
 636 0 l 257
 636 206 l 258
 636 326 532 397 374 397 c 256
 192 397 73 306 73 136 c 256
 73 -23 163 -108 334 -176 c 257
 360 -118 l 257
 215 -60 143 7 143 146 c 256
218 331 m 257
 166 350 143 383 143 425 c 256
 143 471 174 506 261 506 c 257
 261 566 l 257
 132 566 73 504 73 422 c 256
 73 345 112 308 175 283 c 257
 218 331 l 257
495 566 m 257
 495 680 l 257
 686 680 l 257
 686 730 l 257
 -10 730 l 257
 -10 680 l 257
 425 680 l 257
 425 566 l 257
 495 566 l 257
261 506 m 257
 495 506 l 257
 495 566 l 257
 261 566 l 257
 261 506 l 257
572 252 m 257
 472 252 425 192 425 100 c 257
 478 94 l 257
 478 165 505 208 572 208 c 257
 572 252 l 257
479 196 m 257
 455 232 415 252 359 252 c 256
 288 252 233 217 233 131 c 256
 233 52 285 -1 390 -44 c 257
 409 -2 l 257
 327 34 287 74 287 136 c 256
 287 186 317 208 359 208 c 256
 409 208 437 186 448 146 c 257
 479 196 l 257
EndSplineSet
Validated: 5
Ligature2: "'pres' Pre Base Substitutions lookup 12 subtable" hadeva_viramadeva ladeva
Ligature2: "'locl' Localized Forms lookup 2 subtable" hadeva viramadeva ladeva.mr
EndChar

StartChar: hadeva_viramadeva_madeva
Encoding: 65608 -1 362
Width: 800
VWidth: 0
Flags: W
PickledData: "(dp1
S'com.typemytype.robofont.layerData'
p2
(dp3
s."
AnchorPoint: "Anchor-1" 650 730 basechar 0
AnchorPoint: "Anchor-0" 650 30 basechar 0
AnchorPoint: "Anchor-0" 650 30 basechar 0
AnchorPoint: "Anchor-1" 650 730 basechar 0
LayerCount: 2
Fore
SplineSet
313 397 m 257
 149 397 43 306 43 136 c 256
 43 -23 133 -108 304 -176 c 257
 330 -118 l 257
 185 -60 113 7 113 146 c 256
 113 266 187 343 313 343 c 257
 313 397 l 257
183 333 m 257
 134 352 113 384 113 425 c 256
 113 471 144 515 231 515 c 257
 231 565 l 257
 102 565 43 504 43 422 c 256
 43 343 82 305 145 279 c 257
 183 333 l 257
465 565 m 257
 465 680 l 257
 542 680 l 257
 542 730 l 257
 -10 730 l 257
 -10 680 l 257
 395 680 l 257
 395 565 l 257
 465 565 l 257
231 515 m 257
 465 515 l 257
 465 565 l 257
 231 565 l 257
 231 515 l 257
489 231 m 257
 489 317 474 397 313 397 c 257
 313 343 l 257
 411 343 422 297 422 231 c 257
 489 231 l 257
422 231 m 257
 422 165 l 257
 384 165 l 258
 356 165 348 156 348 131 c 256
 348 65 436 21 466 21 c 256
 478 21 489 24 489 42 c 258
 489 115 l 257
 615 115 l 257
 615 0 l 257
 685 0 l 257
 685 680 l 257
 810 680 l 257
 810 730 l 257
 465 730 l 257
 465 680 l 257
 615 680 l 257
 615 165 l 257
 489 165 l 257
 489 231 l 257
 422 231 l 257
EndSplineSet
Validated: 5
Ligature2: "'pres' Pre Base Substitutions lookup 12 subtable" hadeva_viramadeva madeva
Ligature2: "'locl' Localized Forms lookup 2 subtable" hadeva viramadeva madeva
EndChar

StartChar: hadeva_viramadeva_nadeva
Encoding: 65609 -1 363
Width: 621
VWidth: 0
Flags: W
PickledData: "(dp1
S'com.typemytype.robofont.layerData'
p2
(dp3
s."
AnchorPoint: "Anchor-1" 460 730 basechar 0
AnchorPoint: "Anchor-0" 601 30 basechar 0
AnchorPoint: "Anchor-0" 601 30 basechar 0
AnchorPoint: "Anchor-1" 460 730 basechar 0
LayerCount: 2
Fore
SplineSet
636 206 m 258
 636 326 532 397 374 397 c 256
 192 397 73 306 73 136 c 256
 73 -23 163 -108 334 -176 c 257
 360 -118 l 257
 215 -60 143 7 143 146 c 256
 143 266 228 343 374 343 c 256
 489 343 566 288 566 212 c 258
 566 0 l 257
 636 0 l 257
 636 206 l 258
218 331 m 257
 166 350 143 383 143 425 c 256
 143 471 174 506 261 506 c 257
 261 566 l 257
 132 566 73 504 73 422 c 256
 73 345 112 308 175 283 c 257
 218 331 l 257
495 566 m 257
 495 680 l 257
 686 680 l 257
 686 730 l 257
 -10 730 l 257
 -10 680 l 257
 425 680 l 257
 425 566 l 257
 495 566 l 257
261 506 m 257
 495 506 l 257
 495 566 l 257
 261 566 l 257
 261 506 l 257
601 194 m 257
 284 194 l 258
 253 194 241 185 241 156 c 256
 241 91 329 50 359 50 c 256
 371 50 382 53 382 71 c 258
 382 144 l 257
 601 144 l 257
 601 194 l 257
EndSplineSet
Validated: 5
Ligature2: "'pres' Pre Base Substitutions lookup 12 subtable" hadeva_viramadeva nadeva
Ligature2: "'locl' Localized Forms lookup 2 subtable" hadeva viramadeva nadeva
EndChar

StartChar: hadeva_viramadeva_nnadeva
Encoding: 65610 -1 364
Width: 716
VWidth: 0
Flags: W
PickledData: "(dp1
S'com.typemytype.robofont.layerData'
p2
(dp3
s."
AnchorPoint: "Anchor-1" 460 730 basechar 0
AnchorPoint: "Anchor-0" 641 30 basechar 0
AnchorPoint: "Anchor-0" 641 30 basechar 0
AnchorPoint: "Anchor-1" 460 730 basechar 0
LayerCount: 2
Fore
SplineSet
463 343 m 257
 463 201 l 258
 463 151 453 108 382 108 c 256
 310 108 301 151 301 201 c 258
 301 343 l 257
 235 343 l 257
 235 201 l 258
 235 124 260 51 382 51 c 256
 504 51 529 124 529 201 c 258
 529 343 l 257
 463 343 l 257
676 206 m 258
 676 326 565 397 395 397 c 256
 200 397 73 306 73 136 c 256
 73 -23 163 -108 334 -176 c 257
 360 -118 l 257
 215 -60 143 7 143 146 c 256
 143 266 236 343 396 343 c 256
 522 343 606 288 606 212 c 258
 606 0 l 257
 676 0 l 257
 676 206 l 258
218 331 m 257
 166 350 143 383 143 425 c 256
 143 471 174 506 261 506 c 257
 261 566 l 257
 132 566 73 504 73 422 c 256
 73 345 112 308 175 283 c 257
 218 331 l 257
495 566 m 257
 495 680 l 257
 726 680 l 257
 726 730 l 257
 -10 730 l 257
 -10 680 l 257
 425 680 l 257
 425 566 l 257
 495 566 l 257
261 506 m 257
 495 506 l 257
 495 566 l 257
 261 566 l 257
 261 506 l 257
EndSplineSet
Validated: 5
Ligature2: "'pres' Pre Base Substitutions lookup 12 subtable" hadeva_viramadeva nnadeva
Ligature2: "'locl' Localized Forms lookup 2 subtable" hadeva viramadeva nnadeva
EndChar

StartChar: hadeva_viramadeva_radeva
Encoding: 65611 -1 365
Width: 621
VWidth: 0
Flags: W
PickledData: "(dp1
S'com.typemytype.robofont.layerData'
p2
(dp3
s."
AnchorPoint: "Anchor-0" 335 -70 basechar 0
AnchorPoint: "Anchor-0" 335 -70 basechar 0
LayerCount: 2
Fore
SplineSet
427 353 m 257
 240 156 l 257
 289 111 l 257
 479 328 l 257
 427 353 l 257
EndSplineSet
Refer: 358 2361 N 1 0 0 1 0 0 2
Validated: 5
Ligature2: "'vatu' Vattu Variants lookup 10 subtable" hadeva viramadeva_radeva
Ligature2: "'blwf' Below Base Forms lookup 8 subtable" hadeva viramadeva_radeva
Ligature2: "'locl' Localized Forms lookup 2 subtable" hadeva viramadeva radeva
EndChar

StartChar: hadeva_viramadeva_vadeva
Encoding: 65612 -1 366
Width: 676
VWidth: 0
Flags: W
PickledData: "(dp1
S'com.typemytype.robofont.layerData'
p2
(dp3
s."
AnchorPoint: "Anchor-1" 460 730 basechar 0
AnchorPoint: "Anchor-0" 601 30 basechar 0
AnchorPoint: "Anchor-0" 601 30 basechar 0
AnchorPoint: "Anchor-1" 460 730 basechar 0
LayerCount: 2
Fore
SplineSet
467 242 m 257
 443 251 416 255 386 255 c 256
 273 255 231 197 231 125 c 256
 231 48 274 -14 387 -14 c 256
 465 -14 529 16 566 59 c 257
 566 125 l 257
 537 82 474 40 398 40 c 256
 332 40 301 76 301 125 c 256
 301 167 332 201 399 201 c 256
 419 201 438 198 456 192 c 257
 467 242 l 257
636 206 m 258
 636 326 532 397 374 397 c 256
 192 397 73 306 73 136 c 256
 73 -23 163 -108 334 -176 c 257
 360 -118 l 257
 215 -60 143 7 143 146 c 256
 143 266 228 343 374 343 c 256
 489 343 566 288 566 212 c 258
 566 0 l 257
 636 0 l 257
 636 206 l 258
218 331 m 257
 166 350 143 383 143 425 c 256
 143 471 174 506 261 506 c 257
 261 566 l 257
 132 566 73 504 73 422 c 256
 73 345 112 308 175 283 c 257
 218 331 l 257
495 566 m 257
 495 680 l 257
 686 680 l 257
 686 730 l 257
 -10 730 l 257
 -10 680 l 257
 425 680 l 257
 425 566 l 257
 495 566 l 257
261 506 m 257
 495 506 l 257
 495 566 l 257
 261 566 l 257
 261 506 l 257
EndSplineSet
Validated: 5
Ligature2: "'pres' Pre Base Substitutions lookup 12 subtable" hadeva_viramadeva vadeva
Ligature2: "'locl' Localized Forms lookup 2 subtable" hadeva viramadeva vadeva
EndChar

StartChar: hadeva_viramadeva_yadeva
Encoding: 65613 -1 367
Width: 895
VWidth: 0
Flags: W
PickledData: "(dp1
S'com.typemytype.robofont.layerData'
p2
(dp3
s."
AnchorPoint: "Anchor-1" 755 730 basechar 0
AnchorPoint: "Anchor-0" 755 30 basechar 0
AnchorPoint: "Anchor-0" 755 30 basechar 0
AnchorPoint: "Anchor-1" 755 730 basechar 0
LayerCount: 2
Fore
SplineSet
218 341 m 257
 166 360 143 393 143 435 c 256
 143 481 174 516 261 516 c 257
 261 576 l 257
 132 576 73 514 73 432 c 256
 73 355 112 318 175 293 c 257
 218 341 l 257
495 576 m 257
 495 680 l 257
 905 680 l 257
 905 730 l 257
 -10 730 l 257
 -10 680 l 257
 425 680 l 257
 425 576 l 257
 495 576 l 257
261 516 m 257
 495 516 l 257
 495 576 l 257
 261 576 l 257
 261 516 l 257
370 409 m 257
 184 409 73 306 73 136 c 256
 73 -23 163 -118 334 -176 c 257
 360 -118 l 257
 215 -70 143 9 143 132 c 256
 143 274 220 355 370 355 c 257
 370 409 l 257
720 0 m 257
 790 0 l 257
 790 680 l 257
 720 680 l 257
 720 0 l 257
529 0 m 256
 627 0 704 41 755 113 c 257
 755 184 l 257
 714 115 641 54 532 54 c 256
 403 54 355 125 355 239 c 257
 302 239 l 257
 302 88 372 0 529 0 c 256
528 300 m 256
 528 360 477 409 370 409 c 257
 370 355 l 257
 425 355 458 330 458 300 c 256
 458 266 419 239 355 239 c 257
 355 188 l 257
 472 188 528 238 528 300 c 256
EndSplineSet
Validated: 5
Ligature2: "'pres' Pre Base Substitutions lookup 12 subtable" hadeva_viramadeva yadeva
Ligature2: "'locl' Localized Forms lookup 2 subtable" hadeva viramadeva yadeva
EndChar

StartChar: headstrokedeva
Encoding: 43259 43259 370
Width: 681
VWidth: 0
Flags: W
PickledData: "(dp1
S'com.typemytype.robofont.layerData'
p2
(dp3
s."
LayerCount: 2
Fore
SplineSet
52 1052 m 257
 52 1102 l 257
 629 1102 l 257
 629 1052 l 257
 52 1052 l 257
EndSplineSet
Validated: 1
EndChar

StartChar: highspacingdotdeva
Encoding: 2417 2417 371
Width: 224
VWidth: 0
Flags: W
PickledData: "(dp1
S'com.typemytype.robofont.layerData'
p2
(dp3
s."
LayerCount: 2
Fore
SplineSet
111 654 m 256
 148 654 164 669 164 705 c 256
 164 742 149 757 111 757 c 256
 75 757 60 742 60 705 c 256
 60 669 75 654 111 654 c 256
EndSplineSet
Validated: 9
EndChar

StartChar: hungarumlaut
Encoding: 733 733 372
Width: 547
VWidth: 0
Flags: W
PickledData: "(dp1
S'com.typemytype.robofont.layerData'
p2
(dp3
s."
LayerCount: 2
Fore
SplineSet
92 624 m 257
 264 774 l 257
 211 827 l 257
 50 666 l 257
 92 624 l 257
325 624 m 257
 497 774 l 257
 444 827 l 257
 283 666 l 257
 325 624 l 257
EndSplineSet
Validated: 9
EndChar

StartChar: hungarumlaut.case
Encoding: 65614 -1 373
Width: 547
VWidth: 0
Flags: W
PickledData: "(dp1
S'com.typemytype.robofont.layerData'
p2
(dp3
s."
LayerCount: 2
Fore
SplineSet
92 782 m 257
 264 932 l 257
 211 985 l 257
 50 824 l 257
 92 782 l 257
325 782 m 257
 497 932 l 257
 444 985 l 257
 283 824 l 257
 325 782 l 257
EndSplineSet
Validated: 9
EndChar

StartChar: hyphen
Encoding: 45 45 374
Width: 492
VWidth: 0
Flags: W
PickledData: "(dp1
S'com.typemytype.robofont.layerData'
p2
(dp3
s."
LayerCount: 2
Fore
SplineSet
70 288 m 257
 422 288 l 257
 422 348 l 257
 70 348 l 257
 70 288 l 257
EndSplineSet
Validated: 9
EndChar

StartChar: i
Encoding: 105 105 375
Width: 320
VWidth: 0
Flags: W
PickledData: "(dp1
S'com.typemytype.robofont.layerData'
p2
(dp3
s."
LayerCount: 2
Fore
SplineSet
130 572 m 257
 130 0 l 257
 200 0 l 257
 200 572 l 257
 130 572 l 257
70 0 m 257
 260 0 l 257
 260 50 l 257
 70 50 l 257
 70 0 l 257
70 522 m 257
 130 522 l 257
 130 572 l 257
 70 572 l 257
 70 522 l 257
165 672 m 256
 208 672 210 700 210 725 c 256
 210 751 208 779 165 779 c 256
 124 779 122 751 122 725 c 256
 122 700 124 672 165 672 c 256
EndSplineSet
Validated: 5
EndChar

StartChar: ideva
Encoding: 2311 2311 379
Width: 610
VWidth: 0
Flags: W
PickledData: "(dp1
S'com.typemytype.robofont.layerData'
p2
(dp3
s."
AnchorPoint: "Anchor-1" 460 730 basechar 0
AnchorPoint: "Anchor-1" 460 730 basechar 0
LayerCount: 2
Fore
SplineSet
188 288 m 257
 225 305 270 315 312 315 c 256
 427 315 491 269 491 183 c 256
 491 91 428 45 313 45 c 256
 216 45 156 84 129 154 c 257
 95 142 l 257
 121 37 204 -15 318 -15 c 256
 492 -15 560 67 560 183 c 256
 560 294 492 372 318 372 c 256
 279 372 238 363 202 347 c 257
 160 365 143 396 143 434 c 256
 143 486 174 526 261 526 c 257
 261 586 l 257
 132 586 73 520 73 433 c 256
 73 344 118 315 188 288 c 257
495 586 m 257
 495 680 l 257
 620 680 l 257
 620 730 l 257
 -10 730 l 257
 -10 680 l 257
 425 680 l 257
 425 586 l 257
 495 586 l 257
261 526 m 257
 495 526 l 257
 495 586 l 257
 261 586 l 257
 261 526 l 257
144 42 m 257
 211 -45 319 -131 494 -195 c 257
 509 -141 l 257
 267 -47 154 71 154 226 c 257
 8 260 33 104 144 42 c 257
EndSplineSet
Validated: 37
EndChar

StartChar: iisign_ra_virama_anusvara
Encoding: 65615 -1 383
Width: 300
VWidth: 0
Flags: W
PickledData: "(dp1
S'com.typemytype.robofont.layerData'
p2
(dp3
s."
LayerCount: 2
Fore
SplineSet
159 820 m 257
 152 843 148 868 148 898 c 256
 148 974 180 1030 271 1030 c 256
 305 1030 344 1025 384 1013 c 257
 399 1068 l 257
 364 1080 323 1087 276 1087 c 256
 80 1087 49 904 123 773 c 257
 159 820 l 257
310 823 m 256
 347 823 363 838 363 874 c 256
 363 911 348 926 310 926 c 256
 274 926 259 911 259 874 c 256
 259 838 274 823 310 823 c 256
EndSplineSet
Refer: 385 2368 N 1 0 0 1 0 0 2
Validated: 37
Substitution2: "Single Substitution lookup 29 subtable" iisign_ra_virama_anusvara.alt1
Ligature2: "'psts' Post Base Substitutions lookup 26 subtable" iisigndeva radeva_viramadeva_anusvaradeva
EndChar

StartChar: iisign_ra_virama_anusvara.alt1
Encoding: 65616 -1 384
Width: 300
VWidth: 0
Flags: W
PickledData: "(dp1
S'com.typemytype.robofont.layerData'
p2
(dp3
s."
LayerCount: 2
Fore
SplineSet
279 823 m 256
 316 823 332 838 332 874 c 256
 332 911 317 926 279 926 c 256
 243 926 228 911 228 874 c 256
 228 838 243 823 279 823 c 256
-275 1070 m 256
 -454 1070 -521 974 -521 870 c 256
 -521 820 -504 770 -475 730 c 257
 -401 730 l 257
 -428 761 -451 819 -451 869 c 256
 -451 943 -400 1010 -268 1010 c 256
 -59 1010 67 858 109 730 c 257
 179 730 l 257
 143 790 116 868 116 924 c 256
 116 997 164 1030 225 1030 c 256
 259 1030 302 1025 346 1013 c 257
 351 1068 l 257
 311 1080 266 1087 215 1087 c 256
 94 1087 49 1011 49 914 c 257
 -25 1008 -129 1070 -275 1070 c 256
EndSplineSet
Refer: 130 2366 N 1 0 0 1 0 0 2
Validated: 5
Ligature2: "'psts' Post Base Substitutions lookup 26 subtable" iisigndeva.alt1 radeva_viramadeva_anusvaradeva
EndChar

StartChar: iisigndeva
Encoding: 2368 2368 385
Width: 300
VWidth: 0
Flags: W
PickledData: "(dp1
S'com.typemytype.robofont.layerData'
p2
(dp3
s."
LayerCount: 2
Fore
SplineSet
183 730 m 257
 162 847 88 1037 -77 1037 c 256
 -203 1037 -242 957 -242 870 c 256
 -242 820 -223 770 -191 730 c 257
 -122 730 l 257
 -149 761 -172 819 -172 869 c 256
 -172 926 -144 977 -70 977 c 256
 43 977 97 818 114 730 c 257
 183 730 l 257
115 680 m 257
 115 0 l 257
 185 0 l 257
 185 680 l 257
 310 680 l 257
 310 730 l 257
 -10 730 l 257
 -10 680 l 257
 115 680 l 257
EndSplineSet
Validated: 5
Substitution2: "Single Substitution lookup 29 subtable" iisigndeva.alt1
EndChar

StartChar: iisigndeva.alt1
Encoding: 65617 -1 386
Width: 300
VWidth: 0
Flags: W
PickledData: "(dp1
S'com.typemytype.robofont.layerData'
p2
(dp3
s."
LayerCount: 2
Fore
SplineSet
179 730 m 257
 142 860 13 1070 -275 1070 c 256
 -454 1070 -521 974 -521 870 c 256
 -521 820 -504 770 -475 730 c 257
 -401 730 l 257
 -428 761 -451 819 -451 869 c 256
 -451 943 -400 1010 -268 1010 c 256
 -29 1010 75 830 110 730 c 257
 179 730 l 257
114 680 m 257
 114 0 l 257
 184 0 l 257
 184 680 l 257
 309 680 l 257
 309 730 l 257
 -11 730 l 257
 -11 680 l 257
 114 680 l 257
EndSplineSet
Validated: 5
EndChar

StartChar: iisigndeva_anusvaradeva
Encoding: 65618 -1 387
Width: 300
VWidth: 0
Flags: W
PickledData: "(dp1
S'com.typemytype.robofont.layerData'
p2
(dp3
s."
LayerCount: 2
Fore
SplineSet
223 922 m 256
 260 922 276 937 276 973 c 256
 276 1010 261 1025 223 1025 c 256
 187 1025 172 1010 172 973 c 256
 172 937 187 922 223 922 c 256
EndSplineSet
Refer: 385 2368 N 1 0 0 1 0 0 2
Validated: 5
Substitution2: "Single Substitution lookup 29 subtable" iisign_ra_virama_anusvara.alt1
Ligature2: "'psts' Post Base Substitutions lookup 26 subtable" iisigndeva anusvaradeva
EndChar

StartChar: iisigndeva_anusvaradeva.alt1
Encoding: 65619 -1 388
Width: 300
VWidth: 0
Flags: W
PickledData: "(dp1
S'com.typemytype.robofont.layerData'
p2
(dp3
s."
LayerCount: 2
Fore
SplineSet
257 922 m 256
 294 922 310 937 310 973 c 256
 310 1010 295 1025 257 1025 c 256
 221 1025 206 1010 206 973 c 256
 206 937 221 922 257 922 c 256
179 730 m 257
 142 860 13 1070 -275 1070 c 256
 -454 1070 -521 974 -521 870 c 256
 -521 820 -504 770 -475 730 c 257
 -401 730 l 257
 -428 761 -451 819 -451 869 c 256
 -451 943 -400 1010 -268 1010 c 256
 -29 1010 75 830 110 730 c 257
 179 730 l 257
EndSplineSet
Refer: 130 2366 N 1 0 0 1 0 0 2
Validated: 5
Ligature2: "'psts' Post Base Substitutions lookup 26 subtable" iisigndeva.alt1 anusvaradeva
EndChar

StartChar: iisigndeva_ra_virama
Encoding: 65620 -1 389
Width: 300
VWidth: 0
Flags: W
PickledData: "(dp1
S'com.typemytype.robofont.layerData'
p2
(dp3
s."
LayerCount: 2
Fore
SplineSet
159 820 m 257
 152 843 148 868 148 898 c 256
 148 974 180 1030 271 1030 c 256
 305 1030 344 1025 384 1013 c 257
 399 1068 l 257
 364 1080 323 1087 276 1087 c 256
 80 1087 49 904 123 773 c 257
 159 820 l 257
EndSplineSet
Refer: 385 2368 N 1 0 0 1 0 0 2
Validated: 37
Substitution2: "Single Substitution lookup 29 subtable" iisigndeva_ra_virama.alt1
Ligature2: "'psts' Post Base Substitutions lookup 26 subtable" iisigndeva radeva_viramadeva
EndChar

StartChar: iisigndeva_ra_virama.alt1
Encoding: 65621 -1 390
Width: 300
VWidth: 0
Flags: W
PickledData: "(dp1
S'com.typemytype.robofont.layerData'
p2
(dp3
s."
LayerCount: 2
Fore
SplineSet
-275 1070 m 256
 -454 1070 -521 974 -521 870 c 256
 -521 820 -504 770 -475 730 c 257
 -401 730 l 257
 -428 761 -451 819 -451 869 c 256
 -451 943 -400 1010 -268 1010 c 256
 -59 1010 67 858 109 730 c 257
 179 730 l 257
 143 790 116 868 116 924 c 256
 116 997 164 1030 225 1030 c 256
 259 1030 302 1025 346 1013 c 257
 351 1068 l 257
 311 1080 266 1087 215 1087 c 256
 94 1087 49 1011 49 914 c 257
 -25 1008 -129 1070 -275 1070 c 256
EndSplineSet
Refer: 130 2366 N 1 0 0 1 0 0 2
Validated: 5
Ligature2: "'psts' Post Base Substitutions lookup 26 subtable" iisigndeva.alt1 radeva_viramadeva
EndChar

StartChar: infinity
Encoding: 8734 8734 393
Width: 637
VWidth: 0
Flags: W
PickledData: "(dp1
S'com.typemytype.robofont.layerData'
p2
(dp3
s."
LayerCount: 2
Fore
SplineSet
298 348 m 258
 314 448 352 486 442 486 c 256
 536 486 597 452 597 318 c 256
 597 185 536 151 442 151 c 256
 352 151 316 199 300 298 c 257
 339 303 l 257
 349 241 383 211 440 211 c 256
 501 211 541 233 541 318 c 256
 541 404 501 426 440 426 c 256
 383 426 357 406 347 342 c 258
 339 288 l 258
 324 189 284 151 195 151 c 256
 101 151 40 185 40 318 c 256
 40 452 101 486 195 486 c 256
 284 486 321 438 336 339 c 257
 298 334 l 257
 288 396 254 426 197 426 c 256
 136 426 96 404 96 318 c 256
 96 233 136 211 197 211 c 256
 254 211 278 230 288 288 c 258
 298 348 l 258
EndSplineSet
Validated: 5
EndChar

StartChar: inr_currency
Encoding: 8377 8377 394
Width: 595
VWidth: 0
Flags: W
PickledData: "(dp1
S'com.typemytype.robofont.layerData'
p2
(dp3
s."
LayerCount: 2
Fore
SplineSet
350 488 m 256
 351 494 351 499 351 502 c 257
 58 502 l 257
 83 563 l 257
 338 563 l 257
 334 571 329 578 323 585 c 256
 290 621 236 639 161 639 c 258
 58 639 l 257
 83 700 l 257
 569 700 l 257
 544 639 l 257
 358 639 l 257
 384 624 401 599 410 563 c 257
 569 563 l 257
 544 502 l 257
 419 502 l 257
 419 401 335 345 167 332 c 257
 495 0 l 257
 397 0 l 257
 68 329 l 257
 68 387 l 257
 248 386 342 419 350 488 c 256
EndSplineSet
Validated: 33
EndChar

StartChar: integral
Encoding: 8747 8747 395
Width: 451
VWidth: 0
Flags: W
PickledData: "(dp1
S'com.typemytype.robofont.layerData'
p2
(dp3
s."
LayerCount: 2
Fore
SplineSet
188 -35 m 258
 188 -141 146 -181 88 -181 c 256
 54 -181 25 -174 0 -159 c 257
 -24 -211 l 257
 6 -229 46 -240 88 -240 c 256
 205 -240 260 -175 260 -35 c 258
 260 479 l 258
 260 585 302 625 360 625 c 256
 394 625 423 618 448 603 c 257
 472 655 l 257
 442 673 402 684 360 684 c 256
 243 684 188 619 188 479 c 258
 188 -35 l 258
EndSplineSet
Validated: 9
EndChar

StartChar: isign_ra_virama
Encoding: 65622 -1 397
Width: 300
VWidth: 0
Flags: W
PickledData: "(dp1
S'com.typemytype.robofont.layerData'
p2
(dp3
s."
LayerCount: 2
Fore
SplineSet
115 680 m 257
 115 0 l 257
 185 0 l 257
 185 680 l 257
 310 680 l 257
 310 730 l 257
 -10 730 l 257
 -10 680 l 257
 115 680 l 257
743 805 m 257
 721 844 710 882 710 927 c 256
 710 987 741 1030 823 1030 c 256
 857 1030 900 1025 944 1013 c 257
 949 1068 l 257
 909 1080 864 1087 813 1087 c 256
 694 1087 640 1022 640 932 c 256
 640 880 660 828 691 782 c 257
 743 805 l 257
775 730 m 257
 742 847 602 1037 337 1037 c 256
 126 1037 64 946 64 848 c 256
 64 806 80 764 108 730 c 257
 177 730 l 257
 154 756 134 805 134 847 c 256
 134 916 187 977 336 977 c 256
 563 977 672 818 706 730 c 257
 775 730 l 257
EndSplineSet
Validated: 5
Ligature2: "'psts' Post Base Substitutions lookup 26 subtable" isigndeva radeva_viramadeva
Ligature2: "'pres' Pre Base Substitutions lookup 24 subtable" isigndeva radeva_viramadeva
EndChar

StartChar: isign_ra_virama.alt1
Encoding: 65623 -1 398
Width: 300
VWidth: 0
Flags: W
PickledData: "(dp1
S'com.typemytype.robofont.layerData'
p2
(dp3
s."
LayerCount: 2
Fore
SplineSet
752 730 m 257
 721 787 692 845 692 927 c 256
 692 987 723 1030 805 1030 c 256
 839 1030 882 1025 926 1013 c 257
 931 1068 l 257
 891 1080 846 1087 795 1087 c 256
 677 1087 624 1022 624 932 c 256
 624 891 638 855 665 822 c 257
 670 791 680 764 690 730 c 257
 752 730 l 257
115 680 m 257
 115 0 l 257
 185 0 l 257
 185 680 l 257
 310 680 l 257
 310 730 l 257
 -10 730 l 257
 -10 680 l 257
 115 680 l 257
686 850 m 257
 611 941 480 1037 274 1037 c 256
 110 1037 59 957 59 870 c 256
 59 820 78 770 110 730 c 257
 179 730 l 257
 152 761 129 819 129 869 c 256
 129 926 171 977 281 977 c 256
 540 977 655 803 690 730 c 257
 686 850 l 257
EndSplineSet
Validated: 5
Ligature2: "'pres' Pre Base Substitutions lookup 24 subtable" isigndeva.alt1 radeva_viramadeva
EndChar

StartChar: isign_ra_virama.alt2
Encoding: 65624 -1 399
Width: 300
VWidth: 0
Flags: W
PickledData: "(dp1
S'com.typemytype.robofont.layerData'
p2
(dp3
s."
LayerCount: 2
Fore
SplineSet
1280 730 m 257
 1166 858 863 1070 398 1070 c 256
 136 1070 61 974 61 875 c 256
 61 825 81 767 108 730 c 257
 179 730 l 257
 152 761 129 810 129 869 c 256
 129 953 202 1010 398 1010 c 256
 813 1010 1085 824 1207 730 c 257
 1280 730 l 257
115 680 m 257
 115 0 l 257
 185 0 l 257
 185 680 l 257
 310 680 l 257
 310 730 l 257
 -10 730 l 257
 -10 680 l 257
 115 680 l 257
1280 730 m 257
 1249 787 1220 845 1220 927 c 256
 1220 987 1251 1030 1333 1030 c 256
 1367 1030 1410 1025 1454 1013 c 257
 1459 1068 l 257
 1419 1080 1374 1087 1323 1087 c 256
 1205 1087 1152 1022 1152 932 c 256
 1152 875 1170 825 1203 779 c 257
 1206 762 1212 748 1218 730 c 257
 1280 730 l 257
EndSplineSet
Validated: 5
Substitution2: "Single Substitution lookup 34 subtable" isign_ra_virama.alt1
Ligature2: "'pres' Pre Base Substitutions lookup 24 subtable" isigndeva.alt2 radeva_viramadeva
EndChar

StartChar: isign_ra_virama.alt3
Encoding: 65625 -1 400
Width: 300
VWidth: 0
Flags: W
PickledData: "(dp1
S'com.typemytype.robofont.layerData'
p2
(dp3
s."
LayerCount: 2
Fore
SplineSet
745 730 m 257
 649 900 l 257
 579 976 476 1037 337 1037 c 256
 126 1037 64 946 64 848 c 256
 64 806 80 764 108 730 c 257
 177 730 l 257
 154 756 134 805 134 847 c 256
 134 916 187 977 336 977 c 256
 545 977 645 818 676 730 c 257
 745 730 l 257
745 730 m 257
 714 787 685 845 685 927 c 256
 685 987 716 1030 798 1030 c 256
 832 1030 875 1025 919 1013 c 257
 924 1068 l 257
 884 1080 839 1087 788 1087 c 256
 670 1087 617 1022 617 932 c 256
 617 891 631 855 658 822 c 257
 663 791 673 764 683 730 c 257
 745 730 l 257
115 680 m 257
 115 0 l 257
 185 0 l 257
 185 680 l 257
 310 680 l 257
 310 730 l 257
 -10 730 l 257
 -10 680 l 257
 115 680 l 257
EndSplineSet
Validated: 5
Ligature2: "'pres' Pre Base Substitutions lookup 24 subtable" isigndeva.alt3 radeva_viramadeva
EndChar

StartChar: isign_ra_virama.alt4
Encoding: 65626 -1 401
Width: 300
VWidth: 0
Flags: W
PickledData: "(dp1
S'com.typemytype.robofont.layerData'
p2
(dp3
s."
LayerCount: 2
Fore
SplineSet
861 730 m 257
 796 841 l 257
 715 939 565 1037 337 1037 c 256
 126 1037 64 946 64 848 c 256
 64 806 80 764 108 730 c 257
 177 730 l 257
 154 756 134 805 134 847 c 256
 134 916 187 977 336 977 c 256
 616 977 751 818 792 730 c 257
 861 730 l 257
861 730 m 257
 830 787 801 845 801 927 c 256
 801 987 832 1030 914 1030 c 256
 948 1030 991 1025 1035 1013 c 257
 1040 1068 l 257
 1000 1080 955 1087 904 1087 c 256
 786 1087 733 1022 733 932 c 256
 733 878 753 830 791 786 c 257
 793 767 796 751 799 730 c 257
 861 730 l 257
115 680 m 257
 115 0 l 257
 185 0 l 257
 185 680 l 257
 310 680 l 257
 310 730 l 257
 -10 730 l 257
 -10 680 l 257
 115 680 l 257
EndSplineSet
Validated: 5
Ligature2: "'pres' Pre Base Substitutions lookup 24 subtable" isigndeva.alt4 radeva_viramadeva
EndChar

StartChar: isign_ra_virama.ja
Encoding: 65627 -1 402
Width: 300
VWidth: 0
Flags: W
PickledData: "(dp1
S'com.typemytype.robofont.layerData'
p2
(dp3
s."
LayerCount: 2
Fore
SplineSet
980 730 m 257
 903 858 684 1070 329 1070 c 256
 123 1070 59 974 59 875 c 256
 59 820 78 770 110 730 c 257
 179 730 l 257
 152 761 129 819 129 869 c 256
 129 943 179 1010 329 1010 c 256
 647 1010 825 824 907 730 c 257
 980 730 l 257
115 680 m 257
 115 0 l 257
 185 0 l 257
 185 680 l 257
 310 680 l 257
 310 730 l 257
 -10 730 l 257
 -10 680 l 257
 115 680 l 257
980 730 m 257
 949 787 920 845 920 927 c 256
 920 987 951 1030 1033 1030 c 256
 1067 1030 1110 1025 1154 1013 c 257
 1159 1068 l 257
 1119 1080 1074 1087 1023 1087 c 256
 905 1087 852 1022 852 932 c 256
 852 887 865 848 889 812 c 257
 895 784 906 760 918 730 c 257
 980 730 l 257
EndSplineSet
Validated: 5
Ligature2: "'pres' Pre Base Substitutions lookup 24 subtable" isigndeva.tha radeva_viramadeva
EndChar

StartChar: isign_ra_virama.tha
Encoding: 65628 -1 403
Width: 300
VWidth: 0
Flags: W
PickledData: "(dp1
S'com.typemytype.robofont.layerData'
p2
(dp3
s."
LayerCount: 2
Fore
SplineSet
885 730 m 257
 819 858 632 1070 329 1070 c 256
 123 1070 59 974 59 875 c 256
 59 820 78 770 110 730 c 257
 179 730 l 257
 152 761 129 819 129 869 c 256
 129 943 179 1010 329 1010 c 256
 595 1010 743 824 812 730 c 257
 885 730 l 257
115 680 m 257
 115 0 l 257
 185 0 l 257
 185 680 l 257
 310 680 l 257
 310 730 l 257
 -10 730 l 257
 -10 680 l 257
 115 680 l 257
885 730 m 257
 854 787 825 845 825 927 c 256
 825 987 856 1030 938 1030 c 256
 972 1030 1015 1025 1059 1013 c 257
 1064 1068 l 257
 1024 1080 979 1087 928 1087 c 256
 810 1087 757 1022 757 932 c 256
 757 887 770 848 794 812 c 257
 800 784 811 760 823 730 c 257
 885 730 l 257
EndSplineSet
Validated: 5
Ligature2: "'pres' Pre Base Substitutions lookup 24 subtable" isigndeva.tha radeva_viramadeva
EndChar

StartChar: isign_ra_virama_anusvara
Encoding: 65629 -1 404
Width: 300
VWidth: 0
Flags: W
PickledData: "(dp1
S'com.typemytype.robofont.layerData'
p2
(dp3
s."
LayerCount: 2
Fore
SplineSet
877 823 m 256
 914 823 930 838 930 874 c 256
 930 911 915 926 877 926 c 256
 841 926 826 911 826 874 c 256
 826 838 841 823 877 823 c 256
EndSplineSet
Refer: 397 -1 N 1 0 0 1 0 0 2
Validated: 5
Ligature2: "'psts' Post Base Substitutions lookup 26 subtable" isigndeva radeva_viramadeva_anusvaradeva
Ligature2: "'pres' Pre Base Substitutions lookup 24 subtable" isigndeva radeva_viramadeva anusvaradeva
EndChar

StartChar: isign_ra_virama_anusvara.alt1
Encoding: 65630 -1 405
Width: 300
VWidth: 0
Flags: W
PickledData: "(dp1
S'com.typemytype.robofont.layerData'
p2
(dp3
s."
LayerCount: 2
Fore
SplineSet
859 823 m 256
 896 823 912 838 912 874 c 256
 912 911 897 926 859 926 c 256
 823 926 808 911 808 874 c 256
 808 838 823 823 859 823 c 256
EndSplineSet
Refer: 398 -1 N 1 0 0 1 0 0 2
Validated: 5
Ligature2: "'pres' Pre Base Substitutions lookup 24 subtable" isigndeva.alt1 radeva_viramadeva anusvaradeva
EndChar

StartChar: isign_ra_virama_anusvara.alt2
Encoding: 65631 -1 406
Width: 300
VWidth: 0
Flags: W
PickledData: "(dp1
S'com.typemytype.robofont.layerData'
p2
(dp3
s."
LayerCount: 2
Fore
SplineSet
1387 823 m 256
 1424 823 1440 838 1440 874 c 256
 1440 911 1425 926 1387 926 c 256
 1351 926 1336 911 1336 874 c 256
 1336 838 1351 823 1387 823 c 256
EndSplineSet
Refer: 399 -1 N 1 0 0 1 0 0 2
Validated: 5
Substitution2: "Single Substitution lookup 34 subtable" isign_ra_virama_anusvara.alt1
Ligature2: "'pres' Pre Base Substitutions lookup 24 subtable" isigndeva.alt2 radeva_viramadeva anusvaradeva
EndChar

StartChar: isign_ra_virama_anusvara.alt3
Encoding: 65632 -1 407
Width: 300
VWidth: 0
Flags: W
PickledData: "(dp1
S'com.typemytype.robofont.layerData'
p2
(dp3
s."
LayerCount: 2
Fore
SplineSet
852 823 m 256
 889 823 905 838 905 874 c 256
 905 911 890 926 852 926 c 256
 816 926 801 911 801 874 c 256
 801 838 816 823 852 823 c 256
EndSplineSet
Refer: 400 -1 N 1 0 0 1 0 0 2
Validated: 5
Ligature2: "'pres' Pre Base Substitutions lookup 24 subtable" isigndeva.alt3 radeva_viramadeva anusvaradeva
EndChar

StartChar: isign_ra_virama_anusvara.alt4
Encoding: 65633 -1 408
Width: 300
VWidth: 0
Flags: W
PickledData: "(dp1
S'com.typemytype.robofont.layerData'
p2
(dp3
s."
LayerCount: 2
Fore
SplineSet
968 823 m 256
 1005 823 1021 838 1021 874 c 256
 1021 911 1006 926 968 926 c 256
 932 926 917 911 917 874 c 256
 917 838 932 823 968 823 c 256
EndSplineSet
Refer: 401 -1 N 1 0 0 1 0 0 2
Validated: 5
Ligature2: "'pres' Pre Base Substitutions lookup 24 subtable" isigndeva.alt4 radeva_viramadeva anusvaradeva
EndChar

StartChar: isign_ra_virama_anusvara.ja
Encoding: 65634 -1 409
Width: 300
VWidth: 0
Flags: W
PickledData: "(dp1
S'com.typemytype.robofont.layerData'
p2
(dp3
s."
LayerCount: 2
Fore
SplineSet
1087 823 m 256
 1124 823 1140 838 1140 874 c 256
 1140 911 1125 926 1087 926 c 256
 1051 926 1036 911 1036 874 c 256
 1036 838 1051 823 1087 823 c 256
EndSplineSet
Refer: 402 -1 N 1 0 0 1 0 0 2
Validated: 5
Ligature2: "'pres' Pre Base Substitutions lookup 24 subtable" isigndeva.tha radeva_viramadeva anusvaradeva
EndChar

StartChar: isign_ra_virama_anusvara.tha
Encoding: 65635 -1 410
Width: 300
VWidth: 0
Flags: W
PickledData: "(dp1
S'com.typemytype.robofont.layerData'
p2
(dp3
s."
LayerCount: 2
Fore
SplineSet
992 823 m 256
 1029 823 1045 838 1045 874 c 256
 1045 911 1030 926 992 926 c 256
 956 926 941 911 941 874 c 256
 941 838 956 823 992 823 c 256
EndSplineSet
Refer: 403 -1 N 1 0 0 1 0 0 2
Validated: 5
Ligature2: "'pres' Pre Base Substitutions lookup 24 subtable" isigndeva.tha radeva_viramadeva anusvaradeva
EndChar

StartChar: isigndeva
Encoding: 2367 2367 411
Width: 300
VWidth: 0
Flags: W
PickledData: "(dp1
S'com.typemytype.robofont.layerData'
p2
(dp3
s."
LayerCount: 2
Fore
SplineSet
775 730 m 257
 742 847 602 1037 337 1037 c 256
 126 1037 64 946 64 848 c 256
 64 806 80 764 108 730 c 257
 177 730 l 257
 154 756 134 805 134 847 c 256
 134 916 187 977 336 977 c 256
 563 977 672 818 706 730 c 257
 775 730 l 257
EndSplineSet
Refer: 130 2366 N 1 0 0 1 0 0 2
Validated: 5
Substitution2: "Single Substitution lookup 23 subtable" isigndeva.ja
Substitution2: "Single Substitution lookup 21 subtable" isigndeva.tha
Substitution2: "Single Substitution lookup 19 subtable" isigndeva.alt4
Substitution2: "Single Substitution lookup 17 subtable" isigndeva.alt2
Substitution2: "Single Substitution lookup 15 subtable" isigndeva.alt3
Substitution2: "Single Substitution lookup 14 subtable" isigndeva.alt1
EndChar

StartChar: isigndeva.alt1
Encoding: 65636 -1 412
Width: 300
VWidth: 0
Flags: W
PickledData: "(dp1
S'com.typemytype.robofont.layerData'
p2
(dp3
s."
LayerCount: 2
Fore
SplineSet
759 730 m 257
 720 847 582 1037 274 1037 c 256
 110 1037 59 957 59 870 c 256
 59 820 78 770 110 730 c 257
 179 730 l 257
 152 761 129 819 129 869 c 256
 129 926 171 977 281 977 c 256
 540 977 652 818 690 730 c 257
 759 730 l 257
115 680 m 257
 115 0 l 257
 185 0 l 257
 185 680 l 257
 310 680 l 257
 310 730 l 257
 -10 730 l 257
 -10 680 l 257
 115 680 l 257
EndSplineSet
Validated: 5
EndChar

StartChar: isigndeva.alt2
Encoding: 65637 -1 413
Width: 300
VWidth: 0
Flags: W
PickledData: "(dp1
S'com.typemytype.robofont.layerData'
p2
(dp3
s."
LayerCount: 2
Fore
SplineSet
1280 730 m 257
 1166 858 863 1070 398 1070 c 256
 136 1070 61 974 61 875 c 256
 61 825 81 767 108 730 c 257
 179 730 l 257
 152 761 129 810 129 869 c 256
 129 953 202 1010 398 1010 c 256
 813 1010 1085 824 1207 730 c 257
 1280 730 l 257
115 680 m 257
 115 0 l 257
 185 0 l 257
 185 680 l 257
 310 680 l 257
 310 730 l 257
 -10 730 l 257
 -10 680 l 257
 115 680 l 257
EndSplineSet
Validated: 5
Substitution2: "Single Substitution lookup 34 subtable" isigndeva.alt1
EndChar

StartChar: isigndeva.alt3
Encoding: 65638 -1 414
Width: 300
VWidth: 0
Flags: W
PickledData: "(dp1
S'com.typemytype.robofont.layerData'
p2
(dp3
s."
LayerCount: 2
Fore
SplineSet
745 730 m 257
 714 847 584 1037 337 1037 c 256
 126 1037 64 946 64 848 c 256
 64 806 80 764 108 730 c 257
 177 730 l 257
 154 756 134 805 134 847 c 256
 134 916 187 977 336 977 c 256
 545 977 645 818 676 730 c 257
 745 730 l 257
EndSplineSet
Refer: 130 2366 N 1 0 0 1 0 0 2
Validated: 5
EndChar

StartChar: isigndeva.alt4
Encoding: 65639 -1 415
Width: 300
VWidth: 0
Flags: W
PickledData: "(dp1
S'com.typemytype.robofont.layerData'
p2
(dp3
s."
LayerCount: 2
Fore
SplineSet
861 730 m 257
 821 847 655 1037 337 1037 c 256
 126 1037 64 946 64 848 c 256
 64 806 80 764 108 730 c 257
 177 730 l 257
 154 756 134 805 134 847 c 256
 134 916 187 977 336 977 c 256
 616 977 751 818 792 730 c 257
 861 730 l 257
115 680 m 257
 115 0 l 257
 185 0 l 257
 185 680 l 257
 310 680 l 257
 310 730 l 257
 -10 730 l 257
 -10 680 l 257
 115 680 l 257
EndSplineSet
Validated: 5
EndChar

StartChar: isigndeva.ja
Encoding: 65640 -1 416
Width: 300
VWidth: 0
Flags: W
PickledData: "(dp1
S'com.typemytype.robofont.layerData'
p2
(dp3
s."
LayerCount: 2
Fore
SplineSet
980 730 m 257
 903 858 684 1070 329 1070 c 256
 123 1070 59 974 59 875 c 256
 59 820 78 770 110 730 c 257
 179 730 l 257
 152 761 129 819 129 869 c 256
 129 943 179 1010 329 1010 c 256
 647 1010 825 824 907 730 c 257
 980 730 l 257
115 680 m 257
 115 0 l 257
 185 0 l 257
 185 680 l 257
 310 680 l 257
 310 730 l 257
 -10 730 l 257
 -10 680 l 257
 115 680 l 257
EndSplineSet
Validated: 5
EndChar

StartChar: isigndeva.tha
Encoding: 65641 -1 417
Width: 300
VWidth: 0
Flags: W
PickledData: "(dp1
S'com.typemytype.robofont.layerData'
p2
(dp3
s."
LayerCount: 2
Fore
SplineSet
885 730 m 257
 819 858 632 1070 329 1070 c 256
 123 1070 59 974 59 875 c 256
 59 820 78 770 110 730 c 257
 179 730 l 257
 152 761 129 819 129 869 c 256
 129 943 179 1010 329 1010 c 256
 595 1010 743 824 812 730 c 257
 885 730 l 257
115 680 m 257
 115 0 l 257
 185 0 l 257
 185 680 l 257
 310 680 l 257
 310 730 l 257
 -10 730 l 257
 -10 680 l 257
 115 680 l 257
EndSplineSet
Validated: 5
EndChar

StartChar: isigndeva_anusvara.alt1
Encoding: 65642 -1 418
Width: 300
VWidth: 0
Flags: W
PickledData: "(dp1
S'com.typemytype.robofont.layerData'
p2
(dp3
s."
LayerCount: 2
Fore
SplineSet
758 922 m 256
 795 922 811 937 811 973 c 256
 811 1010 796 1025 758 1025 c 256
 722 1025 707 1010 707 973 c 256
 707 937 722 922 758 922 c 256
EndSplineSet
Refer: 412 -1 N 1 0 0 1 0 0 2
Validated: 5
Ligature2: "'pres' Pre Base Substitutions lookup 24 subtable" isigndeva.alt1 anusvaradeva
EndChar

StartChar: isigndeva_anusvara.alt2
Encoding: 65643 -1 419
Width: 300
VWidth: 0
Flags: W
PickledData: "(dp1
S'com.typemytype.robofont.layerData'
p2
(dp3
s."
LayerCount: 2
Fore
SplineSet
1302 922 m 256
 1339 922 1355 937 1355 973 c 256
 1355 1010 1340 1025 1302 1025 c 256
 1266 1025 1251 1010 1251 973 c 256
 1251 937 1266 922 1302 922 c 256
EndSplineSet
Refer: 413 -1 N 1 0 0 1 0 0 2
Validated: 5
Substitution2: "Single Substitution lookup 34 subtable" isigndeva_anusvara.alt1
Ligature2: "'pres' Pre Base Substitutions lookup 24 subtable" isigndeva.alt2 anusvaradeva
EndChar

StartChar: isigndeva_anusvara.tha
Encoding: 65644 -1 420
Width: 300
VWidth: 0
Flags: W
PickledData: "(dp1
S'com.typemytype.robofont.layerData'
p2
(dp3
s."
LayerCount: 2
Fore
SplineSet
832 922 m 256
 869 922 885 937 885 973 c 256
 885 1010 870 1025 832 1025 c 256
 796 1025 781 1010 781 973 c 256
 781 937 796 922 832 922 c 256
EndSplineSet
Refer: 417 -1 N 1 0 0 1 0 0 2
Validated: 5
Ligature2: "'pres' Pre Base Substitutions lookup 24 subtable" isigndeva.tha anusvaradeva
EndChar

StartChar: isigndeva_anusvaradeva
Encoding: 65645 -1 421
Width: 300
VWidth: 0
Flags: W
PickledData: "(dp1
S'com.typemytype.robofont.layerData'
p2
(dp3
s."
LayerCount: 2
Fore
SplineSet
775 730 m 257
 742 847 602 1037 337 1037 c 256
 126 1037 64 946 64 848 c 256
 64 806 80 764 108 730 c 257
 177 730 l 257
 154 756 134 805 134 847 c 256
 134 916 187 977 336 977 c 256
 563 977 672 818 706 730 c 257
 775 730 l 257
776 922 m 256
 813 922 829 937 829 973 c 256
 829 1010 814 1025 776 1025 c 256
 740 1025 725 1010 725 973 c 256
 725 937 740 922 776 922 c 256
EndSplineSet
Refer: 130 2366 N 1 0 0 1 0 0 2
Validated: 5
Ligature2: "'psts' Post Base Substitutions lookup 26 subtable" isigndeva anusvaradeva
Ligature2: "'pres' Pre Base Substitutions lookup 24 subtable" isigndeva anusvaradeva
EndChar

StartChar: isigndeva_anusvaradeva.alt3
Encoding: 65646 -1 422
Width: 300
VWidth: 0
Flags: W
PickledData: "(dp1
S'com.typemytype.robofont.layerData'
p2
(dp3
s."
LayerCount: 2
Fore
SplineSet
745 730 m 257
 714 847 584 1037 337 1037 c 256
 126 1037 64 946 64 848 c 256
 64 806 80 764 108 730 c 257
 177 730 l 257
 154 756 134 805 134 847 c 256
 134 916 187 977 336 977 c 256
 545 977 645 818 676 730 c 257
 745 730 l 257
765 922 m 256
 802 922 818 937 818 973 c 256
 818 1010 803 1025 765 1025 c 256
 729 1025 714 1010 714 973 c 256
 714 937 729 922 765 922 c 256
EndSplineSet
Refer: 130 2366 N 1 0 0 1 0 0 2
Validated: 5
Ligature2: "'pres' Pre Base Substitutions lookup 24 subtable" isigndeva.alt3 anusvaradeva
EndChar

StartChar: isigndeva_anusvaradeva.alt4
Encoding: 65647 -1 423
Width: 300
VWidth: 0
Flags: W
PickledData: "(dp1
S'com.typemytype.robofont.layerData'
p2
(dp3
s."
LayerCount: 2
Fore
SplineSet
861 730 m 257
 821 847 655 1037 337 1037 c 256
 126 1037 64 946 64 848 c 256
 64 806 80 764 108 730 c 257
 177 730 l 257
 154 756 134 805 134 847 c 256
 134 916 187 977 336 977 c 256
 616 977 751 818 792 730 c 257
 861 730 l 257
883 922 m 256
 920 922 936 937 936 973 c 256
 936 1010 921 1025 883 1025 c 256
 847 1025 832 1010 832 973 c 256
 832 937 847 922 883 922 c 256
EndSplineSet
Refer: 130 2366 N 1 0 0 1 0 0 2
Validated: 5
Ligature2: "'pres' Pre Base Substitutions lookup 24 subtable" isigndeva.alt4 anusvaradeva
EndChar

StartChar: isigndeva_anusvaradeva.ja
Encoding: 65648 -1 424
Width: 300
VWidth: 0
Flags: W
PickledData: "(dp1
S'com.typemytype.robofont.layerData'
p2
(dp3
s."
LayerCount: 2
Fore
SplineSet
927 922 m 256
 964 922 980 937 980 973 c 256
 980 1010 965 1025 927 1025 c 256
 891 1025 876 1010 876 973 c 256
 876 937 891 922 927 922 c 256
EndSplineSet
Refer: 416 -1 N 1 0 0 1 0 0 2
Validated: 5
Ligature2: "'pres' Pre Base Substitutions lookup 24 subtable" isigndeva.ja anusvaradeva
EndChar

StartChar: j
Encoding: 106 106 426
Width: 310
VWidth: 0
Flags: W
PickledData: "(dp1
S'com.typemytype.robofont.layerData'
p2
(dp3
s."
LayerCount: 2
Fore
SplineSet
-10 -172 m 257
 -10 -227 l 257
 51 -227 l 258
 173 -227 190 -171 190 -78 c 258
 190 572 l 257
 120 572 l 257
 120 -78 l 258
 120 -138 110 -162 51 -167 c 258
 -10 -172 l 257
60 522 m 257
 152 522 l 257
 152 572 l 257
 60 572 l 257
 60 522 l 257
165 672 m 256
 208 672 210 700 210 725 c 256
 210 751 208 779 165 779 c 256
 124 779 122 751 122 725 c 256
 122 700 124 672 165 672 c 256
EndSplineSet
Validated: 5
EndChar

StartChar: j.alt
Encoding: 65649 -1 427
Width: 310
VWidth: 0
Flags: W
PickledData: "(dp1
S'com.typemytype.robofont.layerData'
p2
(dp3
s."
LayerCount: 2
Fore
SplineSet
-10 -172 m 257
 -10 -227 l 257
 51 -227 l 258
 173 -227 190 -171 190 -78 c 258
 190 572 l 257
 120 572 l 257
 120 -78 l 258
 120 -138 110 -162 51 -167 c 258
 -10 -172 l 257
60 522 m 257
 152 522 l 257
 152 572 l 257
 60 572 l 257
 60 522 l 257
EndSplineSet
Validated: 5
EndChar

StartChar: ja_virama_ja_viramadeva
Encoding: 65650 -1 428
Width: 552
VWidth: 0
Flags: W
PickledData: "(dp1
S'com.typemytype.robofont.layerData'
p2
(dp3
s."
LayerCount: 2
Fore
SplineSet
268 357 m 256
 176 357 112 406 73 465 c 257
 18 425 l 257
 70 356 148 299 268 299 c 256
 402 299 444 366 444 432 c 256
 444 504 410 560 260 560 c 257
 254 536 l 257
 354 536 374 494 374 444 c 256
 374 396 344 357 268 357 c 256
677 680 m 257
 677 730 l 257
 -10 730 l 257
 -10 680 l 257
 677 680 l 257
254 536 m 257
 702 536 l 257
 702 586 l 257
 254 586 l 257
 254 536 l 257
375 199 m 257
 428 186 441 156 441 119 c 256
 441 77 411 43 335 43 c 256
 243 43 179 92 140 151 c 257
 85 111 l 257
 137 42 215 -15 335 -15 c 256
 469 -15 511 48 511 111 c 256
 511 170 483 216 375 227 c 257
 375 199 l 257
404 199 m 257
 702 335 l 257
 702 389 l 257
 375 239 l 257
 375 203 l 257
 404 199 l 257
EndSplineSet
Validated: 5
Ligature2: "'pres' Pre Base Substitutions lookup 12 subtable" jadeva_viramadeva jadeva_viramadeva
EndChar

StartChar: ja_virama_nya_viramadeva
Encoding: 65652 -1 430
Width: 659
VWidth: 0
Flags: W
PickledData: "(dp1
S'com.typemytype.robofont.layerData'
p2
(dp3
s."
LayerCount: 2
Fore
SplineSet
784 680 m 257
 784 730 l 257
 -10 730 l 257
 -10 680 l 257
 784 680 l 257
188 288 m 257
 225 305 270 315 312 315 c 256
 427 315 491 269 491 183 c 256
 491 91 428 45 313 45 c 256
 216 45 156 84 129 154 c 257
 95 142 l 257
 121 37 204 -15 318 -15 c 256
 492 -15 560 67 560 183 c 256
 560 294 492 372 318 372 c 256
 279 372 238 363 202 347 c 257
 160 365 143 395 143 433 c 256
 143 485 174 526 261 526 c 257
 261 586 l 257
 132 586 73 520 73 433 c 256
 73 354 118 315 188 288 c 257
261 526 m 257
 809 526 l 257
 809 586 l 257
 261 586 l 257
 261 526 l 257
144 42 m 257
 211 -45 319 -131 494 -195 c 257
 509 -141 l 257
 267 -47 154 71 154 226 c 257
 8 260 33 104 144 42 c 257
EndSplineSet
Validated: 37
Ligature2: "'half' Half Forms lookup 9 subtable" jadeva_viramadeva_nyadeva viramadeva
EndChar

StartChar: jadeva
Encoding: 2332 2332 431
Width: 802
VWidth: 0
Flags: W
PickledData: "(dp1
S'com.typemytype.robofont.layerData'
p2
(dp3
s."
AnchorPoint: "Anchor-1" 652 730 basechar 0
AnchorPoint: "Anchor-1" 652 730 basechar 0
LayerCount: 2
Fore
SplineSet
617 680 m 257
 617 0 l 257
 687 0 l 257
 687 680 l 257
 812 680 l 257
 812 730 l 257
 -10 730 l 257
 -10 680 l 257
 617 680 l 257
315 207 m 256
 202 207 124 277 78 354 c 257
 23 313 l 257
 81 231 171 149 314 149 c 256
 490 149 517 239 517 335 c 256
 517 415 491 488 306 488 c 257
 300 463 l 257
 437 463 447 402 447 335 c 256
 447 268 437 207 315 207 c 256
300 463 m 257
 617 463 l 257
 617 513 l 257
 300 513 l 257
 300 463 l 257
EndSplineSet
Validated: 5
EndChar

StartChar: jadeva_viramadeva
Encoding: 65653 -1 432
Width: 472
VWidth: 0
Flags: W
PickledData: "(dp1
S'com.typemytype.robofont.layerData'
p2
(dp3
s."
LayerCount: 2
Fore
SplineSet
597 680 m 257
 597 730 l 257
 -50 730 l 257
 -50 680 l 257
 597 680 l 257
270 463 m 257
 622 463 l 257
 622 513 l 257
 270 513 l 257
 270 463 l 257
285 207 m 256
 172 207 94 277 48 354 c 257
 -7 313 l 257
 51 231 141 149 284 149 c 256
 460 149 487 239 487 335 c 256
 487 415 461 488 276 488 c 257
 270 463 l 257
 407 463 417 402 417 335 c 256
 417 268 407 207 285 207 c 256
EndSplineSet
Validated: 5
Ligature2: "'half' Half Forms lookup 9 subtable" jadeva viramadeva
EndChar

StartChar: jadeva_viramadeva_jadeva
Encoding: 65654 -1 433
Width: 852
VWidth: 0
Flags: W
PickledData: "(dp1
S'com.typemytype.robofont.layerData'
p2
(dp3
s."
LayerCount: 2
Fore
SplineSet
268 357 m 256
 176 357 112 406 73 465 c 257
 18 425 l 257
 70 356 148 299 268 299 c 256
 402 299 444 366 444 432 c 256
 444 504 410 560 260 560 c 257
 254 536 l 257
 354 536 374 494 374 444 c 256
 374 396 344 357 268 357 c 256
667 680 m 257
 667 0 l 257
 737 0 l 257
 737 680 l 257
 862 680 l 257
 862 730 l 257
 -10 730 l 257
 -10 680 l 257
 667 680 l 257
254 536 m 257
 702 536 l 257
 702 586 l 257
 254 586 l 257
 254 536 l 257
375 199 m 257
 428 186 441 156 441 119 c 256
 441 77 411 43 335 43 c 256
 243 43 179 92 140 151 c 257
 85 111 l 257
 137 42 215 -15 335 -15 c 256
 469 -15 511 48 511 111 c 256
 511 170 483 216 375 227 c 257
 375 199 l 257
404 199 m 257
 702 335 l 257
 702 389 l 257
 375 239 l 257
 375 203 l 257
 404 199 l 257
EndSplineSet
Validated: 5
Ligature2: "'pres' Pre Base Substitutions lookup 12 subtable" jadeva_viramadeva jadeva
Ligature2: "'locl' Localized Forms lookup 2 subtable" jadeva viramadeva jadeva
EndChar

StartChar: jadeva_viramadeva_nyadeva
Encoding: 65655 -1 434
Width: 707
VWidth: 0
Flags: W
PickledData: "(dp1
S'com.typemytype.robofont.layerData'
p2
(dp3
s."
AnchorPoint: "Anchor-1" 557 730 basechar 0
AnchorPoint: "Anchor-1" 557 730 basechar 0
LayerCount: 2
Fore
SplineSet
63 147 m 257
 99 101 158 79 229 79 c 256
 367 79 435 152 435 256 c 256
 435 383 298 445 135 392 c 257
 102 407 87 436 87 470 c 256
 87 506 111 538 179 538 c 257
 179 588 l 257
 67 588 17 536 17 470 c 256
 17 396 56 360 118 335 c 257
 206 375 366 373 366 256 c 256
 366 177 315 134 221 134 c 256
 162 134 118 152 89 184 c 257
 63 147 l 257
179 538 m 257
 557 538 l 257
 557 588 l 257
 179 588 l 257
 179 538 l 257
276 -29 m 257
 167 59 123 155 132 259 c 257
 23 301 -15 160 91 108 c 257
 118 50 164 -11 233 -70 c 257
 276 -29 l 257
522 680 m 257
 522 0 l 257
 592 0 l 257
 592 680 l 257
 717 680 l 257
 717 730 l 257
 -10 730 l 257
 -10 680 l 257
 522 680 l 257
EndSplineSet
Validated: 37
Ligature2: "'akhn' Akhand lookup 6 subtable" jadeva viramadeva nyadeva
EndChar

StartChar: jhadeva
Encoding: 2333 2333 437
Width: 707
VWidth: 0
Flags: W
PickledData: "(dp1
S'com.typemytype.robofont.layerData'
p2
(dp3
s."
AnchorPoint: "Anchor-1" 557 730 basechar 0
AnchorPoint: "Anchor-1" 557 730 basechar 0
LayerCount: 2
Fore
SplineSet
63 147 m 257
 99 101 158 79 229 79 c 256
 367 79 435 152 435 256 c 256
 435 383 298 445 135 392 c 257
 102 407 87 436 87 470 c 256
 87 506 111 538 179 538 c 257
 179 588 l 257
 67 588 17 536 17 470 c 256
 17 396 56 360 118 335 c 257
 206 375 366 373 366 256 c 256
 366 177 315 134 221 134 c 256
 162 134 118 152 89 184 c 257
 63 147 l 257
179 538 m 257
 307 538 l 257
 307 588 l 257
 179 588 l 257
 179 538 l 257
276 -29 m 257
 167 59 123 155 132 259 c 257
 23 301 -15 160 91 108 c 257
 118 50 164 -11 233 -70 c 257
 276 -29 l 257
522 680 m 257
 522 0 l 257
 592 0 l 257
 592 680 l 257
 717 680 l 257
 717 730 l 257
 -10 730 l 257
 -10 680 l 257
 522 680 l 257
270 538 m 257
 340 538 l 257
 340 680 l 257
 270 680 l 257
 270 538 l 257
312 353 m 257
 364 343 505 343 557 358 c 257
 557 408 l 257
 505 393 364 393 312 403 c 257
 312 353 l 257
EndSplineSet
Validated: 37
Substitution2: "'locl' Localized Forms lookup 3 subtable" jhadeva.np
EndChar

StartChar: jhadeva.np
Encoding: 65657 -1 438
Width: 1000
VWidth: 0
Flags: W
PickledData: "(dp1
S'com.typemytype.robofont.layerData'
p2
(dp3
s."
AnchorPoint: "Anchor-1" 574 730 basechar 0
AnchorPoint: "Anchor-1" 574 730 basechar 0
LayerCount: 2
Fore
SplineSet
724 680 m 257
 1010 680 l 257
 1010 730 l 257
 724 730 l 257
 724 680 l 257
955 367 m 256
 955 482 933 572 771 572 c 256
 638 572 575 483 574 372 c 257
 609 372 l 257
 610 463 658 513 755 513 c 256
 876 513 885 453 885 367 c 256
 885 304 857 215 796 158 c 257
 855 128 l 257
 921 196 955 287 955 367 c 256
EndSplineSet
Refer: 183 2349 N 1 0 0 1 0 0 2
Validated: 5
EndChar

StartChar: jhadeva_viramadeva
Encoding: 65658 -1 439
Width: 407
VWidth: 0
Flags: W
PickledData: "(dp1
S'com.typemytype.robofont.layerData'
p2
(dp3
s."
LayerCount: 2
Fore
SplineSet
63 147 m 257
 99 101 158 79 229 79 c 256
 367 79 435 152 435 256 c 256
 435 383 298 445 135 392 c 257
 102 407 87 436 87 470 c 256
 87 506 111 538 179 538 c 257
 179 588 l 257
 67 588 17 536 17 470 c 256
 17 396 56 360 118 335 c 257
 206 375 366 373 366 256 c 256
 366 177 315 134 221 134 c 256
 162 134 118 152 89 184 c 257
 63 147 l 257
179 538 m 257
 307 538 l 257
 307 588 l 257
 179 588 l 257
 179 538 l 257
276 -29 m 257
 167 59 123 155 132 259 c 257
 23 301 -15 160 91 108 c 257
 118 50 164 -11 233 -70 c 257
 276 -29 l 257
532 680 m 257
 532 730 l 257
 -10 730 l 257
 -10 680 l 257
 532 680 l 257
270 538 m 257
 340 538 l 257
 340 680 l 257
 270 680 l 257
 270 538 l 257
312 353 m 257
 364 343 505 343 557 358 c 257
 557 408 l 257
 505 393 364 393 312 403 c 257
 312 353 l 257
EndSplineSet
Validated: 37
Ligature2: "'half' Half Forms lookup 9 subtable" jhadeva viramadeva
EndChar

StartChar: jjadeva
Encoding: 2428 2428 441
Width: 802
VWidth: 0
Flags: W
PickledData: "(dp1
S'com.typemytype.robofont.layerData'
p2
(dp3
s."
AnchorPoint: "Anchor-1" 652 730 basechar 0
AnchorPoint: "Anchor-1" 652 730 basechar 0
LayerCount: 2
Fore
SplineSet
-10 -50 m 257
 688 -50 l 257
 688 0 l 257
 -10 0 l 257
 -10 -50 l 257
EndSplineSet
Refer: 431 2332 N 1 0 0 1 0 0 2
Validated: 5
EndChar

StartChar: k
Encoding: 107 107 442
Width: 596
VWidth: 0
Flags: W
PickledData: "(dp1
S'com.typemytype.robofont.layerData'
p2
(dp3
s."
LayerCount: 2
Fore
SplineSet
190 0 m 257
 190 750 l 257
 120 750 l 257
 120 0 l 257
 190 0 l 257
154 282 m 257
 309 282 l 257
 309 336 l 257
 154 336 l 257
 154 282 l 257
423 540 m 257
 266 315 l 257
 322 287 l 257
 501 540 l 257
 423 540 l 257
527 21 m 257
 332 305 l 257
 254 305 l 257
 449 21 l 257
 527 21 l 257
60 700 m 257
 152 700 l 257
 152 750 l 257
 60 750 l 257
 60 700 l 257
60 0 m 257
 250 0 l 257
 250 50 l 257
 60 50 l 257
 60 0 l 257
376 0 m 257
 566 0 l 257
 566 50 l 257
 376 50 l 257
 376 0 l 257
358 522 m 257
 548 522 l 257
 548 572 l 257
 358 572 l 257
 358 522 l 257
EndSplineSet
Validated: 5
EndChar

StartChar: ka_virama_ssa_virama_radeva
Encoding: 65660 -1 443
Width: 777
VWidth: 0
Flags: W
PickledData: "(dp1
S'com.typemytype.robofont.layerData'
p2
(dp3
s."
LayerCount: 2
Fore
SplineSet
592 680 m 257
 592 0 l 257
 662 0 l 257
 662 680 l 257
 787 680 l 257
 787 730 l 257
 492 730 l 257
 492 680 l 257
 592 680 l 257
633 176 m 257
 454 91 l 257
 483 35 l 257
 633 108 l 257
 633 176 l 257
376 120 m 257
 417 143 423 160 423 183 c 256
 423 228 370 264 315 264 c 256
 263 264 252 229 296 140 c 258
 375 -19 l 257
 437 11 l 257
 376 120 l 257
23 235 m 256
 23 129 82 73 209 73 c 256
 273 73 367 100 403 147 c 257
 375 206 l 257
 343 165 296 132 209 132 c 256
 135 132 93 165 93 235 c 256
 93 392 364 411 364 608 c 256
 364 679 319 744 211 744 c 256
 100 744 52 679 52 603 c 256
 52 416 276 321 592 413 c 257
 592 473 l 257
 314 380 122 466 122 601 c 256
 122 652 151 691 211 691 c 256
 264 691 294 654 294 607 c 256
 294 431 23 427 23 235 c 256
EndSplineSet
Validated: 37
Ligature2: "'vatu' Vattu Variants lookup 10 subtable" kadeva_viramadeva_ssadeva viramadeva_radeva
EndChar

StartChar: ka_virama_ssa_viramadeva
Encoding: 65661 -1 444
Width: 452
VWidth: 0
Flags: W
PickledData: "(dp1
S'com.typemytype.robofont.layerData'
p2
(dp3
s."
LayerCount: 2
Fore
SplineSet
577 680 m 257
 577 730 l 257
 462 730 l 257
 462 680 l 257
 577 680 l 257
410 125 m 257
 450 146 457 165 457 188 c 256
 457 233 404 269 349 269 c 256
 297 269 287 234 330 145 c 258
 409 -14 l 257
 471 16 l 257
 410 125 l 257
10 258 m 256
 10 139 79 86 229 86 c 256
 296 86 392 107 431 145 c 257
 400 206 l 257
 371 169 319 145 229 145 c 256
 124 145 80 179 80 258 c 256
 80 414 389 402 389 608 c 256
 389 679 359 744 238 744 c 256
 107 744 77 679 77 603 c 256
 77 416 284 321 602 413 c 257
 602 473 l 257
 335 387 147 466 147 601 c 256
 147 651 155 689 236 689 c 256
 309 689 319 653 319 607 c 256
 319 438 10 454 10 258 c 256
EndSplineSet
Validated: 37
Ligature2: "'half' Half Forms lookup 9 subtable" kadeva_viramadeva_ssadeva viramadeva
EndChar

StartChar: kacombiningletterdeva
Encoding: 43244 43244 445
Width: 0
VWidth: 0
Flags: W
PickledData: "(dp1
S'com.typemytype.robofont.layerData'
p2
(dp3
s."
AnchorPoint: "Anchor-1" -150 730 mark 0
AnchorPoint: "DVAnchor3" -150 730 mark 0
LayerCount: 2
Fore
SplineSet
-373 1096 m 257
 57 1096 l 257
 57 1129 l 257
 -373 1129 l 257
 -373 1096 l 257
-175 800 m 257
 -126 800 l 257
 -126 1096 l 257
 -175 1096 l 257
 -175 800 l 257
32 943 m 256
 32 991 23 1037 -57 1037 c 256
 -117 1037 -148 997 -149 943 c 257
 -126 943 l 257
 -126 983 -103 999 -70 999 c 256
 -23 999 -17 976 -17 943 c 256
 -17 913 -26 882 -43 857 c 257
 -2 837 l 257
 20 870 32 905 32 943 c 256
-193 1029 m 257
 -209 1034 -226 1037 -245 1037 c 256
 -322 1037 -338 997 -338 944 c 256
 -338 888 -321 845 -242 845 c 256
 -205 845 -174 856 -151 879 c 257
 -151 920 l 257
 -167 899 -198 883 -235 883 c 256
 -281 883 -289 908 -289 942 c 256
 -289 974 -282 1000 -235 1000 c 256
 -223 1000 -211 998 -201 993 c 257
 -193 1029 l 257
EndSplineSet
Validated: 5
EndChar

StartChar: kadeva
Encoding: 2325 2325 446
Width: 890
VWidth: 0
Flags: W
PickledData: "(dp1
S'com.typemytype.robofont.layerData'
p2
(dp3
s."
AnchorPoint: "Anchor-1" 465 730 basechar 0
AnchorPoint: "Anchor-0" 465 30 basechar 0
AnchorPoint: "Anchor-1" 465 730 basechar 0
AnchorPoint: "Anchor-0" 465 30 basechar 0
LayerCount: 2
Fore
SplineSet
-10 680 m 257
 900 680 l 257
 900 730 l 257
 -10 730 l 257
 -10 680 l 257
430 0 m 257
 500 0 l 257
 500 680 l 257
 430 680 l 257
 430 0 l 257
846 367 m 256
 846 482 824 572 662 572 c 256
 529 572 466 483 465 372 c 257
 500 372 l 257
 500 463 549 513 646 513 c 256
 767 513 776 453 776 367 c 256
 776 299 755 218 711 163 c 257
 770 133 l 257
 820 199 846 288 846 367 c 256
389 550 m 257
 354 564 318 572 274 572 c 256
 84 572 66 464 66 360 c 256
 66 252 83 140 271 140 c 256
 358 140 421 167 465 215 c 257
 465 280 l 257
 432 235 368 197 280 197 c 256
 147 197 136 272 136 356 c 256
 136 439 147 514 286 514 c 256
 318 514 348 508 376 495 c 257
 389 550 l 257
EndSplineSet
Validated: 5
EndChar

StartChar: kadeva_viramadeva
Encoding: 65662 -1 447
Width: 586
VWidth: 0
Flags: W
PickledData: "(dp1
S'com.typemytype.robofont.layerData'
p2
(dp3
s."
LayerCount: 2
Fore
SplineSet
-10 680 m 257
 711 680 l 257
 711 730 l 257
 -10 730 l 257
 -10 680 l 257
430 0 m 257
 500 0 l 257
 500 680 l 257
 430 680 l 257
 430 0 l 257
389 550 m 257
 354 564 318 572 274 572 c 256
 84 572 66 464 66 360 c 256
 66 252 83 140 271 140 c 256
 358 140 421 167 465 215 c 257
 465 280 l 257
 432 235 368 197 280 197 c 256
 147 197 136 272 136 356 c 256
 136 439 147 514 286 514 c 256
 318 514 348 508 376 495 c 257
 389 550 l 257
646 513 m 256
 678 513 708 507 736 495 c 257
 736 555 l 257
 709 566 680 572 646 572 c 256
 524 572 466 483 465 372 c 257
 500 372 l 257
 500 463 549 513 646 513 c 256
EndSplineSet
Validated: 5
Ligature2: "'half' Half Forms lookup 9 subtable" kadeva viramadeva
EndChar

StartChar: kadeva_viramadeva_kadeva
Encoding: 65663 -1 448
Width: 890
VWidth: 0
Flags: W
PickledData: "(dp1
S'com.typemytype.robofont.layerData'
p2
(dp3
s."
AnchorPoint: "Anchor-1" 465 730 basechar 0
AnchorPoint: "Anchor-0" 465 30 basechar 0
AnchorPoint: "Anchor-1" 465 730 basechar 0
AnchorPoint: "Anchor-0" 465 30 basechar 0
LayerCount: 2
Fore
SplineSet
846 233 m 256
 846 316 824 389 662 389 c 256
 529 389 466 322 465 234 c 257
 500 234 l 257
 500 302 549 332 646 332 c 256
 767 332 776 292 776 233 c 256
 776 183 755 127 711 86 c 257
 770 56 l 257
 820 110 846 171 846 233 c 256
121 343 m 257
 73 318 66 276 66 232 c 256
 66 137 83 53 271 53 c 256
 358 53 421 78 465 124 c 257
 465 184 l 257
 432 142 368 108 280 108 c 256
 147 108 136 162 136 228 c 256
 136 256 140 283 170 298 c 257
 121 343 l 257
808 303 m 257
 833 344 846 386 846 430 c 256
 846 513 824 586 662 586 c 256
 529 586 466 519 465 431 c 257
 500 431 l 257
 500 499 549 529 646 529 c 256
 767 529 776 489 776 430 c 256
 776 401 769 371 755 342 c 257
 808 303 l 257
389 571 m 257
 354 580 318 586 274 586 c 256
 84 586 66 513 66 429 c 256
 66 341 83 264 271 264 c 256
 358 264 421 284 465 321 c 257
 465 381 l 257
 432 347 368 319 280 319 c 256
 147 319 136 367 136 425 c 256
 136 483 147 531 286 531 c 256
 318 531 348 527 376 519 c 257
 389 571 l 257
-10 680 m 257
 900 680 l 257
 900 730 l 257
 -10 730 l 257
 -10 680 l 257
430 0 m 257
 500 0 l 257
 500 680 l 257
 430 680 l 257
 430 0 l 257
EndSplineSet
Validated: 5
Ligature2: "'pres' Pre Base Substitutions lookup 12 subtable" kadeva_viramadeva kadeva
Ligature2: "'locl' Localized Forms lookup 2 subtable" kadeva viramadeva kadeva
EndChar

StartChar: kadeva_viramadeva_ladeva
Encoding: 65664 -1 449
Width: 890
VWidth: 0
Flags: W
PickledData: "(dp1
S'com.typemytype.robofont.layerData'
p2
(dp3
s."
AnchorPoint: "Anchor-1" 465 730 basechar 0
AnchorPoint: "Anchor-0" 591 -153 basechar 0
AnchorPoint: "Anchor-1" 465 730 basechar 0
AnchorPoint: "Anchor-0" 591 -153 basechar 0
LayerCount: 2
Fore
SplineSet
430 48 m 257
 500 48 l 257
 500 680 l 257
 430 680 l 257
 430 48 l 257
555 -185 m 257
 602 -162 688 -121 688 -26 c 256
 688 62 635 98 566 98 c 256
 470 98 425 38 425 -54 c 257
 478 -60 l 257
 478 11 503 54 566 54 c 256
 605 54 634 31 634 -22 c 256
 634 -84 573 -119 526 -141 c 257
 555 -185 l 257
479 42 m 257
 456 78 418 98 364 98 c 256
 295 98 242 62 242 -27 c 256
 242 -104 291 -156 390 -198 c 257
 409 -156 l 257
 333 -121 296 -82 296 -22 c 256
 296 31 324 54 364 54 c 256
 411 54 438 32 448 -8 c 257
 479 42 l 257
-10 680 m 257
 900 680 l 257
 900 730 l 257
 -10 730 l 257
 -10 680 l 257
846 367 m 256
 846 482 824 572 662 572 c 256
 529 572 466 483 465 372 c 257
 500 372 l 257
 500 463 549 513 646 513 c 256
 767 513 776 453 776 367 c 256
 776 299 755 218 711 163 c 257
 770 133 l 257
 820 199 846 288 846 367 c 256
389 550 m 257
 354 564 318 572 274 572 c 256
 84 572 66 464 66 360 c 256
 66 252 83 140 271 140 c 256
 358 140 421 167 465 215 c 257
 465 280 l 257
 432 235 368 197 280 197 c 256
 147 197 136 272 136 356 c 256
 136 439 147 514 286 514 c 256
 318 514 348 508 376 495 c 257
 389 550 l 257
EndSplineSet
Validated: 5
Ligature2: "'pres' Pre Base Substitutions lookup 12 subtable" kadeva_viramadeva ladeva
Ligature2: "'locl' Localized Forms lookup 2 subtable" kadeva viramadeva ladeva.mr
EndChar

StartChar: kadeva_viramadeva_radeva.np
Encoding: 65666 -1 451
Width: 974
VWidth: 0
Flags: W
PickledData: "(dp1
S'com.typemytype.robofont.layerData'
p2
(dp3
s."
AnchorPoint: "Anchor-1" 505 730 basechar 0
AnchorPoint: "Anchor-0" 505 30 basechar 0
AnchorPoint: "Anchor-0" 505 30 basechar 0
AnchorPoint: "Anchor-1" 505 730 basechar 0
LayerCount: 2
Fore
SplineSet
470 680 m 257
 470 0 l 257
 540 0 l 257
 540 680 l 257
 984 680 l 257
 984 730 l 257
 -10 730 l 257
 -10 680 l 257
 470 680 l 257
72 428 m 257
 99 482 148 513 215 513 c 256
 301 513 347 468 415 394 c 258
 480 324 l 257
 480 402 l 257
 454 430 l 258
 366 524 313 572 208 572 c 256
 122 572 60 532 23 464 c 257
 72 428 l 257
470 364 m 257
 94 148 l 257
 125 89 l 257
 470 304 l 257
 470 364 l 257
886 367 m 256
 886 482 864 572 702 572 c 256
 569 572 506 483 505 372 c 257
 540 372 l 257
 540 463 589 513 686 513 c 256
 807 513 816 453 816 367 c 256
 816 299 795 218 751 163 c 257
 810 133 l 257
 860 199 886 288 886 367 c 256
EndSplineSet
Validated: 5
Ligature2: "'locl' Localized Forms lookup 4 subtable" kadeva viramadeva radeva
EndChar

StartChar: kadeva_viramadeva_ssadeva
Encoding: 65667 -1 452
Width: 747
VWidth: 0
Flags: W
PickledData: "(dp1
S'com.typemytype.robofont.layerData'
p2
(dp3
s."
AnchorPoint: "Anchor-1" 597 730 basechar 0
AnchorPoint: "Anchor-1" 597 730 basechar 0
LayerCount: 2
Fore
SplineSet
562 680 m 257
 562 0 l 257
 632 0 l 257
 632 680 l 257
 757 680 l 257
 757 730 l 257
 492 730 l 257
 492 680 l 257
 562 680 l 257
376 120 m 257
 417 143 423 160 423 183 c 256
 423 228 370 264 315 264 c 256
 263 264 253 229 296 140 c 258
 375 -19 l 257
 437 11 l 257
 376 120 l 257
23 235 m 256
 23 129 82 73 209 73 c 256
 273 73 367 100 403 147 c 257
 375 206 l 257
 343 165 296 132 209 132 c 256
 135 132 93 165 93 235 c 256
 93 392 364 411 364 608 c 256
 364 679 319 744 211 744 c 256
 100 744 52 679 52 603 c 256
 52 416 264 321 562 413 c 257
 562 473 l 257
 302 380 122 466 122 601 c 256
 122 652 151 691 211 691 c 256
 264 691 294 654 294 607 c 256
 294 431 23 427 23 235 c 256
EndSplineSet
Validated: 37
Ligature2: "'akhn' Akhand lookup 6 subtable" kadeva viramadeva ssadeva
EndChar

StartChar: kadeva_viramadeva_tadeva
Encoding: 65668 -1 453
Width: 956
VWidth: 0
Flags: W
PickledData: "(dp1
S'com.typemytype.robofont.layerData'
p2
(dp3
s."
AnchorPoint: "Anchor-1" 530 730 basechar 0
AnchorPoint: "Anchor-0" 530 30 basechar 0
AnchorPoint: "Anchor-0" 530 30 basechar 0
AnchorPoint: "Anchor-1" 530 730 basechar 0
LayerCount: 2
Fore
SplineSet
495 0 m 257
 565 0 l 257
 565 680 l 257
 495 680 l 257
 495 0 l 257
-10 680 m 257
 966 680 l 257
 966 730 l 257
 -10 730 l 257
 -10 680 l 257
495 479 m 257
 275 479 l 258
 137 479 88 455 88 337 c 256
 88 178 183 73 362 -14 c 257
 388 43 l 257
 234 120 158 208 158 344 c 256
 158 422 187 454 275 454 c 258
 495 454 l 257
 495 479 l 257
10 454 m 257
 495 454 l 257
 495 514 l 257
 10 514 l 257
 10 454 l 257
910 367 m 256
 910 482 888 572 726 572 c 256
 593 572 530 483 529 372 c 257
 564 372 l 257
 564 463 613 513 710 513 c 256
 831 513 840 453 840 367 c 256
 840 299 819 218 775 163 c 257
 834 133 l 257
 884 199 910 288 910 367 c 256
EndSplineSet
Validated: 5
Ligature2: "'pres' Pre Base Substitutions lookup 12 subtable" kadeva_viramadeva tadeva
EndChar

